<svg xmlns="http://www.w3.org/2000/svg" viewBox="0 0 60.02 47.64"><defs><style>.cls-1{fill:#5e17eb;}.cls-2{fill:#fce89f;}</style></defs><g id="Layer_2" data-name="Layer 2"><g id="Layer_1-2" data-name="Layer 1"><path class="cls-1" d="M4,37.9s0-.33.23-.38a11.35,11.35,0,0,1,1.31,0c.1,0,.23.44.23.44H5.33s0-.29-.16-.32a3.62,3.62,0,0,0-.82,0c-.07,0,0,.31,0,.31Z"/><path class="cls-1" d="M9.21,44.21a1.1,1.1,0,0,1-.65,1c-.33.21-.15.36-.15.36s.71-.39.81-.73.16-.76.16-.76Z"/><path class="cls-1" d="M7.46,39.24c.41-.06,1.18.11,1.37.6a17,17,0,0,1,.67,3.07c.06.7.2.91.11,1.16s-.6.64-.76.5-.44-4-.52-4.36-.15-.63-.83-.58"/><path class="cls-1" d="M.38,44.26c.06.6.85.93,1.17,1.15s.17.36.17.36S.53,45.21.41,44.88s-.2-.72-.2-.72Z"/><path class="cls-1" d="M2.18,39.24a1.39,1.39,0,0,0-1.38.6,18,18,0,0,0-.66,3.07c-.06.7-.2.91-.11,1.16s.6.64.76.5.43-4,.52-4.36.15-.63.83-.58"/><path class="cls-2" d="M8.54,46.08c0-.11,0-.22,0-.34.07-2-.35-5.9-1-6.78-1-1.47-4.08-1.36-5.17-.43s-1.5,4.95-1,7.3a2.29,2.29,0,0,0,.07.28A15.74,15.74,0,0,0,8.54,46.08Z"/><path class="cls-1" d="M1.74,46.67v0c.68,1.43,6.24,1.06,6.68.05a1.27,1.27,0,0,0,0-.14A16.21,16.21,0,0,1,1.74,46.67Z"/><path class="cls-1" d="M8.47,46.6a1.18,1.18,0,0,0,0-.2c0-.09,0-.2,0-.32a15.74,15.74,0,0,1-7,0,2.81,2.81,0,0,0,.1.31c0,.09.07.17.1.25A16.21,16.21,0,0,0,8.47,46.6Z"/><path class="cls-1" d="M2.81,45.35a1.93,1.93,0,0,1,.46-2.67,5.56,5.56,0,0,1,3.56.14,2.31,2.31,0,0,1,.42,2.38C6.81,45.86,3.27,45.82,2.81,45.35Z"/><path class="cls-2" d="M3.1,44.92a1.67,1.67,0,0,1,.4-2.3,4.81,4.81,0,0,1,3.07.12,2,2,0,0,1,.37,2C6.55,45.36,3.5,45.33,3.1,44.92Z"/><path class="cls-1" d="M3.44,41.34a1.34,1.34,0,0,1,.32-1.83,3.66,3.66,0,0,1,2.4.09,2.19,2.19,0,0,1,.38,1.75A5.93,5.93,0,0,1,3.44,41.34Z"/><path class="cls-2" d="M3.64,41.06a1.16,1.16,0,0,1,.27-1.59A3.16,3.16,0,0,1,6,39.56a1.89,1.89,0,0,1,.34,1.51A5.12,5.12,0,0,1,3.64,41.06Z"/><rect class="cls-1" x="4.19" y="39.91" width="1.45" height="0.63" rx="0.32"/><path class="cls-1" d="M4,25.82s0-.33.23-.38a9.47,9.47,0,0,1,1.31,0c.1,0,.23.43.23.43H5.33s0-.29-.16-.32a3.62,3.62,0,0,0-.82,0c-.07,0,0,.31,0,.31Z"/><path class="cls-1" d="M9.21,32.13a1.07,1.07,0,0,1-.65,1c-.33.22-.15.37-.15.37s.71-.4.81-.74.16-.76.16-.76Z"/><path class="cls-1" d="M7.46,27.16c.41-.06,1.18.1,1.37.59a17.21,17.21,0,0,1,.67,3.07c.06.7.2.91.11,1.17s-.6.63-.76.49-.44-4-.52-4.35-.15-.64-.83-.58"/><path class="cls-1" d="M.38,32.17c.06.6.85.93,1.17,1.16s.17.35.17.35S.53,33.12.41,32.79s-.2-.72-.2-.72Z"/><path class="cls-1" d="M2.18,27.16c-.41-.06-1.18.1-1.38.59a18.16,18.16,0,0,0-.66,3.07c-.06.7-.2.91-.11,1.17s.6.63.76.49.43-4,.52-4.35.15-.64.83-.58"/><path class="cls-2" d="M8.54,34c0-.1,0-.22,0-.34.07-2-.35-5.89-1-6.77-1-1.48-4.08-1.36-5.17-.44s-1.5,5-1,7.3a2.46,2.46,0,0,0,.07.29A15.74,15.74,0,0,0,8.54,34Z"/><path class="cls-1" d="M1.74,34.58v0c.68,1.43,6.24,1,6.68,0a1.55,1.55,0,0,0,0-.15A16,16,0,0,1,1.74,34.58Z"/><path class="cls-1" d="M8.47,34.51a.9.9,0,0,0,0-.19l0-.33a15.74,15.74,0,0,1-7,0,2.81,2.81,0,0,0,.1.31l.1.24A16,16,0,0,0,8.47,34.51Z"/><path class="cls-1" d="M2.81,33.26a1.92,1.92,0,0,1,.46-2.66,5.5,5.5,0,0,1,3.56.14,2.29,2.29,0,0,1,.42,2.37C6.81,33.77,3.27,33.73,2.81,33.26Z"/><path class="cls-2" d="M3.1,32.84a1.68,1.68,0,0,1,.4-2.31,4.75,4.75,0,0,1,3.07.13,2,2,0,0,1,.37,2C6.55,33.28,3.5,33.24,3.1,32.84Z"/><path class="cls-1" d="M3.44,29.25a1.34,1.34,0,0,1,.32-1.83,3.66,3.66,0,0,1,2.4.1,2.16,2.16,0,0,1,.38,1.74A5.82,5.82,0,0,1,3.44,29.25Z"/><path class="cls-2" d="M3.64,29a1.16,1.16,0,0,1,.27-1.59A3.16,3.16,0,0,1,6,27.47,1.9,1.9,0,0,1,6.33,29,5.22,5.22,0,0,1,3.64,29Z"/><rect class="cls-1" x="4.19" y="27.82" width="1.45" height="0.63" rx="0.32"/><path class="cls-1" d="M16.38,37.9s0-.33.22-.38a11.34,11.34,0,0,1,1.31,0c.1,0,.23.44.23.44H17.7s0-.29-.16-.32a3.62,3.62,0,0,0-.82,0c-.07,0,0,.31,0,.31Z"/><path class="cls-1" d="M21.58,44.21a1.1,1.1,0,0,1-.65,1c-.33.21-.15.36-.15.36s.72-.39.81-.73a6.85,6.85,0,0,0,.16-.76Z"/><path class="cls-1" d="M19.83,39.24c.41-.06,1.18.11,1.37.6a17,17,0,0,1,.67,3.07c.06.7.2.91.11,1.16s-.6.64-.76.5-.43-4-.52-4.36-.15-.63-.83-.58"/><path class="cls-1" d="M12.75,44.26c.06.6.85.93,1.17,1.15s.17.36.17.36-1.19-.56-1.3-.89a6,6,0,0,1-.2-.72Z"/><path class="cls-1" d="M14.55,39.24c-.41-.06-1.18.11-1.37.6a17,17,0,0,0-.67,3.07c-.06.7-.2.91-.11,1.16s.6.64.76.5.44-4,.52-4.36.15-.63.83-.58"/><path class="cls-2" d="M20.91,46.08c0-.11,0-.22,0-.34.07-2-.34-5.9-1-6.78-1-1.47-4.08-1.36-5.17-.43s-1.5,4.95-1,7.3c0,.1.05.19.07.28A15.74,15.74,0,0,0,20.91,46.08Z"/><path class="cls-1" d="M14.11,46.67v0c.68,1.43,6.24,1.06,6.68.05a1.27,1.27,0,0,0,0-.14A16.21,16.21,0,0,1,14.11,46.67Z"/><path class="cls-1" d="M20.84,46.6a1.18,1.18,0,0,0,0-.2,2.69,2.69,0,0,0,0-.32,15.74,15.74,0,0,1-7,0c0,.11.07.21.1.31s.07.17.1.25A16.21,16.21,0,0,0,20.84,46.6Z"/><path class="cls-1" d="M15.18,45.35a1.94,1.94,0,0,1,.46-2.67,5.56,5.56,0,0,1,3.56.14,2.31,2.31,0,0,1,.42,2.38C19.18,45.86,15.65,45.82,15.18,45.35Z"/><path class="cls-2" d="M15.47,44.92a1.68,1.68,0,0,1,.4-2.3,4.81,4.81,0,0,1,3.07.12,2,2,0,0,1,.37,2C18.93,45.36,15.87,45.33,15.47,44.92Z"/><path class="cls-1" d="M15.81,41.34a1.34,1.34,0,0,1,.32-1.83,3.66,3.66,0,0,1,2.4.09,2.19,2.19,0,0,1,.38,1.75A5.93,5.93,0,0,1,15.81,41.34Z"/><path class="cls-2" d="M16,41.06a1.17,1.17,0,0,1,.27-1.59,3.16,3.16,0,0,1,2.08.09,1.89,1.89,0,0,1,.34,1.51A5.12,5.12,0,0,1,16,41.06Z"/><rect class="cls-1" x="16.57" y="39.91" width="1.45" height="0.63" rx="0.32"/><path class="cls-1" d="M16.38,25.82s0-.33.22-.38a9.46,9.46,0,0,1,1.31,0c.1,0,.23.43.23.43H17.7s0-.29-.16-.32a3.62,3.62,0,0,0-.82,0c-.07,0,0,.31,0,.31Z"/><path class="cls-1" d="M21.58,32.13a1.07,1.07,0,0,1-.65,1c-.33.22-.15.37-.15.37s.72-.4.81-.74a6.39,6.39,0,0,0,.16-.76Z"/><path class="cls-1" d="M19.83,27.16c.41-.06,1.18.1,1.37.59a17.21,17.21,0,0,1,.67,3.07c.06.7.2.91.11,1.17s-.6.63-.76.49-.43-4-.52-4.35-.15-.64-.83-.58"/><path class="cls-1" d="M12.75,32.17c.06.6.85.93,1.17,1.16s.17.35.17.35-1.19-.56-1.3-.89a6,6,0,0,1-.2-.72Z"/><path class="cls-1" d="M14.55,27.16c-.41-.06-1.18.1-1.37.59a17.21,17.21,0,0,0-.67,3.07c-.06.7-.2.91-.11,1.17s.6.63.76.49.44-4,.52-4.35.15-.64.83-.58"/><path class="cls-2" d="M20.91,34c0-.1,0-.22,0-.34.07-2-.34-5.89-1-6.77-1-1.48-4.08-1.36-5.17-.44s-1.5,5-1,7.3c0,.1.05.2.07.29A15.74,15.74,0,0,0,20.91,34Z"/><path class="cls-1" d="M14.11,34.58v0c.68,1.43,6.24,1,6.68,0a1.55,1.55,0,0,0,0-.15A16,16,0,0,1,14.11,34.58Z"/><path class="cls-1" d="M20.84,34.51a.9.9,0,0,0,0-.19,3.11,3.11,0,0,0,0-.33,15.74,15.74,0,0,1-7,0c0,.11.07.21.1.31l.1.24A16,16,0,0,0,20.84,34.51Z"/><path class="cls-1" d="M15.18,33.26a1.93,1.93,0,0,1,.46-2.66,5.5,5.5,0,0,1,3.56.14,2.29,2.29,0,0,1,.42,2.37C19.18,33.77,15.65,33.73,15.18,33.26Z"/><path class="cls-2" d="M15.47,32.84a1.69,1.69,0,0,1,.4-2.31,4.75,4.75,0,0,1,3.07.13,2,2,0,0,1,.37,2C18.93,33.28,15.87,33.24,15.47,32.84Z"/><path class="cls-1" d="M15.81,29.25a1.34,1.34,0,0,1,.32-1.83,3.66,3.66,0,0,1,2.4.1,2.16,2.16,0,0,1,.38,1.74A5.82,5.82,0,0,1,15.81,29.25Z"/><path class="cls-2" d="M16,29a1.17,1.17,0,0,1,.27-1.59,3.16,3.16,0,0,1,2.08.08A1.9,1.9,0,0,1,18.7,29,5.22,5.22,0,0,1,16,29Z"/><rect class="cls-1" x="16.57" y="27.82" width="1.45" height="0.63" rx="0.32"/><path class="cls-1" d="M4,12.49s0-.33.23-.38a9.47,9.47,0,0,1,1.31,0c.1,0,.23.44.23.44H5.33s0-.29-.16-.32a3.7,3.7,0,0,0-.82,0c-.07,0,0,.32,0,.32Z"/><path class="cls-1" d="M9.21,18.8a1.1,1.1,0,0,1-.65,1c-.33.21-.15.36-.15.36s.71-.4.81-.74.16-.76.16-.76Z"/><path class="cls-1" d="M7.46,13.83c.41-.06,1.18.11,1.37.59A17.33,17.33,0,0,1,9.5,17.5c.06.7.2.91.11,1.16s-.6.63-.76.5-.44-4-.52-4.36-.15-.64-.83-.58"/><path class="cls-1" d="M.38,18.84c.06.61.85.94,1.17,1.16s.17.36.17.36S.53,19.79.41,19.47s-.2-.73-.2-.73Z"/><path class="cls-1" d="M2.18,13.83a1.41,1.41,0,0,0-1.38.59A18.29,18.29,0,0,0,.14,17.5c-.06.7-.2.91-.11,1.16s.6.63.76.5.43-4,.52-4.36.15-.64.83-.58"/><path class="cls-2" d="M8.54,20.67c0-.11,0-.22,0-.35.07-2-.35-5.89-1-6.77-1-1.48-4.08-1.36-5.17-.43s-1.5,5-1,7.29a2.46,2.46,0,0,0,.07.29A15.74,15.74,0,0,0,8.54,20.67Z"/><path class="cls-1" d="M1.74,21.25v0c.68,1.43,6.24,1,6.68,0,0,0,0-.09,0-.14A16,16,0,0,1,1.74,21.25Z"/><path class="cls-1" d="M8.47,21.19a1.18,1.18,0,0,0,0-.2c0-.1,0-.2,0-.32a15.74,15.74,0,0,1-7,0,2.81,2.81,0,0,0,.1.31c0,.09.07.17.1.24A16,16,0,0,0,8.47,21.19Z"/><path class="cls-1" d="M2.81,19.93a1.92,1.92,0,0,1,.46-2.66,5.56,5.56,0,0,1,3.56.14,2.29,2.29,0,0,1,.42,2.37C6.81,20.45,3.27,20.4,2.81,19.93Z"/><path class="cls-2" d="M3.1,19.51a1.66,1.66,0,0,1,.4-2.3,4.75,4.75,0,0,1,3.07.12,2,2,0,0,1,.37,2.05C6.55,20,3.5,19.91,3.1,19.51Z"/><path class="cls-1" d="M3.44,15.93a1.35,1.35,0,0,1,.32-1.84,3.66,3.66,0,0,1,2.4.1,2.19,2.19,0,0,1,.38,1.75A6,6,0,0,1,3.44,15.93Z"/><path class="cls-2" d="M3.64,15.65a1.16,1.16,0,0,1,.27-1.59A3.22,3.22,0,0,1,6,14.14a1.91,1.91,0,0,1,.34,1.52A5.22,5.22,0,0,1,3.64,15.65Z"/><rect class="cls-1" x="4.19" y="14.49" width="1.45" height="0.63" rx="0.32"/><path class="cls-1" d="M4,.41S4,.08,4.23,0A11.35,11.35,0,0,1,5.54,0c.1,0,.23.44.23.44H5.33s0-.29-.16-.32a3.62,3.62,0,0,0-.82,0c-.07,0,0,.31,0,.31Z"/><path class="cls-1" d="M9.21,6.71a1.09,1.09,0,0,1-.65,1c-.33.21-.15.37-.15.37s.71-.4.81-.74.16-.76.16-.76Z"/><path class="cls-1" d="M7.46,1.74c.41-.05,1.18.11,1.37.6A17,17,0,0,1,9.5,5.41c.06.7.2.91.11,1.17s-.6.63-.76.49-.44-4-.52-4.36-.15-.63-.83-.58"/><path class="cls-1" d="M.38,6.76c.06.6.85.93,1.17,1.16s.17.35.17.35S.53,7.71.41,7.38s-.2-.72-.2-.72Z"/><path class="cls-1" d="M2.18,1.74C1.77,1.69,1,1.85.8,2.34A18,18,0,0,0,.14,5.41c-.06.7-.2.91-.11,1.17s.6.63.76.49.43-4,.52-4.36.15-.63.83-.58"/><path class="cls-2" d="M8.54,8.58c0-.1,0-.22,0-.34.07-2-.35-5.9-1-6.78C6.57,0,3.52.1,2.43,1s-1.5,5-1,7.3c0,.1,0,.19.07.29A15.89,15.89,0,0,0,8.54,8.58Z"/><path class="cls-1" d="M1.74,9.17v0c.68,1.44,6.24,1.06,6.68.05a.84.84,0,0,0,0-.14A16.21,16.21,0,0,1,1.74,9.17Z"/><path class="cls-1" d="M8.47,9.1a1,1,0,0,0,0-.2c0-.09,0-.2,0-.32a15.89,15.89,0,0,1-7,0,2.64,2.64,0,0,0,.1.3c0,.09.07.17.1.25A16.21,16.21,0,0,0,8.47,9.1Z"/><path class="cls-1" d="M2.81,7.85a1.93,1.93,0,0,1,.46-2.67,5.5,5.5,0,0,1,3.56.15A2.29,2.29,0,0,1,7.25,7.7C6.81,8.36,3.27,8.32,2.81,7.85Z"/><path class="cls-2" d="M3.1,7.42a1.67,1.67,0,0,1,.4-2.3,4.81,4.81,0,0,1,3.07.12,2,2,0,0,1,.37,2.05C6.55,7.86,3.5,7.83,3.1,7.42Z"/><path class="cls-1" d="M3.44,3.84A1.34,1.34,0,0,1,3.76,2a3.66,3.66,0,0,1,2.4.09,2.19,2.19,0,0,1,.38,1.75A5.93,5.93,0,0,1,3.44,3.84Z"/><path class="cls-2" d="M3.64,3.56A1.16,1.16,0,0,1,3.91,2,3.16,3.16,0,0,1,6,2.06a1.89,1.89,0,0,1,.34,1.51A5.12,5.12,0,0,1,3.64,3.56Z"/><rect class="cls-1" x="4.19" y="2.41" width="1.45" height="0.63" rx="0.32"/><path class="cls-1" d="M16.38,12.49s0-.33.22-.38a9.46,9.46,0,0,1,1.31,0c.1,0,.23.44.23.44H17.7s0-.29-.16-.32a3.7,3.7,0,0,0-.82,0c-.07,0,0,.32,0,.32Z"/><path class="cls-1" d="M21.58,18.8a1.1,1.1,0,0,1-.65,1c-.33.21-.15.36-.15.36s.72-.4.81-.74a6.39,6.39,0,0,0,.16-.76Z"/><path class="cls-1" d="M19.83,13.83c.41-.06,1.18.11,1.37.59a17.33,17.33,0,0,1,.67,3.08c.06.7.2.91.11,1.16s-.6.63-.76.5-.43-4-.52-4.36-.15-.64-.83-.58"/><path class="cls-1" d="M12.75,18.84c.06.61.85.94,1.17,1.16s.17.36.17.36-1.19-.57-1.3-.89a5.89,5.89,0,0,1-.2-.73Z"/><path class="cls-1" d="M14.55,13.83c-.41-.06-1.18.11-1.37.59a17.33,17.33,0,0,0-.67,3.08c-.06.7-.2.91-.11,1.16s.6.63.76.5.44-4,.52-4.36.15-.64.83-.58"/><path class="cls-2" d="M20.91,20.67c0-.11,0-.22,0-.35.07-2-.34-5.89-1-6.77-1-1.48-4.08-1.36-5.17-.43s-1.5,5-1,7.29c0,.1.05.2.07.29A15.74,15.74,0,0,0,20.91,20.67Z"/><path class="cls-1" d="M14.11,21.25v0c.68,1.43,6.24,1,6.68,0,0,0,0-.09,0-.14A16,16,0,0,1,14.11,21.25Z"/><path class="cls-1" d="M20.84,21.19a1.18,1.18,0,0,0,0-.2,2.91,2.91,0,0,0,0-.32,15.74,15.74,0,0,1-7,0c0,.11.07.21.1.31s.07.17.1.24A16,16,0,0,0,20.84,21.19Z"/><path class="cls-1" d="M15.18,19.93a1.93,1.93,0,0,1,.46-2.66,5.56,5.56,0,0,1,3.56.14,2.29,2.29,0,0,1,.42,2.37C19.18,20.45,15.65,20.4,15.18,19.93Z"/><path class="cls-2" d="M15.47,19.51a1.67,1.67,0,0,1,.4-2.3,4.75,4.75,0,0,1,3.07.12,2,2,0,0,1,.37,2.05C18.93,20,15.87,19.91,15.47,19.51Z"/><path class="cls-1" d="M15.81,15.93a1.35,1.35,0,0,1,.32-1.84,3.66,3.66,0,0,1,2.4.1,2.19,2.19,0,0,1,.38,1.75A6,6,0,0,1,15.81,15.93Z"/><path class="cls-2" d="M16,15.65a1.17,1.17,0,0,1,.27-1.59,3.22,3.22,0,0,1,2.08.08,1.91,1.91,0,0,1,.34,1.52A5.22,5.22,0,0,1,16,15.65Z"/><rect class="cls-1" x="16.57" y="14.49" width="1.45" height="0.63" rx="0.32"/><path class="cls-1" d="M16.38.41s0-.33.22-.39a11.34,11.34,0,0,1,1.31,0c.1,0,.23.44.23.44H17.7s0-.29-.16-.32a3.62,3.62,0,0,0-.82,0c-.07,0,0,.31,0,.31Z"/><path class="cls-1" d="M21.58,6.71a1.09,1.09,0,0,1-.65,1c-.33.21-.15.37-.15.37s.72-.4.81-.74a6.85,6.85,0,0,0,.16-.76Z"/><path class="cls-1" d="M19.83,1.74c.41-.05,1.18.11,1.37.6a17,17,0,0,1,.67,3.07c.06.7.2.91.11,1.17s-.6.63-.76.49-.43-4-.52-4.36-.15-.63-.83-.58"/><path class="cls-1" d="M12.75,6.76c.06.6.85.93,1.17,1.16s.17.35.17.35-1.19-.56-1.3-.89a6,6,0,0,1-.2-.72Z"/><path class="cls-1" d="M14.55,1.74c-.41-.05-1.18.11-1.37.6a17,17,0,0,0-.67,3.07c-.06.7-.2.91-.11,1.17s.6.63.76.49.44-4,.52-4.36.15-.63.83-.58"/><path class="cls-2" d="M20.91,8.58c0-.1,0-.22,0-.34.07-2-.34-5.9-1-6.78C18.94,0,15.89.1,14.8,1s-1.5,5-1,7.3c0,.1.05.19.07.29A15.89,15.89,0,0,0,20.91,8.58Z"/><path class="cls-1" d="M14.11,9.17v0c.68,1.44,6.24,1.06,6.68.05a.84.84,0,0,0,0-.14A16.21,16.21,0,0,1,14.11,9.17Z"/><path class="cls-1" d="M20.84,9.1a1,1,0,0,0,0-.2,2.69,2.69,0,0,0,0-.32,15.89,15.89,0,0,1-7,0c0,.1.07.21.1.3s.07.17.1.25A16.21,16.21,0,0,0,20.84,9.1Z"/><path class="cls-1" d="M15.18,7.85a1.94,1.94,0,0,1,.46-2.67,5.5,5.5,0,0,1,3.56.15,2.29,2.29,0,0,1,.42,2.37C19.18,8.36,15.65,8.32,15.18,7.85Z"/><path class="cls-2" d="M15.47,7.42a1.68,1.68,0,0,1,.4-2.3,4.81,4.81,0,0,1,3.07.12,2,2,0,0,1,.37,2.05C18.93,7.86,15.87,7.83,15.47,7.42Z"/><path class="cls-1" d="M15.81,3.84A1.34,1.34,0,0,1,16.13,2a3.66,3.66,0,0,1,2.4.09,2.19,2.19,0,0,1,.38,1.75A5.93,5.93,0,0,1,15.81,3.84Z"/><path class="cls-2" d="M16,3.56A1.17,1.17,0,0,1,16.28,2a3.16,3.16,0,0,1,2.08.09,1.89,1.89,0,0,1,.34,1.51A5.12,5.12,0,0,1,16,3.56Z"/><rect class="cls-1" x="16.57" y="2.41" width="1.45" height="0.63" rx="0.32"/><path class="cls-1" d="M29.29,37.9s0-.33.23-.38a11.37,11.37,0,0,1,1.31,0c.1,0,.22.44.22.44h-.44s.05-.29-.15-.32a3.6,3.6,0,0,0-.82,0c-.08,0,0,.31,0,.31Z"/><path class="cls-1" d="M34.49,44.21a1.08,1.08,0,0,1-.64,1c-.34.21-.15.36-.15.36s.71-.39.81-.73.16-.76.16-.76Z"/><path class="cls-1" d="M32.75,39.24c.41-.06,1.18.11,1.37.6a18.92,18.92,0,0,1,.67,3.07c.05.7.2.91.11,1.16s-.6.64-.77.5-.43-4-.52-4.36-.14-.63-.82-.58"/><path class="cls-1" d="M25.66,44.26c.07.6.86.93,1.18,1.15s.16.36.16.36-1.18-.56-1.3-.89-.2-.72-.2-.72Z"/><path class="cls-1" d="M27.47,39.24a1.39,1.39,0,0,0-1.38.6,18.92,18.92,0,0,0-.67,3.07c-.05.7-.19.91-.1,1.16s.59.64.76.5.43-4,.52-4.36.15-.63.82-.58"/><path class="cls-2" d="M33.83,46.08c0-.11,0-.22,0-.34.07-2-.35-5.9-1-6.78-1-1.47-4.09-1.36-5.18-.43s-1.49,4.95-1,7.3c0,.1.05.19.08.28A15.74,15.74,0,0,0,33.83,46.08Z"/><path class="cls-1" d="M27,46.67v0c.68,1.43,6.24,1.06,6.67.05a.46.46,0,0,0,0-.14A16.21,16.21,0,0,1,27,46.67Z"/><path class="cls-1" d="M33.76,46.6c0-.06,0-.13,0-.2s0-.2,0-.32a15.74,15.74,0,0,1-7,0,2.81,2.81,0,0,0,.1.31,1.86,1.86,0,0,0,.1.25A16.21,16.21,0,0,0,33.76,46.6Z"/><path class="cls-1" d="M28.09,45.35a1.94,1.94,0,0,1,.47-2.67,5.56,5.56,0,0,1,3.56.14,2.31,2.31,0,0,1,.42,2.38C32.1,45.86,28.56,45.82,28.09,45.35Z"/><path class="cls-2" d="M28.39,44.92a1.66,1.66,0,0,1,.4-2.3,4.82,4.82,0,0,1,3.07.12,2,2,0,0,1,.36,2C31.84,45.36,28.79,45.33,28.39,44.92Z"/><path class="cls-1" d="M28.73,41.34A1.35,1.35,0,0,1,29,39.51a3.69,3.69,0,0,1,2.41.09,2.19,2.19,0,0,1,.38,1.75A5.93,5.93,0,0,1,28.73,41.34Z"/><path class="cls-2" d="M28.92,41.06a1.17,1.17,0,0,1,.28-1.59,3.16,3.16,0,0,1,2.08.09,1.84,1.84,0,0,1,.33,1.51A5.11,5.11,0,0,1,28.92,41.06Z"/><rect class="cls-1" x="29.48" y="39.91" width="1.45" height="0.63" rx="0.32"/><path class="cls-1" d="M29.29,25.82s0-.33.23-.38a9.47,9.47,0,0,1,1.31,0c.1,0,.22.43.22.43h-.44s.05-.29-.15-.32a3.6,3.6,0,0,0-.82,0c-.08,0,0,.31,0,.31Z"/><path class="cls-1" d="M34.49,32.13a1.05,1.05,0,0,1-.64,1c-.34.22-.15.37-.15.37s.71-.4.81-.74.16-.76.16-.76Z"/><path class="cls-1" d="M32.75,27.16c.41-.06,1.18.1,1.37.59a19.16,19.16,0,0,1,.67,3.07c.05.7.2.91.11,1.17s-.6.63-.77.49-.43-4-.52-4.35-.14-.64-.82-.58"/><path class="cls-1" d="M25.66,32.17c.07.6.86.93,1.18,1.16s.16.35.16.35-1.18-.56-1.3-.89-.2-.72-.2-.72Z"/><path class="cls-1" d="M27.47,27.16c-.41-.06-1.18.1-1.38.59a19.16,19.16,0,0,0-.67,3.07c-.05.7-.19.91-.1,1.17s.59.63.76.49.43-4,.52-4.35.15-.64.82-.58"/><path class="cls-2" d="M33.83,34c0-.1,0-.22,0-.34.07-2-.35-5.89-1-6.77-1-1.48-4.09-1.36-5.18-.44s-1.49,5-1,7.3c0,.1.05.2.08.29A15.74,15.74,0,0,0,33.83,34Z"/><path class="cls-1" d="M27,34.58v0c.68,1.43,6.24,1,6.67,0a.53.53,0,0,0,0-.15A16,16,0,0,1,27,34.58Z"/><path class="cls-1" d="M33.76,34.51s0-.12,0-.19,0-.21,0-.33a15.74,15.74,0,0,1-7,0,2.81,2.81,0,0,0,.1.31,2.44,2.44,0,0,0,.1.24A16,16,0,0,0,33.76,34.51Z"/><path class="cls-1" d="M28.09,33.26a1.93,1.93,0,0,1,.47-2.66,5.5,5.5,0,0,1,3.56.14,2.29,2.29,0,0,1,.42,2.37C32.1,33.77,28.56,33.73,28.09,33.26Z"/><path class="cls-2" d="M28.39,32.84a1.67,1.67,0,0,1,.4-2.31,4.75,4.75,0,0,1,3.07.13,2,2,0,0,1,.36,2C31.84,33.28,28.79,33.24,28.39,32.84Z"/><path class="cls-1" d="M28.73,29.25A1.35,1.35,0,0,1,29,27.42a3.69,3.69,0,0,1,2.41.1,2.16,2.16,0,0,1,.38,1.74A5.82,5.82,0,0,1,28.73,29.25Z"/><path class="cls-2" d="M28.92,29a1.17,1.17,0,0,1,.28-1.59,3.16,3.16,0,0,1,2.08.08A1.86,1.86,0,0,1,31.61,29,5.22,5.22,0,0,1,28.92,29Z"/><rect class="cls-1" x="29.48" y="27.82" width="1.45" height="0.63" rx="0.32"/><path class="cls-1" d="M41.66,37.9s0-.33.23-.38a11.37,11.37,0,0,1,1.31,0c.1,0,.23.44.23.44H43s0-.29-.16-.32a3.62,3.62,0,0,0-.82,0c-.07,0,0,.31,0,.31Z"/><path class="cls-1" d="M46.87,44.21a1.1,1.1,0,0,1-.65,1c-.34.21-.15.36-.15.36s.71-.39.81-.73.16-.76.16-.76Z"/><path class="cls-1" d="M45.12,39.24c.41-.06,1.18.11,1.37.6a17,17,0,0,1,.67,3.07c.06.7.2.91.11,1.16s-.6.64-.76.5-.44-4-.52-4.36-.15-.63-.83-.58"/><path class="cls-1" d="M38,44.26c.06.6.85.93,1.17,1.15s.17.36.17.36-1.19-.56-1.31-.89-.2-.72-.2-.72Z"/><path class="cls-1" d="M39.84,39.24a1.39,1.39,0,0,0-1.38.6,18,18,0,0,0-.66,3.07c-.06.7-.2.91-.11,1.16s.6.64.76.5.43-4,.52-4.36.15-.63.82-.58"/><path class="cls-2" d="M46.2,46.08c0-.11,0-.22,0-.34.07-2-.35-5.9-1-6.78-1-1.47-4.08-1.36-5.18-.43s-1.49,4.95-.95,7.3a2.29,2.29,0,0,0,.07.28A15.74,15.74,0,0,0,46.2,46.08Z"/><path class="cls-1" d="M39.4,46.67v0c.68,1.43,6.24,1.06,6.68.05a1.27,1.27,0,0,0,0-.14A16.21,16.21,0,0,1,39.4,46.67Z"/><path class="cls-1" d="M46.13,46.6a1.18,1.18,0,0,0,0-.2c0-.09,0-.2,0-.32a15.74,15.74,0,0,1-7,0,2.81,2.81,0,0,0,.1.31,1.86,1.86,0,0,0,.1.25A16.21,16.21,0,0,0,46.13,46.6Z"/><path class="cls-1" d="M40.47,45.35a1.93,1.93,0,0,1,.46-2.67,5.56,5.56,0,0,1,3.56.14,2.31,2.31,0,0,1,.42,2.38C44.47,45.86,40.93,45.82,40.47,45.35Z"/><path class="cls-2" d="M40.76,44.92a1.66,1.66,0,0,1,.4-2.3,4.81,4.81,0,0,1,3.07.12,2,2,0,0,1,.36,2C44.21,45.36,41.16,45.33,40.76,44.92Z"/><path class="cls-1" d="M41.1,41.34a1.35,1.35,0,0,1,.31-1.83,3.69,3.69,0,0,1,2.41.09,2.19,2.19,0,0,1,.38,1.75A5.93,5.93,0,0,1,41.1,41.34Z"/><path class="cls-2" d="M41.3,41.06a1.16,1.16,0,0,1,.27-1.59,3.16,3.16,0,0,1,2.08.09A1.89,1.89,0,0,1,44,41.07,5.12,5.12,0,0,1,41.3,41.06Z"/><rect class="cls-1" x="41.85" y="39.91" width="1.45" height="0.63" rx="0.32"/><path class="cls-1" d="M41.66,25.82s0-.33.23-.38a9.47,9.47,0,0,1,1.31,0c.1,0,.23.43.23.43H43s0-.29-.16-.32a3.62,3.62,0,0,0-.82,0c-.07,0,0,.31,0,.31Z"/><path class="cls-1" d="M46.87,32.13a1.07,1.07,0,0,1-.65,1c-.34.22-.15.37-.15.37s.71-.4.81-.74S47,32,47,32Z"/><path class="cls-1" d="M45.12,27.16c.41-.06,1.18.1,1.37.59a17.21,17.21,0,0,1,.67,3.07c.06.7.2.91.11,1.17s-.6.63-.76.49-.44-4-.52-4.35-.15-.64-.83-.58"/><path class="cls-1" d="M38,32.17c.06.6.85.93,1.17,1.16s.17.35.17.35-1.19-.56-1.31-.89-.2-.72-.2-.72Z"/><path class="cls-1" d="M39.84,27.16c-.41-.06-1.18.1-1.38.59a18.16,18.16,0,0,0-.66,3.07c-.06.7-.2.91-.11,1.17s.6.63.76.49.43-4,.52-4.35.15-.64.82-.58"/><path class="cls-2" d="M46.2,34c0-.1,0-.22,0-.34.07-2-.35-5.89-1-6.77-1-1.48-4.08-1.36-5.18-.44s-1.49,5-.95,7.3a2.46,2.46,0,0,0,.07.29A15.74,15.74,0,0,0,46.2,34Z"/><path class="cls-1" d="M39.4,34.58v0c.68,1.43,6.24,1,6.68,0a1.55,1.55,0,0,0,0-.15A16,16,0,0,1,39.4,34.58Z"/><path class="cls-1" d="M46.13,34.51a.9.9,0,0,0,0-.19l0-.33a15.74,15.74,0,0,1-7,0,2.81,2.81,0,0,0,.1.31,2.44,2.44,0,0,0,.1.24A16,16,0,0,0,46.13,34.51Z"/><path class="cls-1" d="M40.47,33.26a1.92,1.92,0,0,1,.46-2.66,5.5,5.5,0,0,1,3.56.14,2.29,2.29,0,0,1,.42,2.37C44.47,33.77,40.93,33.73,40.47,33.26Z"/><path class="cls-2" d="M40.76,32.84a1.67,1.67,0,0,1,.4-2.31,4.75,4.75,0,0,1,3.07.13,2,2,0,0,1,.36,2C44.21,33.28,41.16,33.24,40.76,32.84Z"/><path class="cls-1" d="M41.1,29.25a1.35,1.35,0,0,1,.31-1.83,3.69,3.69,0,0,1,2.41.1,2.16,2.16,0,0,1,.38,1.74A5.82,5.82,0,0,1,41.1,29.25Z"/><path class="cls-2" d="M41.3,29a1.16,1.16,0,0,1,.27-1.59,3.16,3.16,0,0,1,2.08.08A1.9,1.9,0,0,1,44,29,5.22,5.22,0,0,1,41.3,29Z"/><rect class="cls-1" x="41.85" y="27.82" width="1.45" height="0.63" rx="0.32"/><path class="cls-1" d="M29.29,12.49s0-.33.23-.38a9.47,9.47,0,0,1,1.31,0c.1,0,.22.44.22.44h-.44s.05-.29-.15-.32a3.69,3.69,0,0,0-.82,0c-.08,0,0,.32,0,.32Z"/><path class="cls-1" d="M34.49,18.8a1.08,1.08,0,0,1-.64,1c-.34.21-.15.36-.15.36s.71-.4.81-.74.16-.76.16-.76Z"/><path class="cls-1" d="M32.75,13.83c.41-.06,1.18.11,1.37.59a19.29,19.29,0,0,1,.67,3.08c.05.7.2.91.11,1.16s-.6.63-.77.5-.43-4-.52-4.36-.14-.64-.82-.58"/><path class="cls-1" d="M25.66,18.84c.07.61.86.94,1.18,1.16s.16.36.16.36-1.18-.57-1.3-.89-.2-.73-.2-.73Z"/><path class="cls-1" d="M27.47,13.83a1.41,1.41,0,0,0-1.38.59,19.29,19.29,0,0,0-.67,3.08c-.05.7-.19.91-.1,1.16s.59.63.76.5.43-4,.52-4.36.15-.64.82-.58"/><path class="cls-2" d="M33.83,20.67c0-.11,0-.22,0-.35.07-2-.35-5.89-1-6.77-1-1.48-4.09-1.36-5.18-.43s-1.49,5-1,7.29c0,.1.05.2.08.29A15.74,15.74,0,0,0,33.83,20.67Z"/><path class="cls-1" d="M27,21.25v0c.68,1.43,6.24,1,6.67,0a.58.58,0,0,0,0-.14A16,16,0,0,1,27,21.25Z"/><path class="cls-1" d="M33.76,21.19c0-.06,0-.13,0-.2s0-.2,0-.32a15.74,15.74,0,0,1-7,0,2.81,2.81,0,0,0,.1.31,1.33,1.33,0,0,0,.1.24A16,16,0,0,0,33.76,21.19Z"/><path class="cls-1" d="M28.09,19.93a1.93,1.93,0,0,1,.47-2.66,5.56,5.56,0,0,1,3.56.14,2.29,2.29,0,0,1,.42,2.37C32.1,20.45,28.56,20.4,28.09,19.93Z"/><path class="cls-2" d="M28.39,19.51a1.66,1.66,0,0,1,.4-2.3,4.75,4.75,0,0,1,3.07.12,2,2,0,0,1,.36,2.05C31.84,20,28.79,19.91,28.39,19.51Z"/><path class="cls-1" d="M28.73,15.93A1.36,1.36,0,0,1,29,14.09a3.69,3.69,0,0,1,2.41.1,2.19,2.19,0,0,1,.38,1.75A6,6,0,0,1,28.73,15.93Z"/><path class="cls-2" d="M28.92,15.65a1.17,1.17,0,0,1,.28-1.59,3.22,3.22,0,0,1,2.08.08,1.87,1.87,0,0,1,.33,1.52A5.22,5.22,0,0,1,28.92,15.65Z"/><rect class="cls-1" x="29.48" y="14.49" width="1.45" height="0.63" rx="0.32"/><path class="cls-1" d="M29.29.41s0-.33.23-.39a11.37,11.37,0,0,1,1.31,0c.1,0,.22.44.22.44h-.44s.05-.29-.15-.32a3.6,3.6,0,0,0-.82,0c-.08,0,0,.31,0,.31Z"/><path class="cls-1" d="M34.49,6.71a1.07,1.07,0,0,1-.64,1c-.34.21-.15.37-.15.37s.71-.4.81-.74.16-.76.16-.76Z"/><path class="cls-1" d="M32.75,1.74c.41-.05,1.18.11,1.37.6a18.92,18.92,0,0,1,.67,3.07c.05.7.2.91.11,1.17s-.6.63-.77.49-.43-4-.52-4.36-.14-.63-.82-.58"/><path class="cls-1" d="M25.66,6.76c.07.6.86.93,1.18,1.16s.16.35.16.35-1.18-.56-1.3-.89-.2-.72-.2-.72Z"/><path class="cls-1" d="M27.47,1.74c-.41-.05-1.18.11-1.38.6a18.92,18.92,0,0,0-.67,3.07c-.05.7-.19.91-.1,1.17s.59.63.76.49.43-4,.52-4.36.15-.63.82-.58"/><path class="cls-2" d="M33.83,8.58c0-.1,0-.22,0-.34.07-2-.35-5.9-1-6.78C31.86,0,28.8.1,27.71,1s-1.49,5-1,7.3l.08.29A15.89,15.89,0,0,0,33.83,8.58Z"/><path class="cls-1" d="M27,9.17v0c.68,1.44,6.24,1.06,6.67.05a.38.38,0,0,0,0-.14A16.21,16.21,0,0,1,27,9.17Z"/><path class="cls-1" d="M33.76,9.1c0-.06,0-.12,0-.2s0-.2,0-.32a15.89,15.89,0,0,1-7,0,2.64,2.64,0,0,0,.1.3,1.86,1.86,0,0,0,.1.25A16.21,16.21,0,0,0,33.76,9.1Z"/><path class="cls-1" d="M28.09,7.85a2,2,0,0,1,.47-2.67,5.5,5.5,0,0,1,3.56.15,2.29,2.29,0,0,1,.42,2.37C32.1,8.36,28.56,8.32,28.09,7.85Z"/><path class="cls-2" d="M28.39,7.42a1.66,1.66,0,0,1,.4-2.3,4.82,4.82,0,0,1,3.07.12,2,2,0,0,1,.36,2.05C31.84,7.86,28.79,7.83,28.39,7.42Z"/><path class="cls-1" d="M28.73,3.84A1.35,1.35,0,0,1,29,2a3.69,3.69,0,0,1,2.41.09,2.19,2.19,0,0,1,.38,1.75A5.93,5.93,0,0,1,28.73,3.84Z"/><path class="cls-2" d="M28.92,3.56A1.17,1.17,0,0,1,29.2,2a3.16,3.16,0,0,1,2.08.09,1.84,1.84,0,0,1,.33,1.51A5.11,5.11,0,0,1,28.92,3.56Z"/><rect class="cls-1" x="29.48" y="2.41" width="1.45" height="0.63" rx="0.32"/><path class="cls-1" d="M41.66,12.49s0-.33.23-.38a9.47,9.47,0,0,1,1.31,0c.1,0,.23.44.23.44H43s0-.29-.16-.32a3.7,3.7,0,0,0-.82,0c-.07,0,0,.32,0,.32Z"/><path class="cls-1" d="M46.87,18.8a1.1,1.1,0,0,1-.65,1c-.34.21-.15.36-.15.36s.71-.4.81-.74.16-.76.16-.76Z"/><path class="cls-1" d="M45.12,13.83c.41-.06,1.18.11,1.37.59a17.33,17.33,0,0,1,.67,3.08c.06.7.2.91.11,1.16s-.6.63-.76.5-.44-4-.52-4.36-.15-.64-.83-.58"/><path class="cls-1" d="M38,18.84c.06.61.85.94,1.17,1.16s.17.36.17.36-1.19-.57-1.31-.89-.2-.73-.2-.73Z"/><path class="cls-1" d="M39.84,13.83a1.41,1.41,0,0,0-1.38.59,18.29,18.29,0,0,0-.66,3.08c-.06.7-.2.91-.11,1.16s.6.63.76.5.43-4,.52-4.36.15-.64.82-.58"/><path class="cls-2" d="M46.2,20.67c0-.11,0-.22,0-.35.07-2-.35-5.89-1-6.77-1-1.48-4.08-1.36-5.18-.43s-1.49,5-.95,7.29a2.46,2.46,0,0,0,.07.29A15.74,15.74,0,0,0,46.2,20.67Z"/><path class="cls-1" d="M39.4,21.25v0c.68,1.43,6.24,1,6.68,0,0,0,0-.09,0-.14A16,16,0,0,1,39.4,21.25Z"/><path class="cls-1" d="M46.13,21.19a1.18,1.18,0,0,0,0-.2c0-.1,0-.2,0-.32a15.74,15.74,0,0,1-7,0,2.81,2.81,0,0,0,.1.31,1.33,1.33,0,0,0,.1.24A16,16,0,0,0,46.13,21.19Z"/><path class="cls-1" d="M40.47,19.93a1.92,1.92,0,0,1,.46-2.66,5.56,5.56,0,0,1,3.56.14,2.29,2.29,0,0,1,.42,2.37C44.47,20.45,40.93,20.4,40.47,19.93Z"/><path class="cls-2" d="M40.76,19.51a1.66,1.66,0,0,1,.4-2.3,4.75,4.75,0,0,1,3.07.12,2,2,0,0,1,.36,2.05C44.21,20,41.16,19.91,40.76,19.51Z"/><path class="cls-1" d="M41.1,15.93a1.36,1.36,0,0,1,.31-1.84,3.69,3.69,0,0,1,2.41.1,2.19,2.19,0,0,1,.38,1.75A6,6,0,0,1,41.1,15.93Z"/><path class="cls-2" d="M41.3,15.65a1.16,1.16,0,0,1,.27-1.59,3.22,3.22,0,0,1,2.08.08A1.91,1.91,0,0,1,44,15.66,5.22,5.22,0,0,1,41.3,15.65Z"/><rect class="cls-1" x="41.85" y="14.49" width="1.45" height="0.63" rx="0.32"/><path class="cls-1" d="M41.66.41s0-.33.23-.39A11.37,11.37,0,0,1,43.2,0c.1,0,.23.44.23.44H43s0-.29-.16-.32a3.62,3.62,0,0,0-.82,0c-.07,0,0,.31,0,.31Z"/><path class="cls-1" d="M46.87,6.71a1.09,1.09,0,0,1-.65,1c-.34.21-.15.37-.15.37s.71-.4.81-.74.16-.76.16-.76Z"/><path class="cls-1" d="M45.12,1.74c.41-.05,1.18.11,1.37.6a17,17,0,0,1,.67,3.07c.06.7.2.91.11,1.17s-.6.63-.76.49-.44-4-.52-4.36-.15-.63-.83-.58"/><path class="cls-1" d="M38,6.76c.06.6.85.93,1.17,1.16s.17.35.17.35-1.19-.56-1.31-.89-.2-.72-.2-.72Z"/><path class="cls-1" d="M39.84,1.74c-.41-.05-1.18.11-1.38.6a18,18,0,0,0-.66,3.07c-.06.7-.2.91-.11,1.17s.6.63.76.49.43-4,.52-4.36.15-.63.82-.58"/><path class="cls-2" d="M46.2,8.58c0-.1,0-.22,0-.34.07-2-.35-5.9-1-6.78C44.23,0,41.18.1,40.08,1s-1.49,5-.95,7.3c0,.1,0,.19.07.29A15.89,15.89,0,0,0,46.2,8.58Z"/><path class="cls-1" d="M39.4,9.17v0c.68,1.44,6.24,1.06,6.68.05a.84.84,0,0,0,0-.14A16.21,16.21,0,0,1,39.4,9.17Z"/><path class="cls-1" d="M46.13,9.1a1,1,0,0,0,0-.2c0-.09,0-.2,0-.32a15.89,15.89,0,0,1-7,0,2.64,2.64,0,0,0,.1.3,1.86,1.86,0,0,0,.1.25A16.21,16.21,0,0,0,46.13,9.1Z"/><path class="cls-1" d="M40.47,7.85a1.93,1.93,0,0,1,.46-2.67,5.5,5.5,0,0,1,3.56.15,2.29,2.29,0,0,1,.42,2.37C44.47,8.36,40.93,8.32,40.47,7.85Z"/><path class="cls-2" d="M40.76,7.42a1.66,1.66,0,0,1,.4-2.3,4.81,4.81,0,0,1,3.07.12,2,2,0,0,1,.36,2.05C44.21,7.86,41.16,7.83,40.76,7.42Z"/><path class="cls-1" d="M41.1,3.84A1.35,1.35,0,0,1,41.41,2a3.69,3.69,0,0,1,2.41.09,2.19,2.19,0,0,1,.38,1.75A5.93,5.93,0,0,1,41.1,3.84Z"/><path class="cls-2" d="M41.3,3.56A1.16,1.16,0,0,1,41.57,2a3.16,3.16,0,0,1,2.08.09A1.89,1.89,0,0,1,44,3.57,5.12,5.12,0,0,1,41.3,3.56Z"/><rect class="cls-1" x="41.85" y="2.41" width="1.45" height="0.63" rx="0.32"/><path class="cls-1" d="M54.38,37.9s0-.33.23-.38a11.34,11.34,0,0,1,1.31,0c.1,0,.23.44.23.44h-.44s0-.29-.16-.32a3.62,3.62,0,0,0-.82,0c-.07,0,0,.31,0,.31Z"/><path class="cls-1" d="M59.59,44.21a1.1,1.1,0,0,1-.65,1c-.33.21-.15.36-.15.36s.71-.39.81-.73a6.85,6.85,0,0,0,.16-.76Z"/><path class="cls-1" d="M57.84,39.24c.41-.06,1.18.11,1.37.6a17,17,0,0,1,.67,3.07c.06.7.2.91.11,1.16s-.6.64-.76.5-.44-4-.52-4.36-.15-.63-.83-.58"/><path class="cls-1" d="M50.76,44.26c.06.6.85.93,1.17,1.15s.17.36.17.36-1.19-.56-1.3-.89a6,6,0,0,1-.2-.72Z"/><path class="cls-1" d="M52.56,39.24c-.41-.06-1.18.11-1.37.6a17,17,0,0,0-.67,3.07c-.06.7-.2.91-.11,1.16s.6.64.76.5.44-4,.52-4.36.15-.63.83-.58"/><path class="cls-2" d="M58.92,46.08c0-.11,0-.22,0-.34.07-2-.34-5.9-1-6.78-1-1.47-4.08-1.36-5.17-.43s-1.5,4.95-1,7.3a2.29,2.29,0,0,0,.07.28A15.74,15.74,0,0,0,58.92,46.08Z"/><path class="cls-1" d="M52.12,46.67v0c.68,1.43,6.24,1.06,6.68.05a1.27,1.27,0,0,0,0-.14A16.21,16.21,0,0,1,52.12,46.67Z"/><path class="cls-1" d="M58.85,46.6a1.18,1.18,0,0,0,0-.2c0-.09,0-.2,0-.32a15.74,15.74,0,0,1-7,0,2.81,2.81,0,0,0,.1.31c0,.09.07.17.1.25A16.21,16.21,0,0,0,58.85,46.6Z"/><path class="cls-1" d="M53.19,45.35a1.93,1.93,0,0,1,.46-2.67,5.56,5.56,0,0,1,3.56.14,2.31,2.31,0,0,1,.42,2.38C57.19,45.86,53.65,45.82,53.19,45.35Z"/><path class="cls-2" d="M53.48,44.92a1.68,1.68,0,0,1,.4-2.3,4.81,4.81,0,0,1,3.07.12,2,2,0,0,1,.37,2C56.94,45.36,53.88,45.33,53.48,44.92Z"/><path class="cls-1" d="M53.82,41.34a1.34,1.34,0,0,1,.32-1.83,3.66,3.66,0,0,1,2.4.09,2.19,2.19,0,0,1,.38,1.75A5.93,5.93,0,0,1,53.82,41.34Z"/><path class="cls-2" d="M54,41.06a1.16,1.16,0,0,1,.27-1.59,3.16,3.16,0,0,1,2.08.09,1.89,1.89,0,0,1,.34,1.51A5.12,5.12,0,0,1,54,41.06Z"/><rect class="cls-1" x="54.58" y="39.91" width="1.45" height="0.63" rx="0.32"/><path class="cls-1" d="M54.38,25.82s0-.33.23-.38a9.46,9.46,0,0,1,1.31,0c.1,0,.23.43.23.43h-.44s0-.29-.16-.32a3.62,3.62,0,0,0-.82,0c-.07,0,0,.31,0,.31Z"/><path class="cls-1" d="M59.59,32.13a1.07,1.07,0,0,1-.65,1c-.33.22-.15.37-.15.37s.71-.4.81-.74a6.39,6.39,0,0,0,.16-.76Z"/><path class="cls-1" d="M57.84,27.16c.41-.06,1.18.1,1.37.59a17.21,17.21,0,0,1,.67,3.07c.06.7.2.91.11,1.17s-.6.63-.76.49-.44-4-.52-4.35-.15-.64-.83-.58"/><path class="cls-1" d="M50.76,32.17c.06.6.85.93,1.17,1.16s.17.35.17.35-1.19-.56-1.3-.89a6,6,0,0,1-.2-.72Z"/><path class="cls-1" d="M52.56,27.16c-.41-.06-1.18.1-1.37.59a17.21,17.21,0,0,0-.67,3.07c-.06.7-.2.91-.11,1.17s.6.63.76.49.44-4,.52-4.35.15-.64.83-.58"/><path class="cls-2" d="M58.92,34c0-.1,0-.22,0-.34.07-2-.34-5.89-1-6.77-1-1.48-4.08-1.36-5.17-.44s-1.5,5-1,7.3a2.46,2.46,0,0,0,.07.29A15.74,15.74,0,0,0,58.92,34Z"/><path class="cls-1" d="M52.12,34.58v0c.68,1.43,6.24,1,6.68,0a1.55,1.55,0,0,0,0-.15A16,16,0,0,1,52.12,34.58Z"/><path class="cls-1" d="M58.85,34.51a.9.9,0,0,0,0-.19l0-.33a15.74,15.74,0,0,1-7,0,2.81,2.81,0,0,0,.1.31l.1.24A16,16,0,0,0,58.85,34.51Z"/><path class="cls-1" d="M53.19,33.26a1.92,1.92,0,0,1,.46-2.66,5.5,5.5,0,0,1,3.56.14,2.29,2.29,0,0,1,.42,2.37C57.19,33.77,53.65,33.73,53.19,33.26Z"/><path class="cls-2" d="M53.48,32.84a1.69,1.69,0,0,1,.4-2.31,4.75,4.75,0,0,1,3.07.13,2,2,0,0,1,.37,2C56.94,33.28,53.88,33.24,53.48,32.84Z"/><path class="cls-1" d="M53.82,29.25a1.34,1.34,0,0,1,.32-1.83,3.66,3.66,0,0,1,2.4.1,2.16,2.16,0,0,1,.38,1.74A5.82,5.82,0,0,1,53.82,29.25Z"/><path class="cls-2" d="M54,29a1.16,1.16,0,0,1,.27-1.59,3.16,3.16,0,0,1,2.08.08A1.9,1.9,0,0,1,56.71,29,5.22,5.22,0,0,1,54,29Z"/><rect class="cls-1" x="54.58" y="27.82" width="1.45" height="0.63" rx="0.32"/><path class="cls-1" d="M54.38,12.49s0-.33.23-.38a9.46,9.46,0,0,1,1.31,0c.1,0,.23.44.23.44h-.44s0-.29-.16-.32a3.7,3.7,0,0,0-.82,0c-.07,0,0,.32,0,.32Z"/><path class="cls-1" d="M59.59,18.8a1.1,1.1,0,0,1-.65,1c-.33.21-.15.36-.15.36s.71-.4.81-.74a6.39,6.39,0,0,0,.16-.76Z"/><path class="cls-1" d="M57.84,13.83c.41-.06,1.18.11,1.37.59a17.33,17.33,0,0,1,.67,3.08c.06.7.2.91.11,1.16s-.6.63-.76.5-.44-4-.52-4.36-.15-.64-.83-.58"/><path class="cls-1" d="M50.76,18.84c.06.61.85.94,1.17,1.16s.17.36.17.36-1.19-.57-1.3-.89a5.89,5.89,0,0,1-.2-.73Z"/><path class="cls-1" d="M52.56,13.83c-.41-.06-1.18.11-1.37.59a17.33,17.33,0,0,0-.67,3.08c-.06.7-.2.91-.11,1.16s.6.63.76.5.44-4,.52-4.36.15-.64.83-.58"/><path class="cls-2" d="M58.92,20.67c0-.11,0-.22,0-.35.07-2-.34-5.89-1-6.77-1-1.48-4.08-1.36-5.17-.43s-1.5,5-1,7.29a2.46,2.46,0,0,0,.07.29A15.74,15.74,0,0,0,58.92,20.67Z"/><path class="cls-1" d="M52.12,21.25v0c.68,1.43,6.24,1,6.68,0,0,0,0-.09,0-.14A16,16,0,0,1,52.12,21.25Z"/><path class="cls-1" d="M58.85,21.19a1.18,1.18,0,0,0,0-.2c0-.1,0-.2,0-.32a15.74,15.74,0,0,1-7,0A2.81,2.81,0,0,0,52,21c0,.09.07.17.1.24A16,16,0,0,0,58.85,21.19Z"/><path class="cls-1" d="M53.19,19.93a1.92,1.92,0,0,1,.46-2.66,5.56,5.56,0,0,1,3.56.14,2.29,2.29,0,0,1,.42,2.37C57.19,20.45,53.65,20.4,53.19,19.93Z"/><path class="cls-2" d="M53.48,19.51a1.67,1.67,0,0,1,.4-2.3,4.75,4.75,0,0,1,3.07.12,2,2,0,0,1,.37,2.05C56.94,20,53.88,19.91,53.48,19.51Z"/><path class="cls-1" d="M53.82,15.93a1.35,1.35,0,0,1,.32-1.84,3.66,3.66,0,0,1,2.4.1,2.19,2.19,0,0,1,.38,1.75A6,6,0,0,1,53.82,15.93Z"/><path class="cls-2" d="M54,15.65a1.16,1.16,0,0,1,.27-1.59,3.22,3.22,0,0,1,2.08.08,1.91,1.91,0,0,1,.34,1.52A5.22,5.22,0,0,1,54,15.65Z"/><rect class="cls-1" x="54.58" y="14.49" width="1.45" height="0.63" rx="0.32"/><path class="cls-1" d="M54.38.41s0-.33.23-.39a11.34,11.34,0,0,1,1.31,0c.1,0,.23.44.23.44h-.44s0-.29-.16-.32a3.62,3.62,0,0,0-.82,0c-.07,0,0,.31,0,.31Z"/><path class="cls-1" d="M59.59,6.71a1.09,1.09,0,0,1-.65,1c-.33.21-.15.37-.15.37s.71-.4.81-.74a6.85,6.85,0,0,0,.16-.76Z"/><path class="cls-1" d="M57.84,1.74c.41-.05,1.18.11,1.37.6a17,17,0,0,1,.67,3.07c.06.7.2.91.11,1.17s-.6.63-.76.49-.44-4-.52-4.36-.15-.63-.83-.58"/><path class="cls-1" d="M50.76,6.76c.06.6.85.93,1.17,1.16s.17.35.17.35-1.19-.56-1.3-.89a6,6,0,0,1-.2-.72Z"/><path class="cls-1" d="M52.56,1.74c-.41-.05-1.18.11-1.37.6a17,17,0,0,0-.67,3.07c-.06.7-.2.91-.11,1.17s.6.63.76.49.44-4,.52-4.36.15-.63.83-.58"/><path class="cls-2" d="M58.92,8.58c0-.1,0-.22,0-.34.07-2-.34-5.9-1-6.78C57,0,53.9.1,52.81,1s-1.5,5-1,7.3c0,.1,0,.19.07.29A15.89,15.89,0,0,0,58.92,8.58Z"/><path class="cls-1" d="M52.12,9.17v0c.68,1.44,6.24,1.06,6.68.05a.84.84,0,0,0,0-.14A16.21,16.21,0,0,1,52.12,9.17Z"/><path class="cls-1" d="M58.85,9.1a1,1,0,0,0,0-.2c0-.09,0-.2,0-.32a15.89,15.89,0,0,1-7,0,2.64,2.64,0,0,0,.1.3c0,.09.07.17.1.25A16.21,16.21,0,0,0,58.85,9.1Z"/><path class="cls-1" d="M53.19,7.85a1.93,1.93,0,0,1,.46-2.67,5.5,5.5,0,0,1,3.56.15,2.29,2.29,0,0,1,.42,2.37C57.19,8.36,53.65,8.32,53.19,7.85Z"/><path class="cls-2" d="M53.48,7.42a1.68,1.68,0,0,1,.4-2.3A4.81,4.81,0,0,1,57,5.24a2,2,0,0,1,.37,2.05C56.94,7.86,53.88,7.83,53.48,7.42Z"/><path class="cls-1" d="M53.82,3.84A1.34,1.34,0,0,1,54.14,2a3.66,3.66,0,0,1,2.4.09,2.19,2.19,0,0,1,.38,1.75A5.93,5.93,0,0,1,53.82,3.84Z"/><path class="cls-2" d="M54,3.56A1.16,1.16,0,0,1,54.29,2a3.16,3.16,0,0,1,2.08.09,1.89,1.89,0,0,1,.34,1.51A5.12,5.12,0,0,1,54,3.56Z"/><rect class="cls-1" x="54.58" y="2.41" width="1.45" height="0.63" rx="0.32"/></g></g></svg>