<svg xmlns="http://www.w3.org/2000/svg" viewBox="0 0 37.27 37.63"><defs><style>.cls-1{fill:#5e17eb;}.cls-2{fill:#fce89f;}</style></defs><g id="Layer_2" data-name="Layer 2"><g id="Layer_1-2" data-name="Layer 1"><path class="cls-1" d="M6.78,21.15s-.06-.55.39-.64a16.17,16.17,0,0,1,2.21,0c.17,0,.39.74.39.74H9s.07-.49-.26-.54a6.28,6.28,0,0,0-1.39,0c-.13.05,0,.53,0,.53Z"/><path class="cls-1" d="M15.59,31.83a1.82,1.82,0,0,1-1.09,1.76c-.57.36-.26.62-.26.62s1.21-.67,1.37-1.25.27-1.28.27-1.28Z"/><path class="cls-1" d="M12.63,23.42c.7-.1,2,.18,2.33,1a30.48,30.48,0,0,1,1.13,5.21c.09,1.19.34,1.54.18,2s-1,1.07-1.29.84-.73-6.75-.88-7.38-.25-1.07-1.39-1"/><path class="cls-1" d="M.64,31.91c.1,1,1.44,1.58,2,2s.28.6.28.6S.89,33.52.7,33,.36,31.74.36,31.74Z"/><path class="cls-1" d="M3.69,23.42c-.7-.1-2,.18-2.33,1A32.52,32.52,0,0,0,.23,29.63c-.09,1.19-.33,1.54-.18,2s1,1.07,1.29.84.73-6.75.88-7.38.25-1.07,1.4-1"/><path class="cls-2" d="M14.47,35c0-.18,0-.37,0-.58.11-3.32-.59-10-1.63-11.47-1.74-2.5-6.91-2.31-8.76-.74C2.42,23.65,1.58,30.6,2.48,34.57c0,.17.08.33.13.49C6,36.05,11.32,35.78,14.47,35Z"/><path class="cls-1" d="M3,36l0,0c1.15,2.43,10.56,1.79,11.3.09a2.23,2.23,0,0,0,.08-.24A27.17,27.17,0,0,1,3,36Z"/><path class="cls-1" d="M14.35,35.88c0-.1,0-.21.06-.34s0-.34.06-.54c-3.15.78-8.51,1-11.86.06.05.18.11.36.17.52A3.89,3.89,0,0,0,3,36,27.17,27.17,0,0,0,14.35,35.88Z"/><path class="cls-1" d="M4.75,33.76c-1.1-1.11-.54-4,.79-4.51s4.82-.58,6,.24c.89.6,1.34,3.08.72,4C11.53,34.63,5.54,34.55,4.75,33.76Z"/><path class="cls-2" d="M5.25,33c-1-1-.47-3.44.68-3.9s4.16-.5,5.2.21a3.36,3.36,0,0,1,.61,3.47C11.1,33.79,5.93,33.72,5.25,33Z"/><path class="cls-1" d="M5.83,27a2.27,2.27,0,0,1,.53-3.1,6.18,6.18,0,0,1,4.07.16,3.7,3.7,0,0,1,.65,3C10.74,27.37,6.36,27.52,5.83,27Z"/><path class="cls-2" d="M6.16,26.5a2,2,0,0,1,.46-2.69,5.34,5.34,0,0,1,3.53.14,3.17,3.17,0,0,1,.56,2.57C10.42,26.85,6.62,27,6.16,26.5Z"/><rect class="cls-1" x="7.1" y="24.54" width="2.45" height="1.07" rx="0.54"/><path class="cls-1" d="M6.78.69S6.72.13,7.17,0A16.17,16.17,0,0,1,9.38,0c.17,0,.39.74.39.74H9S9.09.29,8.76.24a6.28,6.28,0,0,0-1.39,0c-.13,0,0,.53,0,.53Z"/><path class="cls-1" d="M15.59,11.37a1.81,1.81,0,0,1-1.09,1.75c-.57.37-.26.62-.26.62s1.21-.67,1.37-1.25.27-1.28.27-1.28Z"/><path class="cls-1" d="M12.63,3c.7-.1,2,.19,2.33,1a30.36,30.36,0,0,1,1.13,5.2c.09,1.19.34,1.55.18,2s-1,1.06-1.29.84-.73-6.76-.88-7.38-.25-1.08-1.39-1"/><path class="cls-1" d="M.64,11.44c.1,1,1.44,1.58,2,2s.28.6.28.6S.89,13.06.7,12.5.36,11.27.36,11.27Z"/><path class="cls-1" d="M3.69,3c-.7-.1-2,.19-2.33,1A32.38,32.38,0,0,0,.23,9.16c-.09,1.19-.33,1.55-.18,2s1,1.06,1.29.84.73-6.76.88-7.38.25-1.08,1.4-1"/><path class="cls-2" d="M14.47,14.53c0-.18,0-.37,0-.58.11-3.32-.59-10-1.63-11.47C11.13,0,6,.17,4.11,1.74,2.42,3.18,1.58,10.13,2.48,14.1c0,.17.08.33.13.49C6,15.58,11.32,15.31,14.47,14.53Z"/><path class="cls-1" d="M3,15.53l0,0c1.15,2.43,10.56,1.79,11.3.09a2.5,2.5,0,0,0,.08-.25A27.33,27.33,0,0,1,3,15.53Z"/><path class="cls-1" d="M14.35,15.41q0-.15.06-.33c0-.16,0-.35.06-.55-3.15.78-8.51,1.05-11.86.06.05.18.11.36.17.52a4.08,4.08,0,0,0,.17.42A27.33,27.33,0,0,0,14.35,15.41Z"/><path class="cls-1" d="M4.75,13.29c-1.1-1.1-.54-4,.79-4.51s4.82-.58,6,.24c.89.6,1.34,3.08.72,4C11.53,14.16,5.54,14.09,4.75,13.29Z"/><path class="cls-2" d="M5.25,12.57c-1-1-.47-3.44.68-3.9s4.16-.49,5.2.21a3.36,3.36,0,0,1,.61,3.47C11.1,13.32,5.93,13.25,5.25,12.57Z"/><path class="cls-1" d="M5.83,6.5a2.27,2.27,0,0,1,.53-3.1,6.24,6.24,0,0,1,4.07.16,3.7,3.7,0,0,1,.65,3C10.74,6.91,6.36,7.05,5.83,6.5Z"/><path class="cls-2" d="M6.16,6a2,2,0,0,1,.46-2.69,5.41,5.41,0,0,1,3.53.14,3.18,3.18,0,0,1,.56,2.57C10.42,6.38,6.62,6.51,6.16,6Z"/><rect class="cls-1" x="7.1" y="4.08" width="2.45" height="1.07" rx="0.54"/><path class="cls-1" d="M27.73,21.15s-.05-.55.39-.64a16.16,16.16,0,0,1,2.21,0c.17,0,.39.74.39.74H30s.08-.49-.26-.54a6.28,6.28,0,0,0-1.39,0c-.13.05,0,.53,0,.53Z"/><path class="cls-1" d="M36.54,31.83a1.8,1.8,0,0,1-1.09,1.76c-.57.36-.25.62-.25.62s1.2-.67,1.36-1.25a10.78,10.78,0,0,0,.27-1.28Z"/><path class="cls-1" d="M33.59,23.42c.69-.1,2,.18,2.32,1A30.48,30.48,0,0,1,37,29.63c.1,1.19.34,1.54.19,2s-1,1.07-1.3.84-.73-6.75-.88-7.38-.25-1.07-1.39-1"/><path class="cls-1" d="M21.59,31.91c.1,1,1.44,1.58,2,2s.28.6.28.6-2-.95-2.21-1.5-.34-1.23-.34-1.23Z"/><path class="cls-1" d="M24.64,23.42c-.69-.1-2,.18-2.32,1a31.43,31.43,0,0,0-1.14,5.21c-.09,1.19-.33,1.54-.18,2s1,1.07,1.29.84.74-6.75.88-7.38.26-1.07,1.4-1"/><path class="cls-2" d="M35.42,35c0-.18,0-.37,0-.58.11-3.32-.59-10-1.62-11.47-1.75-2.5-6.92-2.31-8.77-.74-1.69,1.44-2.53,8.39-1.62,12.36,0,.17.08.33.12.49C26.91,36.05,32.28,35.78,35.42,35Z"/><path class="cls-1" d="M23.9,36l0,0c1.15,2.43,10.57,1.79,11.3.09a1.12,1.12,0,0,0,.08-.24A27.16,27.16,0,0,1,23.9,36Z"/><path class="cls-1" d="M35.3,35.88c0-.1,0-.21.06-.34s0-.34.06-.54c-3.14.78-8.51,1-11.86.06.05.18.11.36.17.52a3.89,3.89,0,0,0,.17.41A27.16,27.16,0,0,0,35.3,35.88Z"/><path class="cls-1" d="M25.7,33.76c-1.1-1.11-.53-4,.79-4.51s4.83-.58,6,.24c.88.6,1.33,3.08.71,4C32.49,34.63,26.5,34.55,25.7,33.76Z"/><path class="cls-2" d="M26.2,33c-.95-1-.47-3.44.68-3.9s4.16-.5,5.2.21a3.38,3.38,0,0,1,.62,3.47C32.05,33.79,26.88,33.72,26.2,33Z"/><path class="cls-1" d="M26.78,27a2.27,2.27,0,0,1,.53-3.1,6.18,6.18,0,0,1,4.07.16A3.66,3.66,0,0,1,32,27C31.69,27.37,27.32,27.52,26.78,27Z"/><path class="cls-2" d="M27.11,26.5a2,2,0,0,1,.46-2.69A5.34,5.34,0,0,1,31.1,24a3.17,3.17,0,0,1,.56,2.57C31.37,26.85,27.57,27,27.11,26.5Z"/><rect class="cls-1" x="28.06" y="24.54" width="2.45" height="1.07" rx="0.54"/><path class="cls-1" d="M27.73.69s-.05-.56.39-.65a16.16,16.16,0,0,1,2.21,0c.17,0,.39.74.39.74H30s.08-.49-.26-.54a6.28,6.28,0,0,0-1.39,0c-.13,0,0,.53,0,.53Z"/><path class="cls-1" d="M36.54,11.37a1.8,1.8,0,0,1-1.09,1.75c-.57.37-.25.62-.25.62s1.2-.67,1.36-1.25a10.78,10.78,0,0,0,.27-1.28Z"/><path class="cls-1" d="M33.59,3c.69-.1,2,.19,2.32,1A30.36,30.36,0,0,1,37,9.16c.1,1.19.34,1.55.19,2s-1,1.06-1.3.84-.73-6.76-.88-7.38-.25-1.08-1.39-1"/><path class="cls-1" d="M21.59,11.44c.1,1,1.44,1.58,2,2s.28.6.28.6-2-.95-2.21-1.51-.34-1.23-.34-1.23Z"/><path class="cls-1" d="M24.64,3c-.69-.1-2,.19-2.32,1a31.31,31.31,0,0,0-1.14,5.2c-.09,1.19-.33,1.55-.18,2s1,1.06,1.29.84.74-6.76.88-7.38.26-1.08,1.4-1"/><path class="cls-2" d="M35.42,14.53c0-.18,0-.37,0-.58.11-3.32-.59-10-1.62-11.47C32.08,0,26.91.17,25.06,1.74c-1.69,1.44-2.53,8.39-1.62,12.36,0,.17.08.33.12.49C26.91,15.58,32.28,15.31,35.42,14.53Z"/><path class="cls-1" d="M23.9,15.53l0,0c1.15,2.43,10.57,1.79,11.3.09a1.23,1.23,0,0,0,.08-.25A27.33,27.33,0,0,1,23.9,15.53Z"/><path class="cls-1" d="M35.3,15.41q0-.15.06-.33c0-.16,0-.35.06-.55-3.14.78-8.51,1.05-11.86.06.05.18.11.36.17.52a4.08,4.08,0,0,0,.17.42A27.33,27.33,0,0,0,35.3,15.41Z"/><path class="cls-1" d="M25.7,13.29c-1.1-1.1-.53-4,.79-4.51s4.83-.58,6,.24c.88.6,1.33,3.08.71,4C32.49,14.16,26.5,14.09,25.7,13.29Z"/><path class="cls-2" d="M26.2,12.57c-.95-1-.47-3.44.68-3.9s4.16-.49,5.2.21a3.38,3.38,0,0,1,.62,3.47C32.05,13.32,26.88,13.25,26.2,12.57Z"/><path class="cls-1" d="M26.78,6.5a2.27,2.27,0,0,1,.53-3.1,6.24,6.24,0,0,1,4.07.16,3.66,3.66,0,0,1,.65,3C31.69,6.91,27.32,7.05,26.78,6.5Z"/><path class="cls-2" d="M27.11,6a2,2,0,0,1,.46-2.69,5.41,5.41,0,0,1,3.53.14,3.18,3.18,0,0,1,.56,2.57C31.37,6.38,27.57,6.51,27.11,6Z"/><rect class="cls-1" x="28.06" y="4.08" width="2.45" height="1.07" rx="0.54"/></g></g></svg>