<svg xmlns="http://www.w3.org/2000/svg" viewBox="0 0 123.66 60.96"><defs><style>.cls-1{fill:#5e17eb;}.cls-2{fill:#fce89f;}</style></defs><g id="Layer_2" data-name="Layer 2"><g id="Layer_1-2" data-name="Layer 1"><path class="cls-1" d="M4,37.9s0-.33.23-.38a11.35,11.35,0,0,1,1.31,0c.1,0,.23.44.23.44H5.33s0-.29-.16-.32a3.62,3.62,0,0,0-.82,0c-.07,0,0,.31,0,.31Z"/><path class="cls-1" d="M9.21,44.21a1.1,1.1,0,0,1-.65,1c-.33.21-.15.36-.15.36s.71-.39.81-.73.16-.76.16-.76Z"/><path class="cls-1" d="M7.46,39.24c.41-.06,1.18.11,1.37.6a17,17,0,0,1,.67,3.07c.06.7.2.91.11,1.16s-.6.64-.76.5-.44-4-.52-4.36-.15-.63-.83-.58"/><path class="cls-1" d="M.38,44.26c.06.6.85.93,1.17,1.15s.17.36.17.36S.53,45.21.41,44.88s-.2-.72-.2-.72Z"/><path class="cls-1" d="M2.18,39.24a1.39,1.39,0,0,0-1.38.6,18,18,0,0,0-.66,3.07c-.06.7-.2.91-.11,1.16s.6.64.76.5.43-4,.52-4.36.15-.63.83-.58"/><path class="cls-2" d="M8.54,46.08c0-.11,0-.22,0-.34.07-2-.35-5.9-1-6.78-1-1.47-4.08-1.36-5.17-.43s-1.5,4.95-1,7.3a2.29,2.29,0,0,0,.07.28A15.74,15.74,0,0,0,8.54,46.08Z"/><path class="cls-1" d="M1.74,46.67v0c.68,1.43,6.24,1.06,6.68.05a1.27,1.27,0,0,0,0-.14A16.21,16.21,0,0,1,1.74,46.67Z"/><path class="cls-1" d="M8.47,46.6a1.18,1.18,0,0,0,0-.2c0-.09,0-.2,0-.32a15.74,15.74,0,0,1-7,0,2.81,2.81,0,0,0,.1.31c0,.09.07.17.1.25A16.21,16.21,0,0,0,8.47,46.6Z"/><path class="cls-1" d="M2.81,45.35a1.93,1.93,0,0,1,.46-2.67,5.56,5.56,0,0,1,3.56.14,2.31,2.31,0,0,1,.42,2.38C6.81,45.86,3.27,45.82,2.81,45.35Z"/><path class="cls-2" d="M3.1,44.92a1.67,1.67,0,0,1,.4-2.3,4.81,4.81,0,0,1,3.07.12,2,2,0,0,1,.37,2C6.55,45.36,3.5,45.33,3.1,44.92Z"/><path class="cls-1" d="M3.44,41.34a1.34,1.34,0,0,1,.32-1.83,3.66,3.66,0,0,1,2.4.09,2.19,2.19,0,0,1,.38,1.75A5.93,5.93,0,0,1,3.44,41.34Z"/><path class="cls-2" d="M3.64,41.06a1.16,1.16,0,0,1,.27-1.59A3.16,3.16,0,0,1,6,39.56a1.89,1.89,0,0,1,.34,1.51A5.12,5.12,0,0,1,3.64,41.06Z"/><rect class="cls-1" x="4.19" y="39.91" width="1.45" height="0.63" rx="0.32"/><path class="cls-1" d="M4,25.82s0-.33.23-.38a9.47,9.47,0,0,1,1.31,0c.1,0,.23.43.23.43H5.33s0-.29-.16-.32a3.62,3.62,0,0,0-.82,0c-.07,0,0,.31,0,.31Z"/><path class="cls-1" d="M9.21,32.13a1.07,1.07,0,0,1-.65,1c-.33.22-.15.37-.15.37s.71-.4.81-.74.16-.76.16-.76Z"/><path class="cls-1" d="M7.46,27.16c.41-.06,1.18.1,1.37.59a17.21,17.21,0,0,1,.67,3.07c.06.7.2.91.11,1.17s-.6.63-.76.49-.44-4-.52-4.35-.15-.64-.83-.58"/><path class="cls-1" d="M.38,32.17c.06.6.85.93,1.17,1.16s.17.35.17.35S.53,33.12.41,32.79s-.2-.72-.2-.72Z"/><path class="cls-1" d="M2.18,27.16c-.41-.06-1.18.1-1.38.59a18.16,18.16,0,0,0-.66,3.07c-.06.7-.2.91-.11,1.17s.6.63.76.49.43-4,.52-4.35.15-.64.83-.58"/><path class="cls-2" d="M8.54,34c0-.1,0-.22,0-.34.07-2-.35-5.89-1-6.77-1-1.48-4.08-1.36-5.17-.44s-1.5,5-1,7.3a2.46,2.46,0,0,0,.07.29A15.74,15.74,0,0,0,8.54,34Z"/><path class="cls-1" d="M1.74,34.58v0c.68,1.43,6.24,1,6.68,0a1.55,1.55,0,0,0,0-.15A16,16,0,0,1,1.74,34.58Z"/><path class="cls-1" d="M8.47,34.51a.9.9,0,0,0,0-.19l0-.33a15.74,15.74,0,0,1-7,0,2.81,2.81,0,0,0,.1.31l.1.24A16,16,0,0,0,8.47,34.51Z"/><path class="cls-1" d="M2.81,33.26a1.92,1.92,0,0,1,.46-2.66,5.5,5.5,0,0,1,3.56.14,2.29,2.29,0,0,1,.42,2.37C6.81,33.77,3.27,33.73,2.81,33.26Z"/><path class="cls-2" d="M3.1,32.84a1.68,1.68,0,0,1,.4-2.31,4.75,4.75,0,0,1,3.07.13,2,2,0,0,1,.37,2C6.55,33.28,3.5,33.24,3.1,32.84Z"/><path class="cls-1" d="M3.44,29.25a1.34,1.34,0,0,1,.32-1.83,3.66,3.66,0,0,1,2.4.1,2.16,2.16,0,0,1,.38,1.74A5.82,5.82,0,0,1,3.44,29.25Z"/><path class="cls-2" d="M3.64,29a1.16,1.16,0,0,1,.27-1.59A3.16,3.16,0,0,1,6,27.47,1.9,1.9,0,0,1,6.33,29,5.22,5.22,0,0,1,3.64,29Z"/><rect class="cls-1" x="4.19" y="27.82" width="1.45" height="0.63" rx="0.32"/><path class="cls-1" d="M16.38,37.9s0-.33.22-.38a11.34,11.34,0,0,1,1.31,0c.1,0,.23.44.23.44H17.7s0-.29-.16-.32a3.62,3.62,0,0,0-.82,0c-.07,0,0,.31,0,.31Z"/><path class="cls-1" d="M21.58,44.21a1.1,1.1,0,0,1-.65,1c-.33.21-.15.36-.15.36s.72-.39.81-.73a6.85,6.85,0,0,0,.16-.76Z"/><path class="cls-1" d="M19.83,39.24c.41-.06,1.18.11,1.37.6a17,17,0,0,1,.67,3.07c.06.7.2.91.11,1.16s-.6.64-.76.5-.43-4-.52-4.36-.15-.63-.83-.58"/><path class="cls-1" d="M12.75,44.26c.06.6.85.93,1.17,1.15s.17.36.17.36-1.19-.56-1.3-.89a6,6,0,0,1-.2-.72Z"/><path class="cls-1" d="M14.55,39.24c-.41-.06-1.18.11-1.37.6a17,17,0,0,0-.67,3.07c-.06.7-.2.91-.11,1.16s.6.64.76.5.44-4,.52-4.36.15-.63.83-.58"/><path class="cls-2" d="M20.91,46.08c0-.11,0-.22,0-.34.07-2-.34-5.9-1-6.78-1-1.47-4.08-1.36-5.17-.43s-1.5,4.95-1,7.3c0,.1.05.19.07.28A15.74,15.74,0,0,0,20.91,46.08Z"/><path class="cls-1" d="M14.11,46.67v0c.68,1.43,6.24,1.06,6.68.05a1.27,1.27,0,0,0,0-.14A16.21,16.21,0,0,1,14.11,46.67Z"/><path class="cls-1" d="M20.84,46.6a1.18,1.18,0,0,0,0-.2,2.69,2.69,0,0,0,0-.32,15.74,15.74,0,0,1-7,0c0,.11.07.21.1.31s.07.17.1.25A16.21,16.21,0,0,0,20.84,46.6Z"/><path class="cls-1" d="M15.18,45.35a1.94,1.94,0,0,1,.46-2.67,5.56,5.56,0,0,1,3.56.14,2.31,2.31,0,0,1,.42,2.38C19.18,45.86,15.65,45.82,15.18,45.35Z"/><path class="cls-2" d="M15.47,44.92a1.68,1.68,0,0,1,.4-2.3,4.81,4.81,0,0,1,3.07.12,2,2,0,0,1,.37,2C18.93,45.36,15.87,45.33,15.47,44.92Z"/><path class="cls-1" d="M15.81,41.34a1.34,1.34,0,0,1,.32-1.83,3.66,3.66,0,0,1,2.4.09,2.19,2.19,0,0,1,.38,1.75A5.93,5.93,0,0,1,15.81,41.34Z"/><path class="cls-2" d="M16,41.06a1.17,1.17,0,0,1,.27-1.59,3.16,3.16,0,0,1,2.08.09,1.89,1.89,0,0,1,.34,1.51A5.12,5.12,0,0,1,16,41.06Z"/><rect class="cls-1" x="16.57" y="39.91" width="1.45" height="0.63" rx="0.32"/><path class="cls-1" d="M16.38,25.82s0-.33.22-.38a9.46,9.46,0,0,1,1.31,0c.1,0,.23.43.23.43H17.7s0-.29-.16-.32a3.62,3.62,0,0,0-.82,0c-.07,0,0,.31,0,.31Z"/><path class="cls-1" d="M21.58,32.13a1.07,1.07,0,0,1-.65,1c-.33.22-.15.37-.15.37s.72-.4.81-.74a6.39,6.39,0,0,0,.16-.76Z"/><path class="cls-1" d="M19.83,27.16c.41-.06,1.18.1,1.37.59a17.21,17.21,0,0,1,.67,3.07c.06.7.2.91.11,1.17s-.6.63-.76.49-.43-4-.52-4.35-.15-.64-.83-.58"/><path class="cls-1" d="M12.75,32.17c.06.6.85.93,1.17,1.16s.17.35.17.35-1.19-.56-1.3-.89a6,6,0,0,1-.2-.72Z"/><path class="cls-1" d="M14.55,27.16c-.41-.06-1.18.1-1.37.59a17.21,17.21,0,0,0-.67,3.07c-.06.7-.2.91-.11,1.17s.6.63.76.49.44-4,.52-4.35.15-.64.83-.58"/><path class="cls-2" d="M20.91,34c0-.1,0-.22,0-.34.07-2-.34-5.89-1-6.77-1-1.48-4.08-1.36-5.17-.44s-1.5,5-1,7.3c0,.1.05.2.07.29A15.74,15.74,0,0,0,20.91,34Z"/><path class="cls-1" d="M14.11,34.58v0c.68,1.43,6.24,1,6.68,0a1.55,1.55,0,0,0,0-.15A16,16,0,0,1,14.11,34.58Z"/><path class="cls-1" d="M20.84,34.51a.9.9,0,0,0,0-.19,3.11,3.11,0,0,0,0-.33,15.74,15.74,0,0,1-7,0c0,.11.07.21.1.31l.1.24A16,16,0,0,0,20.84,34.51Z"/><path class="cls-1" d="M15.18,33.26a1.93,1.93,0,0,1,.46-2.66,5.5,5.5,0,0,1,3.56.14,2.29,2.29,0,0,1,.42,2.37C19.18,33.77,15.65,33.73,15.18,33.26Z"/><path class="cls-2" d="M15.47,32.84a1.69,1.69,0,0,1,.4-2.31,4.75,4.75,0,0,1,3.07.13,2,2,0,0,1,.37,2C18.93,33.28,15.87,33.24,15.47,32.84Z"/><path class="cls-1" d="M15.81,29.25a1.34,1.34,0,0,1,.32-1.83,3.66,3.66,0,0,1,2.4.1,2.16,2.16,0,0,1,.38,1.74A5.82,5.82,0,0,1,15.81,29.25Z"/><path class="cls-2" d="M16,29a1.17,1.17,0,0,1,.27-1.59,3.16,3.16,0,0,1,2.08.08A1.9,1.9,0,0,1,18.7,29,5.22,5.22,0,0,1,16,29Z"/><rect class="cls-1" x="16.57" y="27.82" width="1.45" height="0.63" rx="0.32"/><path class="cls-1" d="M4,12.49s0-.33.23-.38a9.47,9.47,0,0,1,1.31,0c.1,0,.23.44.23.44H5.33s0-.29-.16-.32a3.7,3.7,0,0,0-.82,0c-.07,0,0,.32,0,.32Z"/><path class="cls-1" d="M9.21,18.8a1.1,1.1,0,0,1-.65,1c-.33.21-.15.36-.15.36s.71-.4.81-.74.16-.76.16-.76Z"/><path class="cls-1" d="M7.46,13.83c.41-.06,1.18.11,1.37.59A17.33,17.33,0,0,1,9.5,17.5c.06.7.2.91.11,1.16s-.6.63-.76.5-.44-4-.52-4.36-.15-.64-.83-.58"/><path class="cls-1" d="M.38,18.84c.06.61.85.94,1.17,1.16s.17.36.17.36S.53,19.79.41,19.47s-.2-.73-.2-.73Z"/><path class="cls-1" d="M2.18,13.83a1.41,1.41,0,0,0-1.38.59A18.29,18.29,0,0,0,.14,17.5c-.06.7-.2.91-.11,1.16s.6.63.76.5.43-4,.52-4.36.15-.64.83-.58"/><path class="cls-2" d="M8.54,20.67c0-.11,0-.22,0-.35.07-2-.35-5.89-1-6.77-1-1.48-4.08-1.36-5.17-.43s-1.5,5-1,7.29a2.46,2.46,0,0,0,.07.29A15.74,15.74,0,0,0,8.54,20.67Z"/><path class="cls-1" d="M1.74,21.25v0c.68,1.43,6.24,1,6.68,0,0,0,0-.09,0-.14A16,16,0,0,1,1.74,21.25Z"/><path class="cls-1" d="M8.47,21.19a1.18,1.18,0,0,0,0-.2c0-.1,0-.2,0-.32a15.74,15.74,0,0,1-7,0,2.81,2.81,0,0,0,.1.31c0,.09.07.17.1.24A16,16,0,0,0,8.47,21.19Z"/><path class="cls-1" d="M2.81,19.93a1.92,1.92,0,0,1,.46-2.66,5.56,5.56,0,0,1,3.56.14,2.29,2.29,0,0,1,.42,2.37C6.81,20.45,3.27,20.4,2.81,19.93Z"/><path class="cls-2" d="M3.1,19.51a1.66,1.66,0,0,1,.4-2.3,4.75,4.75,0,0,1,3.07.12,2,2,0,0,1,.37,2.05C6.55,20,3.5,19.91,3.1,19.51Z"/><path class="cls-1" d="M3.44,15.93a1.35,1.35,0,0,1,.32-1.84,3.66,3.66,0,0,1,2.4.1,2.19,2.19,0,0,1,.38,1.75A6,6,0,0,1,3.44,15.93Z"/><path class="cls-2" d="M3.64,15.65a1.16,1.16,0,0,1,.27-1.59A3.22,3.22,0,0,1,6,14.14a1.91,1.91,0,0,1,.34,1.52A5.22,5.22,0,0,1,3.64,15.65Z"/><rect class="cls-1" x="4.19" y="14.49" width="1.45" height="0.63" rx="0.32"/><path class="cls-1" d="M4,.41S4,.08,4.23,0A11.35,11.35,0,0,1,5.54,0c.1,0,.23.44.23.44H5.33s0-.29-.16-.32a3.62,3.62,0,0,0-.82,0c-.07,0,0,.31,0,.31Z"/><path class="cls-1" d="M9.21,6.71a1.09,1.09,0,0,1-.65,1c-.33.21-.15.37-.15.37s.71-.4.81-.74.16-.76.16-.76Z"/><path class="cls-1" d="M7.46,1.74c.41-.05,1.18.11,1.37.6A17,17,0,0,1,9.5,5.41c.06.7.2.91.11,1.17s-.6.63-.76.49-.44-4-.52-4.36-.15-.63-.83-.58"/><path class="cls-1" d="M.38,6.76c.06.6.85.93,1.17,1.16s.17.35.17.35S.53,7.71.41,7.38s-.2-.72-.2-.72Z"/><path class="cls-1" d="M2.18,1.74C1.77,1.69,1,1.85.8,2.34A18,18,0,0,0,.14,5.41c-.06.7-.2.91-.11,1.17s.6.63.76.49.43-4,.52-4.36.15-.63.83-.58"/><path class="cls-2" d="M8.54,8.58c0-.1,0-.22,0-.34.07-2-.35-5.9-1-6.78C6.57,0,3.52.1,2.43,1s-1.5,5-1,7.3c0,.1,0,.19.07.29A15.89,15.89,0,0,0,8.54,8.58Z"/><path class="cls-1" d="M1.74,9.17v0c.68,1.44,6.24,1.06,6.68.05a.84.84,0,0,0,0-.14A16.21,16.21,0,0,1,1.74,9.17Z"/><path class="cls-1" d="M8.47,9.1a1,1,0,0,0,0-.2c0-.09,0-.2,0-.32a15.89,15.89,0,0,1-7,0,2.64,2.64,0,0,0,.1.3c0,.09.07.17.1.25A16.21,16.21,0,0,0,8.47,9.1Z"/><path class="cls-1" d="M2.81,7.85a1.93,1.93,0,0,1,.46-2.67,5.5,5.5,0,0,1,3.56.15A2.29,2.29,0,0,1,7.25,7.7C6.81,8.36,3.27,8.32,2.81,7.85Z"/><path class="cls-2" d="M3.1,7.42a1.67,1.67,0,0,1,.4-2.3,4.81,4.81,0,0,1,3.07.12,2,2,0,0,1,.37,2.05C6.55,7.86,3.5,7.83,3.1,7.42Z"/><path class="cls-1" d="M3.44,3.84A1.34,1.34,0,0,1,3.76,2a3.66,3.66,0,0,1,2.4.09,2.19,2.19,0,0,1,.38,1.75A5.93,5.93,0,0,1,3.44,3.84Z"/><path class="cls-2" d="M3.64,3.56A1.16,1.16,0,0,1,3.91,2,3.16,3.16,0,0,1,6,2.06a1.89,1.89,0,0,1,.34,1.51A5.12,5.12,0,0,1,3.64,3.56Z"/><rect class="cls-1" x="4.19" y="2.41" width="1.45" height="0.63" rx="0.32"/><path class="cls-1" d="M16.38,12.49s0-.33.22-.38a9.46,9.46,0,0,1,1.31,0c.1,0,.23.44.23.44H17.7s0-.29-.16-.32a3.7,3.7,0,0,0-.82,0c-.07,0,0,.32,0,.32Z"/><path class="cls-1" d="M21.58,18.8a1.1,1.1,0,0,1-.65,1c-.33.21-.15.36-.15.36s.72-.4.81-.74a6.39,6.39,0,0,0,.16-.76Z"/><path class="cls-1" d="M19.83,13.83c.41-.06,1.18.11,1.37.59a17.33,17.33,0,0,1,.67,3.08c.06.7.2.91.11,1.16s-.6.63-.76.5-.43-4-.52-4.36-.15-.64-.83-.58"/><path class="cls-1" d="M12.75,18.84c.06.61.85.94,1.17,1.16s.17.36.17.36-1.19-.57-1.3-.89a5.89,5.89,0,0,1-.2-.73Z"/><path class="cls-1" d="M14.55,13.83c-.41-.06-1.18.11-1.37.59a17.33,17.33,0,0,0-.67,3.08c-.06.7-.2.91-.11,1.16s.6.63.76.5.44-4,.52-4.36.15-.64.83-.58"/><path class="cls-2" d="M20.91,20.67c0-.11,0-.22,0-.35.07-2-.34-5.89-1-6.77-1-1.48-4.08-1.36-5.17-.43s-1.5,5-1,7.29c0,.1.05.2.07.29A15.74,15.74,0,0,0,20.91,20.67Z"/><path class="cls-1" d="M14.11,21.25v0c.68,1.43,6.24,1,6.68,0,0,0,0-.09,0-.14A16,16,0,0,1,14.11,21.25Z"/><path class="cls-1" d="M20.84,21.19a1.18,1.18,0,0,0,0-.2,2.91,2.91,0,0,0,0-.32,15.74,15.74,0,0,1-7,0c0,.11.07.21.1.31s.07.17.1.24A16,16,0,0,0,20.84,21.19Z"/><path class="cls-1" d="M15.18,19.93a1.93,1.93,0,0,1,.46-2.66,5.56,5.56,0,0,1,3.56.14,2.29,2.29,0,0,1,.42,2.37C19.18,20.45,15.65,20.4,15.18,19.93Z"/><path class="cls-2" d="M15.47,19.51a1.67,1.67,0,0,1,.4-2.3,4.75,4.75,0,0,1,3.07.12,2,2,0,0,1,.37,2.05C18.93,20,15.87,19.91,15.47,19.51Z"/><path class="cls-1" d="M15.81,15.93a1.35,1.35,0,0,1,.32-1.84,3.66,3.66,0,0,1,2.4.1,2.19,2.19,0,0,1,.38,1.75A6,6,0,0,1,15.81,15.93Z"/><path class="cls-2" d="M16,15.65a1.17,1.17,0,0,1,.27-1.59,3.22,3.22,0,0,1,2.08.08,1.91,1.91,0,0,1,.34,1.52A5.22,5.22,0,0,1,16,15.65Z"/><rect class="cls-1" x="16.57" y="14.49" width="1.45" height="0.63" rx="0.32"/><path class="cls-1" d="M16.38.41s0-.33.22-.39a11.34,11.34,0,0,1,1.31,0c.1,0,.23.44.23.44H17.7s0-.29-.16-.32a3.62,3.62,0,0,0-.82,0c-.07,0,0,.31,0,.31Z"/><path class="cls-1" d="M21.58,6.71a1.09,1.09,0,0,1-.65,1c-.33.21-.15.37-.15.37s.72-.4.81-.74a6.85,6.85,0,0,0,.16-.76Z"/><path class="cls-1" d="M19.83,1.74c.41-.05,1.18.11,1.37.6a17,17,0,0,1,.67,3.07c.06.7.2.91.11,1.17s-.6.63-.76.49-.43-4-.52-4.36-.15-.63-.83-.58"/><path class="cls-1" d="M12.75,6.76c.06.6.85.93,1.17,1.16s.17.35.17.35-1.19-.56-1.3-.89a6,6,0,0,1-.2-.72Z"/><path class="cls-1" d="M14.55,1.74c-.41-.05-1.18.11-1.37.6a17,17,0,0,0-.67,3.07c-.06.7-.2.91-.11,1.17s.6.63.76.49.44-4,.52-4.36.15-.63.83-.58"/><path class="cls-2" d="M20.91,8.58c0-.1,0-.22,0-.34.07-2-.34-5.9-1-6.78C18.94,0,15.89.1,14.8,1s-1.5,5-1,7.3c0,.1.05.19.07.29A15.89,15.89,0,0,0,20.91,8.58Z"/><path class="cls-1" d="M14.11,9.17v0c.68,1.44,6.24,1.06,6.68.05a.84.84,0,0,0,0-.14A16.21,16.21,0,0,1,14.11,9.17Z"/><path class="cls-1" d="M20.84,9.1a1,1,0,0,0,0-.2,2.69,2.69,0,0,0,0-.32,15.89,15.89,0,0,1-7,0c0,.1.07.21.1.3s.07.17.1.25A16.21,16.21,0,0,0,20.84,9.1Z"/><path class="cls-1" d="M15.18,7.85a1.94,1.94,0,0,1,.46-2.67,5.5,5.5,0,0,1,3.56.15,2.29,2.29,0,0,1,.42,2.37C19.18,8.36,15.65,8.32,15.18,7.85Z"/><path class="cls-2" d="M15.47,7.42a1.68,1.68,0,0,1,.4-2.3,4.81,4.81,0,0,1,3.07.12,2,2,0,0,1,.37,2.05C18.93,7.86,15.87,7.83,15.47,7.42Z"/><path class="cls-1" d="M15.81,3.84A1.34,1.34,0,0,1,16.13,2a3.66,3.66,0,0,1,2.4.09,2.19,2.19,0,0,1,.38,1.75A5.93,5.93,0,0,1,15.81,3.84Z"/><path class="cls-2" d="M16,3.56A1.17,1.17,0,0,1,16.28,2a3.16,3.16,0,0,1,2.08.09,1.89,1.89,0,0,1,.34,1.51A5.12,5.12,0,0,1,16,3.56Z"/><rect class="cls-1" x="16.57" y="2.41" width="1.45" height="0.63" rx="0.32"/><path class="cls-1" d="M29.29,37.9s0-.33.23-.38a11.37,11.37,0,0,1,1.31,0c.1,0,.22.44.22.44h-.44s.05-.29-.15-.32a3.6,3.6,0,0,0-.82,0c-.08,0,0,.31,0,.31Z"/><path class="cls-1" d="M34.49,44.21a1.08,1.08,0,0,1-.64,1c-.34.21-.15.36-.15.36s.71-.39.81-.73.16-.76.16-.76Z"/><path class="cls-1" d="M32.75,39.24c.41-.06,1.18.11,1.37.6a18.92,18.92,0,0,1,.67,3.07c.05.7.2.91.11,1.16s-.6.64-.77.5-.43-4-.52-4.36-.14-.63-.82-.58"/><path class="cls-1" d="M25.66,44.26c.07.6.86.93,1.18,1.15s.16.36.16.36-1.18-.56-1.3-.89-.2-.72-.2-.72Z"/><path class="cls-1" d="M27.47,39.24a1.39,1.39,0,0,0-1.38.6,18.92,18.92,0,0,0-.67,3.07c-.05.7-.19.91-.1,1.16s.59.64.76.5.43-4,.52-4.36.15-.63.82-.58"/><path class="cls-2" d="M33.83,46.08c0-.11,0-.22,0-.34.07-2-.35-5.9-1-6.78-1-1.47-4.09-1.36-5.18-.43s-1.49,4.95-1,7.3c0,.1.05.19.08.28A15.74,15.74,0,0,0,33.83,46.08Z"/><path class="cls-1" d="M27,46.67v0c.68,1.43,6.24,1.06,6.67.05a.46.46,0,0,0,0-.14A16.21,16.21,0,0,1,27,46.67Z"/><path class="cls-1" d="M33.76,46.6c0-.06,0-.13,0-.2s0-.2,0-.32a15.74,15.74,0,0,1-7,0,2.81,2.81,0,0,0,.1.31,1.86,1.86,0,0,0,.1.25A16.21,16.21,0,0,0,33.76,46.6Z"/><path class="cls-1" d="M28.09,45.35a1.94,1.94,0,0,1,.47-2.67,5.56,5.56,0,0,1,3.56.14,2.31,2.31,0,0,1,.42,2.38C32.1,45.86,28.56,45.82,28.09,45.35Z"/><path class="cls-2" d="M28.39,44.92a1.66,1.66,0,0,1,.4-2.3,4.82,4.82,0,0,1,3.07.12,2,2,0,0,1,.36,2C31.84,45.36,28.79,45.33,28.39,44.92Z"/><path class="cls-1" d="M28.73,41.34A1.35,1.35,0,0,1,29,39.51a3.69,3.69,0,0,1,2.41.09,2.19,2.19,0,0,1,.38,1.75A5.93,5.93,0,0,1,28.73,41.34Z"/><path class="cls-2" d="M28.92,41.06a1.17,1.17,0,0,1,.28-1.59,3.16,3.16,0,0,1,2.08.09,1.84,1.84,0,0,1,.33,1.51A5.11,5.11,0,0,1,28.92,41.06Z"/><rect class="cls-1" x="29.48" y="39.91" width="1.45" height="0.63" rx="0.32"/><path class="cls-1" d="M29.29,25.82s0-.33.23-.38a9.47,9.47,0,0,1,1.31,0c.1,0,.22.43.22.43h-.44s.05-.29-.15-.32a3.6,3.6,0,0,0-.82,0c-.08,0,0,.31,0,.31Z"/><path class="cls-1" d="M34.49,32.13a1.05,1.05,0,0,1-.64,1c-.34.22-.15.37-.15.37s.71-.4.81-.74.16-.76.16-.76Z"/><path class="cls-1" d="M32.75,27.16c.41-.06,1.18.1,1.37.59a19.16,19.16,0,0,1,.67,3.07c.05.7.2.91.11,1.17s-.6.63-.77.49-.43-4-.52-4.35-.14-.64-.82-.58"/><path class="cls-1" d="M25.66,32.17c.07.6.86.93,1.18,1.16s.16.35.16.35-1.18-.56-1.3-.89-.2-.72-.2-.72Z"/><path class="cls-1" d="M27.47,27.16c-.41-.06-1.18.1-1.38.59a19.16,19.16,0,0,0-.67,3.07c-.05.7-.19.91-.1,1.17s.59.63.76.49.43-4,.52-4.35.15-.64.82-.58"/><path class="cls-2" d="M33.83,34c0-.1,0-.22,0-.34.07-2-.35-5.89-1-6.77-1-1.48-4.09-1.36-5.18-.44s-1.49,5-1,7.3c0,.1.05.2.08.29A15.74,15.74,0,0,0,33.83,34Z"/><path class="cls-1" d="M27,34.58v0c.68,1.43,6.24,1,6.67,0a.53.53,0,0,0,0-.15A16,16,0,0,1,27,34.58Z"/><path class="cls-1" d="M33.76,34.51s0-.12,0-.19,0-.21,0-.33a15.74,15.74,0,0,1-7,0,2.81,2.81,0,0,0,.1.31,2.44,2.44,0,0,0,.1.24A16,16,0,0,0,33.76,34.51Z"/><path class="cls-1" d="M28.09,33.26a1.93,1.93,0,0,1,.47-2.66,5.5,5.5,0,0,1,3.56.14,2.29,2.29,0,0,1,.42,2.37C32.1,33.77,28.56,33.73,28.09,33.26Z"/><path class="cls-2" d="M28.39,32.84a1.67,1.67,0,0,1,.4-2.31,4.75,4.75,0,0,1,3.07.13,2,2,0,0,1,.36,2C31.84,33.28,28.79,33.24,28.39,32.84Z"/><path class="cls-1" d="M28.73,29.25A1.35,1.35,0,0,1,29,27.42a3.69,3.69,0,0,1,2.41.1,2.16,2.16,0,0,1,.38,1.74A5.82,5.82,0,0,1,28.73,29.25Z"/><path class="cls-2" d="M28.92,29a1.17,1.17,0,0,1,.28-1.59,3.16,3.16,0,0,1,2.08.08A1.86,1.86,0,0,1,31.61,29,5.22,5.22,0,0,1,28.92,29Z"/><rect class="cls-1" x="29.48" y="27.82" width="1.45" height="0.63" rx="0.32"/><path class="cls-1" d="M41.66,37.9s0-.33.23-.38a11.37,11.37,0,0,1,1.31,0c.1,0,.23.44.23.44H43s0-.29-.16-.32a3.62,3.62,0,0,0-.82,0c-.07,0,0,.31,0,.31Z"/><path class="cls-1" d="M46.87,44.21a1.1,1.1,0,0,1-.65,1c-.34.21-.15.36-.15.36s.71-.39.81-.73.16-.76.16-.76Z"/><path class="cls-1" d="M45.12,39.24c.41-.06,1.18.11,1.37.6a17,17,0,0,1,.67,3.07c.06.7.2.91.11,1.16s-.6.64-.76.5-.44-4-.52-4.36-.15-.63-.83-.58"/><path class="cls-1" d="M38,44.26c.06.6.85.93,1.17,1.15s.17.36.17.36-1.19-.56-1.31-.89-.2-.72-.2-.72Z"/><path class="cls-1" d="M39.84,39.24a1.39,1.39,0,0,0-1.38.6,18,18,0,0,0-.66,3.07c-.06.7-.2.91-.11,1.16s.6.64.76.5.43-4,.52-4.36.15-.63.82-.58"/><path class="cls-2" d="M46.2,46.08c0-.11,0-.22,0-.34.07-2-.35-5.9-1-6.78-1-1.47-4.08-1.36-5.18-.43s-1.49,4.95-.95,7.3a2.29,2.29,0,0,0,.07.28A15.74,15.74,0,0,0,46.2,46.08Z"/><path class="cls-1" d="M39.4,46.67v0c.68,1.43,6.24,1.06,6.68.05a1.27,1.27,0,0,0,0-.14A16.21,16.21,0,0,1,39.4,46.67Z"/><path class="cls-1" d="M46.13,46.6a1.18,1.18,0,0,0,0-.2c0-.09,0-.2,0-.32a15.74,15.74,0,0,1-7,0,2.81,2.81,0,0,0,.1.31,1.86,1.86,0,0,0,.1.25A16.21,16.21,0,0,0,46.13,46.6Z"/><path class="cls-1" d="M40.47,45.35a1.93,1.93,0,0,1,.46-2.67,5.56,5.56,0,0,1,3.56.14,2.31,2.31,0,0,1,.42,2.38C44.47,45.86,40.93,45.82,40.47,45.35Z"/><path class="cls-2" d="M40.76,44.92a1.66,1.66,0,0,1,.4-2.3,4.81,4.81,0,0,1,3.07.12,2,2,0,0,1,.36,2C44.21,45.36,41.16,45.33,40.76,44.92Z"/><path class="cls-1" d="M41.1,41.34a1.35,1.35,0,0,1,.31-1.83,3.69,3.69,0,0,1,2.41.09,2.19,2.19,0,0,1,.38,1.75A5.93,5.93,0,0,1,41.1,41.34Z"/><path class="cls-2" d="M41.3,41.06a1.16,1.16,0,0,1,.27-1.59,3.16,3.16,0,0,1,2.08.09A1.89,1.89,0,0,1,44,41.07,5.12,5.12,0,0,1,41.3,41.06Z"/><rect class="cls-1" x="41.85" y="39.91" width="1.45" height="0.63" rx="0.32"/><path class="cls-1" d="M41.66,25.82s0-.33.23-.38a9.47,9.47,0,0,1,1.31,0c.1,0,.23.43.23.43H43s0-.29-.16-.32a3.62,3.62,0,0,0-.82,0c-.07,0,0,.31,0,.31Z"/><path class="cls-1" d="M46.87,32.13a1.07,1.07,0,0,1-.65,1c-.34.22-.15.37-.15.37s.71-.4.81-.74S47,32,47,32Z"/><path class="cls-1" d="M45.12,27.16c.41-.06,1.18.1,1.37.59a17.21,17.21,0,0,1,.67,3.07c.06.7.2.91.11,1.17s-.6.63-.76.49-.44-4-.52-4.35-.15-.64-.83-.58"/><path class="cls-1" d="M38,32.17c.06.6.85.93,1.17,1.16s.17.35.17.35-1.19-.56-1.31-.89-.2-.72-.2-.72Z"/><path class="cls-1" d="M39.84,27.16c-.41-.06-1.18.1-1.38.59a18.16,18.16,0,0,0-.66,3.07c-.06.7-.2.91-.11,1.17s.6.63.76.49.43-4,.52-4.35.15-.64.82-.58"/><path class="cls-2" d="M46.2,34c0-.1,0-.22,0-.34.07-2-.35-5.89-1-6.77-1-1.48-4.08-1.36-5.18-.44s-1.49,5-.95,7.3a2.46,2.46,0,0,0,.07.29A15.74,15.74,0,0,0,46.2,34Z"/><path class="cls-1" d="M39.4,34.58v0c.68,1.43,6.24,1,6.68,0a1.55,1.55,0,0,0,0-.15A16,16,0,0,1,39.4,34.58Z"/><path class="cls-1" d="M46.13,34.51a.9.9,0,0,0,0-.19l0-.33a15.74,15.74,0,0,1-7,0,2.81,2.81,0,0,0,.1.31,2.44,2.44,0,0,0,.1.24A16,16,0,0,0,46.13,34.51Z"/><path class="cls-1" d="M40.47,33.26a1.92,1.92,0,0,1,.46-2.66,5.5,5.5,0,0,1,3.56.14,2.29,2.29,0,0,1,.42,2.37C44.47,33.77,40.93,33.73,40.47,33.26Z"/><path class="cls-2" d="M40.76,32.84a1.67,1.67,0,0,1,.4-2.31,4.75,4.75,0,0,1,3.07.13,2,2,0,0,1,.36,2C44.21,33.28,41.16,33.24,40.76,32.84Z"/><path class="cls-1" d="M41.1,29.25a1.35,1.35,0,0,1,.31-1.83,3.69,3.69,0,0,1,2.41.1,2.16,2.16,0,0,1,.38,1.74A5.82,5.82,0,0,1,41.1,29.25Z"/><path class="cls-2" d="M41.3,29a1.16,1.16,0,0,1,.27-1.59,3.16,3.16,0,0,1,2.08.08A1.9,1.9,0,0,1,44,29,5.22,5.22,0,0,1,41.3,29Z"/><rect class="cls-1" x="41.85" y="27.82" width="1.45" height="0.63" rx="0.32"/><path class="cls-1" d="M29.29,12.49s0-.33.23-.38a9.47,9.47,0,0,1,1.31,0c.1,0,.22.44.22.44h-.44s.05-.29-.15-.32a3.69,3.69,0,0,0-.82,0c-.08,0,0,.32,0,.32Z"/><path class="cls-1" d="M34.49,18.8a1.08,1.08,0,0,1-.64,1c-.34.21-.15.36-.15.36s.71-.4.81-.74.16-.76.16-.76Z"/><path class="cls-1" d="M32.75,13.83c.41-.06,1.18.11,1.37.59a19.29,19.29,0,0,1,.67,3.08c.05.7.2.91.11,1.16s-.6.63-.77.5-.43-4-.52-4.36-.14-.64-.82-.58"/><path class="cls-1" d="M25.66,18.84c.07.61.86.94,1.18,1.16s.16.36.16.36-1.18-.57-1.3-.89-.2-.73-.2-.73Z"/><path class="cls-1" d="M27.47,13.83a1.41,1.41,0,0,0-1.38.59,19.29,19.29,0,0,0-.67,3.08c-.05.7-.19.91-.1,1.16s.59.63.76.5.43-4,.52-4.36.15-.64.82-.58"/><path class="cls-2" d="M33.83,20.67c0-.11,0-.22,0-.35.07-2-.35-5.89-1-6.77-1-1.48-4.09-1.36-5.18-.43s-1.49,5-1,7.29c0,.1.05.2.08.29A15.74,15.74,0,0,0,33.83,20.67Z"/><path class="cls-1" d="M27,21.25v0c.68,1.43,6.24,1,6.67,0a.58.58,0,0,0,0-.14A16,16,0,0,1,27,21.25Z"/><path class="cls-1" d="M33.76,21.19c0-.06,0-.13,0-.2s0-.2,0-.32a15.74,15.74,0,0,1-7,0,2.81,2.81,0,0,0,.1.31,1.33,1.33,0,0,0,.1.24A16,16,0,0,0,33.76,21.19Z"/><path class="cls-1" d="M28.09,19.93a1.93,1.93,0,0,1,.47-2.66,5.56,5.56,0,0,1,3.56.14,2.29,2.29,0,0,1,.42,2.37C32.1,20.45,28.56,20.4,28.09,19.93Z"/><path class="cls-2" d="M28.39,19.51a1.66,1.66,0,0,1,.4-2.3,4.75,4.75,0,0,1,3.07.12,2,2,0,0,1,.36,2.05C31.84,20,28.79,19.91,28.39,19.51Z"/><path class="cls-1" d="M28.73,15.93A1.36,1.36,0,0,1,29,14.09a3.69,3.69,0,0,1,2.41.1,2.19,2.19,0,0,1,.38,1.75A6,6,0,0,1,28.73,15.93Z"/><path class="cls-2" d="M28.92,15.65a1.17,1.17,0,0,1,.28-1.59,3.22,3.22,0,0,1,2.08.08,1.87,1.87,0,0,1,.33,1.52A5.22,5.22,0,0,1,28.92,15.65Z"/><rect class="cls-1" x="29.48" y="14.49" width="1.45" height="0.63" rx="0.32"/><path class="cls-1" d="M29.29.41s0-.33.23-.39a11.37,11.37,0,0,1,1.31,0c.1,0,.22.44.22.44h-.44s.05-.29-.15-.32a3.6,3.6,0,0,0-.82,0c-.08,0,0,.31,0,.31Z"/><path class="cls-1" d="M34.49,6.71a1.07,1.07,0,0,1-.64,1c-.34.21-.15.37-.15.37s.71-.4.81-.74.16-.76.16-.76Z"/><path class="cls-1" d="M32.75,1.74c.41-.05,1.18.11,1.37.6a18.92,18.92,0,0,1,.67,3.07c.05.7.2.91.11,1.17s-.6.63-.77.49-.43-4-.52-4.36-.14-.63-.82-.58"/><path class="cls-1" d="M25.66,6.76c.07.6.86.93,1.18,1.16s.16.35.16.35-1.18-.56-1.3-.89-.2-.72-.2-.72Z"/><path class="cls-1" d="M27.47,1.74c-.41-.05-1.18.11-1.38.6a18.92,18.92,0,0,0-.67,3.07c-.05.7-.19.91-.1,1.17s.59.63.76.49.43-4,.52-4.36.15-.63.82-.58"/><path class="cls-2" d="M33.83,8.58c0-.1,0-.22,0-.34.07-2-.35-5.9-1-6.78C31.86,0,28.8.1,27.71,1s-1.49,5-1,7.3l.08.29A15.89,15.89,0,0,0,33.83,8.58Z"/><path class="cls-1" d="M27,9.17v0c.68,1.44,6.24,1.06,6.67.05a.38.38,0,0,0,0-.14A16.21,16.21,0,0,1,27,9.17Z"/><path class="cls-1" d="M33.76,9.1c0-.06,0-.12,0-.2s0-.2,0-.32a15.89,15.89,0,0,1-7,0,2.64,2.64,0,0,0,.1.3,1.86,1.86,0,0,0,.1.25A16.21,16.21,0,0,0,33.76,9.1Z"/><path class="cls-1" d="M28.09,7.85a2,2,0,0,1,.47-2.67,5.5,5.5,0,0,1,3.56.15,2.29,2.29,0,0,1,.42,2.37C32.1,8.36,28.56,8.32,28.09,7.85Z"/><path class="cls-2" d="M28.39,7.42a1.66,1.66,0,0,1,.4-2.3,4.82,4.82,0,0,1,3.07.12,2,2,0,0,1,.36,2.05C31.84,7.86,28.79,7.83,28.39,7.42Z"/><path class="cls-1" d="M28.73,3.84A1.35,1.35,0,0,1,29,2a3.69,3.69,0,0,1,2.41.09,2.19,2.19,0,0,1,.38,1.75A5.93,5.93,0,0,1,28.73,3.84Z"/><path class="cls-2" d="M28.92,3.56A1.17,1.17,0,0,1,29.2,2a3.16,3.16,0,0,1,2.08.09,1.84,1.84,0,0,1,.33,1.51A5.11,5.11,0,0,1,28.92,3.56Z"/><rect class="cls-1" x="29.48" y="2.41" width="1.45" height="0.63" rx="0.32"/><path class="cls-1" d="M41.66,12.49s0-.33.23-.38a9.47,9.47,0,0,1,1.31,0c.1,0,.23.44.23.44H43s0-.29-.16-.32a3.7,3.7,0,0,0-.82,0c-.07,0,0,.32,0,.32Z"/><path class="cls-1" d="M46.87,18.8a1.1,1.1,0,0,1-.65,1c-.34.21-.15.36-.15.36s.71-.4.81-.74.16-.76.16-.76Z"/><path class="cls-1" d="M45.12,13.83c.41-.06,1.18.11,1.37.59a17.33,17.33,0,0,1,.67,3.08c.06.7.2.91.11,1.16s-.6.63-.76.5-.44-4-.52-4.36-.15-.64-.83-.58"/><path class="cls-1" d="M38,18.84c.06.61.85.94,1.17,1.16s.17.36.17.36-1.19-.57-1.31-.89-.2-.73-.2-.73Z"/><path class="cls-1" d="M39.84,13.83a1.41,1.41,0,0,0-1.38.59,18.29,18.29,0,0,0-.66,3.08c-.06.7-.2.91-.11,1.16s.6.63.76.5.43-4,.52-4.36.15-.64.82-.58"/><path class="cls-2" d="M46.2,20.67c0-.11,0-.22,0-.35.07-2-.35-5.89-1-6.77-1-1.48-4.08-1.36-5.18-.43s-1.49,5-.95,7.29a2.46,2.46,0,0,0,.07.29A15.74,15.74,0,0,0,46.2,20.67Z"/><path class="cls-1" d="M39.4,21.25v0c.68,1.43,6.24,1,6.68,0,0,0,0-.09,0-.14A16,16,0,0,1,39.4,21.25Z"/><path class="cls-1" d="M46.13,21.19a1.18,1.18,0,0,0,0-.2c0-.1,0-.2,0-.32a15.74,15.74,0,0,1-7,0,2.81,2.81,0,0,0,.1.31,1.33,1.33,0,0,0,.1.24A16,16,0,0,0,46.13,21.19Z"/><path class="cls-1" d="M40.47,19.93a1.92,1.92,0,0,1,.46-2.66,5.56,5.56,0,0,1,3.56.14,2.29,2.29,0,0,1,.42,2.37C44.47,20.45,40.93,20.4,40.47,19.93Z"/><path class="cls-2" d="M40.76,19.51a1.66,1.66,0,0,1,.4-2.3,4.75,4.75,0,0,1,3.07.12,2,2,0,0,1,.36,2.05C44.21,20,41.16,19.91,40.76,19.51Z"/><path class="cls-1" d="M41.1,15.93a1.36,1.36,0,0,1,.31-1.84,3.69,3.69,0,0,1,2.41.1,2.19,2.19,0,0,1,.38,1.75A6,6,0,0,1,41.1,15.93Z"/><path class="cls-2" d="M41.3,15.65a1.16,1.16,0,0,1,.27-1.59,3.22,3.22,0,0,1,2.08.08A1.91,1.91,0,0,1,44,15.66,5.22,5.22,0,0,1,41.3,15.65Z"/><rect class="cls-1" x="41.85" y="14.49" width="1.45" height="0.63" rx="0.32"/><path class="cls-1" d="M41.66.41s0-.33.23-.39A11.37,11.37,0,0,1,43.2,0c.1,0,.23.44.23.44H43s0-.29-.16-.32a3.62,3.62,0,0,0-.82,0c-.07,0,0,.31,0,.31Z"/><path class="cls-1" d="M46.87,6.71a1.09,1.09,0,0,1-.65,1c-.34.21-.15.37-.15.37s.71-.4.81-.74.16-.76.16-.76Z"/><path class="cls-1" d="M45.12,1.74c.41-.05,1.18.11,1.37.6a17,17,0,0,1,.67,3.07c.06.7.2.91.11,1.17s-.6.63-.76.49-.44-4-.52-4.36-.15-.63-.83-.58"/><path class="cls-1" d="M38,6.76c.06.6.85.93,1.17,1.16s.17.35.17.35-1.19-.56-1.31-.89-.2-.72-.2-.72Z"/><path class="cls-1" d="M39.84,1.74c-.41-.05-1.18.11-1.38.6a18,18,0,0,0-.66,3.07c-.06.7-.2.91-.11,1.17s.6.63.76.49.43-4,.52-4.36.15-.63.82-.58"/><path class="cls-2" d="M46.2,8.58c0-.1,0-.22,0-.34.07-2-.35-5.9-1-6.78C44.23,0,41.18.1,40.08,1s-1.49,5-.95,7.3c0,.1,0,.19.07.29A15.89,15.89,0,0,0,46.2,8.58Z"/><path class="cls-1" d="M39.4,9.17v0c.68,1.44,6.24,1.06,6.68.05a.84.84,0,0,0,0-.14A16.21,16.21,0,0,1,39.4,9.17Z"/><path class="cls-1" d="M46.13,9.1a1,1,0,0,0,0-.2c0-.09,0-.2,0-.32a15.89,15.89,0,0,1-7,0,2.64,2.64,0,0,0,.1.3,1.86,1.86,0,0,0,.1.25A16.21,16.21,0,0,0,46.13,9.1Z"/><path class="cls-1" d="M40.47,7.85a1.93,1.93,0,0,1,.46-2.67,5.5,5.5,0,0,1,3.56.15,2.29,2.29,0,0,1,.42,2.37C44.47,8.36,40.93,8.32,40.47,7.85Z"/><path class="cls-2" d="M40.76,7.42a1.66,1.66,0,0,1,.4-2.3,4.81,4.81,0,0,1,3.07.12,2,2,0,0,1,.36,2.05C44.21,7.86,41.16,7.83,40.76,7.42Z"/><path class="cls-1" d="M41.1,3.84A1.35,1.35,0,0,1,41.41,2a3.69,3.69,0,0,1,2.41.09,2.19,2.19,0,0,1,.38,1.75A5.93,5.93,0,0,1,41.1,3.84Z"/><path class="cls-2" d="M41.3,3.56A1.16,1.16,0,0,1,41.57,2a3.16,3.16,0,0,1,2.08.09A1.89,1.89,0,0,1,44,3.57,5.12,5.12,0,0,1,41.3,3.56Z"/><rect class="cls-1" x="41.85" y="2.41" width="1.45" height="0.63" rx="0.32"/><path class="cls-1" d="M54.38,37.9s0-.33.23-.38a11.34,11.34,0,0,1,1.31,0c.1,0,.23.44.23.44h-.44s0-.29-.16-.32a3.62,3.62,0,0,0-.82,0c-.07,0,0,.31,0,.31Z"/><path class="cls-1" d="M59.59,44.21a1.1,1.1,0,0,1-.65,1c-.33.21-.15.36-.15.36s.71-.39.81-.73a6.85,6.85,0,0,0,.16-.76Z"/><path class="cls-1" d="M57.84,39.24c.41-.06,1.18.11,1.37.6a17,17,0,0,1,.67,3.07c.06.7.2.91.11,1.16s-.6.64-.76.5-.44-4-.52-4.36-.15-.63-.83-.58"/><path class="cls-1" d="M50.76,44.26c.06.6.85.93,1.17,1.15s.17.36.17.36-1.19-.56-1.3-.89a6,6,0,0,1-.2-.72Z"/><path class="cls-1" d="M52.56,39.24c-.41-.06-1.18.11-1.37.6a17,17,0,0,0-.67,3.07c-.06.7-.2.91-.11,1.16s.6.64.76.5.44-4,.52-4.36.15-.63.83-.58"/><path class="cls-2" d="M58.92,46.08c0-.11,0-.22,0-.34.07-2-.34-5.9-1-6.78-1-1.47-4.08-1.36-5.17-.43s-1.5,4.95-1,7.3a2.29,2.29,0,0,0,.07.28A15.74,15.74,0,0,0,58.92,46.08Z"/><path class="cls-1" d="M52.12,46.67v0c.68,1.43,6.24,1.06,6.68.05a1.27,1.27,0,0,0,0-.14A16.21,16.21,0,0,1,52.12,46.67Z"/><path class="cls-1" d="M58.85,46.6a1.18,1.18,0,0,0,0-.2c0-.09,0-.2,0-.32a15.74,15.74,0,0,1-7,0,2.81,2.81,0,0,0,.1.31c0,.09.07.17.1.25A16.21,16.21,0,0,0,58.85,46.6Z"/><path class="cls-1" d="M53.19,45.35a1.93,1.93,0,0,1,.46-2.67,5.56,5.56,0,0,1,3.56.14,2.31,2.31,0,0,1,.42,2.38C57.19,45.86,53.65,45.82,53.19,45.35Z"/><path class="cls-2" d="M53.48,44.92a1.68,1.68,0,0,1,.4-2.3,4.81,4.81,0,0,1,3.07.12,2,2,0,0,1,.37,2C56.94,45.36,53.88,45.33,53.48,44.92Z"/><path class="cls-1" d="M53.82,41.34a1.34,1.34,0,0,1,.32-1.83,3.66,3.66,0,0,1,2.4.09,2.19,2.19,0,0,1,.38,1.75A5.93,5.93,0,0,1,53.82,41.34Z"/><path class="cls-2" d="M54,41.06a1.16,1.16,0,0,1,.27-1.59,3.16,3.16,0,0,1,2.08.09,1.89,1.89,0,0,1,.34,1.51A5.12,5.12,0,0,1,54,41.06Z"/><rect class="cls-1" x="54.58" y="39.91" width="1.45" height="0.63" rx="0.32"/><path class="cls-1" d="M54.38,25.82s0-.33.23-.38a9.46,9.46,0,0,1,1.31,0c.1,0,.23.43.23.43h-.44s0-.29-.16-.32a3.62,3.62,0,0,0-.82,0c-.07,0,0,.31,0,.31Z"/><path class="cls-1" d="M59.59,32.13a1.07,1.07,0,0,1-.65,1c-.33.22-.15.37-.15.37s.71-.4.81-.74a6.39,6.39,0,0,0,.16-.76Z"/><path class="cls-1" d="M57.84,27.16c.41-.06,1.18.1,1.37.59a17.21,17.21,0,0,1,.67,3.07c.06.7.2.91.11,1.17s-.6.63-.76.49-.44-4-.52-4.35-.15-.64-.83-.58"/><path class="cls-1" d="M50.76,32.17c.06.6.85.93,1.17,1.16s.17.35.17.35-1.19-.56-1.3-.89a6,6,0,0,1-.2-.72Z"/><path class="cls-1" d="M52.56,27.16c-.41-.06-1.18.1-1.37.59a17.21,17.21,0,0,0-.67,3.07c-.06.7-.2.91-.11,1.17s.6.63.76.49.44-4,.52-4.35.15-.64.83-.58"/><path class="cls-2" d="M58.92,34c0-.1,0-.22,0-.34.07-2-.34-5.89-1-6.77-1-1.48-4.08-1.36-5.17-.44s-1.5,5-1,7.3a2.46,2.46,0,0,0,.07.29A15.74,15.74,0,0,0,58.92,34Z"/><path class="cls-1" d="M52.12,34.58v0c.68,1.43,6.24,1,6.68,0a1.55,1.55,0,0,0,0-.15A16,16,0,0,1,52.12,34.58Z"/><path class="cls-1" d="M58.85,34.51a.9.9,0,0,0,0-.19l0-.33a15.74,15.74,0,0,1-7,0,2.81,2.81,0,0,0,.1.31l.1.24A16,16,0,0,0,58.85,34.51Z"/><path class="cls-1" d="M53.19,33.26a1.92,1.92,0,0,1,.46-2.66,5.5,5.5,0,0,1,3.56.14,2.29,2.29,0,0,1,.42,2.37C57.19,33.77,53.65,33.73,53.19,33.26Z"/><path class="cls-2" d="M53.48,32.84a1.69,1.69,0,0,1,.4-2.31,4.75,4.75,0,0,1,3.07.13,2,2,0,0,1,.37,2C56.94,33.28,53.88,33.24,53.48,32.84Z"/><path class="cls-1" d="M53.82,29.25a1.34,1.34,0,0,1,.32-1.83,3.66,3.66,0,0,1,2.4.1,2.16,2.16,0,0,1,.38,1.74A5.82,5.82,0,0,1,53.82,29.25Z"/><path class="cls-2" d="M54,29a1.16,1.16,0,0,1,.27-1.59,3.16,3.16,0,0,1,2.08.08A1.9,1.9,0,0,1,56.71,29,5.22,5.22,0,0,1,54,29Z"/><rect class="cls-1" x="54.58" y="27.82" width="1.45" height="0.63" rx="0.32"/><path class="cls-1" d="M54.38,12.49s0-.33.23-.38a9.46,9.46,0,0,1,1.31,0c.1,0,.23.44.23.44h-.44s0-.29-.16-.32a3.7,3.7,0,0,0-.82,0c-.07,0,0,.32,0,.32Z"/><path class="cls-1" d="M59.59,18.8a1.1,1.1,0,0,1-.65,1c-.33.21-.15.36-.15.36s.71-.4.81-.74a6.39,6.39,0,0,0,.16-.76Z"/><path class="cls-1" d="M57.84,13.83c.41-.06,1.18.11,1.37.59a17.33,17.33,0,0,1,.67,3.08c.06.7.2.91.11,1.16s-.6.63-.76.5-.44-4-.52-4.36-.15-.64-.83-.58"/><path class="cls-1" d="M50.76,18.84c.06.61.85.94,1.17,1.16s.17.36.17.36-1.19-.57-1.3-.89a5.89,5.89,0,0,1-.2-.73Z"/><path class="cls-1" d="M52.56,13.83c-.41-.06-1.18.11-1.37.59a17.33,17.33,0,0,0-.67,3.08c-.06.7-.2.91-.11,1.16s.6.63.76.5.44-4,.52-4.36.15-.64.83-.58"/><path class="cls-2" d="M58.92,20.67c0-.11,0-.22,0-.35.07-2-.34-5.89-1-6.77-1-1.48-4.08-1.36-5.17-.43s-1.5,5-1,7.29a2.46,2.46,0,0,0,.07.29A15.74,15.74,0,0,0,58.92,20.67Z"/><path class="cls-1" d="M52.12,21.25v0c.68,1.43,6.24,1,6.68,0,0,0,0-.09,0-.14A16,16,0,0,1,52.12,21.25Z"/><path class="cls-1" d="M58.85,21.19a1.18,1.18,0,0,0,0-.2c0-.1,0-.2,0-.32a15.74,15.74,0,0,1-7,0A2.81,2.81,0,0,0,52,21c0,.09.07.17.1.24A16,16,0,0,0,58.85,21.19Z"/><path class="cls-1" d="M53.19,19.93a1.92,1.92,0,0,1,.46-2.66,5.56,5.56,0,0,1,3.56.14,2.29,2.29,0,0,1,.42,2.37C57.19,20.45,53.65,20.4,53.19,19.93Z"/><path class="cls-2" d="M53.48,19.51a1.67,1.67,0,0,1,.4-2.3,4.75,4.75,0,0,1,3.07.12,2,2,0,0,1,.37,2.05C56.94,20,53.88,19.91,53.48,19.51Z"/><path class="cls-1" d="M53.82,15.93a1.35,1.35,0,0,1,.32-1.84,3.66,3.66,0,0,1,2.4.1,2.19,2.19,0,0,1,.38,1.75A6,6,0,0,1,53.82,15.93Z"/><path class="cls-2" d="M54,15.65a1.16,1.16,0,0,1,.27-1.59,3.22,3.22,0,0,1,2.08.08,1.91,1.91,0,0,1,.34,1.52A5.22,5.22,0,0,1,54,15.65Z"/><rect class="cls-1" x="54.58" y="14.49" width="1.45" height="0.63" rx="0.32"/><path class="cls-1" d="M54.38.41s0-.33.23-.39a11.34,11.34,0,0,1,1.31,0c.1,0,.23.44.23.44h-.44s0-.29-.16-.32a3.62,3.62,0,0,0-.82,0c-.07,0,0,.31,0,.31Z"/><path class="cls-1" d="M59.59,6.71a1.09,1.09,0,0,1-.65,1c-.33.21-.15.37-.15.37s.71-.4.81-.74a6.85,6.85,0,0,0,.16-.76Z"/><path class="cls-1" d="M57.84,1.74c.41-.05,1.18.11,1.37.6a17,17,0,0,1,.67,3.07c.06.7.2.91.11,1.17s-.6.63-.76.49-.44-4-.52-4.36-.15-.63-.83-.58"/><path class="cls-1" d="M50.76,6.76c.06.6.85.93,1.17,1.16s.17.35.17.35-1.19-.56-1.3-.89a6,6,0,0,1-.2-.72Z"/><path class="cls-1" d="M52.56,1.74c-.41-.05-1.18.11-1.37.6a17,17,0,0,0-.67,3.07c-.06.7-.2.91-.11,1.17s.6.63.76.49.44-4,.52-4.36.15-.63.83-.58"/><path class="cls-2" d="M58.92,8.58c0-.1,0-.22,0-.34.07-2-.34-5.9-1-6.78C57,0,53.9.1,52.81,1s-1.5,5-1,7.3c0,.1,0,.19.07.29A15.89,15.89,0,0,0,58.92,8.58Z"/><path class="cls-1" d="M52.12,9.17v0c.68,1.44,6.24,1.06,6.68.05a.84.84,0,0,0,0-.14A16.21,16.21,0,0,1,52.12,9.17Z"/><path class="cls-1" d="M58.85,9.1a1,1,0,0,0,0-.2c0-.09,0-.2,0-.32a15.89,15.89,0,0,1-7,0,2.64,2.64,0,0,0,.1.3c0,.09.07.17.1.25A16.21,16.21,0,0,0,58.85,9.1Z"/><path class="cls-1" d="M53.19,7.85a1.93,1.93,0,0,1,.46-2.67,5.5,5.5,0,0,1,3.56.15,2.29,2.29,0,0,1,.42,2.37C57.19,8.36,53.65,8.32,53.19,7.85Z"/><path class="cls-2" d="M53.48,7.42a1.68,1.68,0,0,1,.4-2.3A4.81,4.81,0,0,1,57,5.24a2,2,0,0,1,.37,2.05C56.94,7.86,53.88,7.83,53.48,7.42Z"/><path class="cls-1" d="M53.82,3.84A1.34,1.34,0,0,1,54.14,2a3.66,3.66,0,0,1,2.4.09,2.19,2.19,0,0,1,.38,1.75A5.93,5.93,0,0,1,53.82,3.84Z"/><path class="cls-2" d="M54,3.56A1.16,1.16,0,0,1,54.29,2a3.16,3.16,0,0,1,2.08.09,1.89,1.89,0,0,1,.34,1.51A5.12,5.12,0,0,1,54,3.56Z"/><rect class="cls-1" x="54.58" y="2.41" width="1.45" height="0.63" rx="0.32"/><path class="cls-1" d="M67.64,37.9s0-.33.23-.38a11.37,11.37,0,0,1,1.31,0c.1,0,.23.44.23.44H69s0-.29-.16-.32a3.62,3.62,0,0,0-.82,0c-.07,0,0,.31,0,.31Z"/><path class="cls-1" d="M72.85,44.21a1.1,1.1,0,0,1-.65,1c-.34.21-.15.36-.15.36s.71-.39.81-.73.16-.76.16-.76Z"/><path class="cls-1" d="M71.1,39.24c.41-.06,1.18.11,1.37.6a17,17,0,0,1,.67,3.07c.06.7.2.91.11,1.16s-.6.64-.76.5-.44-4-.52-4.36-.15-.63-.83-.58"/><path class="cls-1" d="M64,44.26c.06.6.85.93,1.17,1.15s.17.36.17.36-1.19-.56-1.31-.89-.2-.72-.2-.72Z"/><path class="cls-1" d="M65.82,39.24a1.39,1.39,0,0,0-1.38.6,18,18,0,0,0-.66,3.07c-.06.7-.2.91-.11,1.16s.6.64.76.5.43-4,.52-4.36.15-.63.82-.58"/><path class="cls-2" d="M72.18,46.08c0-.11,0-.22,0-.34.07-2-.35-5.9-1-6.78-1-1.47-4.08-1.36-5.18-.43s-1.49,4.95-1,7.3a2.29,2.29,0,0,0,.07.28A15.74,15.74,0,0,0,72.18,46.08Z"/><path class="cls-1" d="M65.38,46.67v0c.68,1.43,6.24,1.06,6.68.05a1.27,1.27,0,0,0,0-.14A16.21,16.21,0,0,1,65.38,46.67Z"/><path class="cls-1" d="M72.11,46.6a1.18,1.18,0,0,0,0-.2c0-.09,0-.2,0-.32a15.74,15.74,0,0,1-7,0,2.81,2.81,0,0,0,.1.31,1.86,1.86,0,0,0,.1.25A16.21,16.21,0,0,0,72.11,46.6Z"/><path class="cls-1" d="M66.45,45.35a1.93,1.93,0,0,1,.46-2.67,5.56,5.56,0,0,1,3.56.14,2.31,2.31,0,0,1,.42,2.38C70.45,45.86,66.91,45.82,66.45,45.35Z"/><path class="cls-2" d="M66.74,44.92a1.66,1.66,0,0,1,.4-2.3,4.81,4.81,0,0,1,3.07.12,2,2,0,0,1,.36,2C70.19,45.36,67.14,45.33,66.74,44.92Z"/><path class="cls-1" d="M67.08,41.34a1.35,1.35,0,0,1,.31-1.83,3.69,3.69,0,0,1,2.41.09,2.19,2.19,0,0,1,.38,1.75A5.93,5.93,0,0,1,67.08,41.34Z"/><path class="cls-2" d="M67.28,41.06a1.16,1.16,0,0,1,.27-1.59,3.16,3.16,0,0,1,2.08.09A1.84,1.84,0,0,1,70,41.07,5.08,5.08,0,0,1,67.28,41.06Z"/><rect class="cls-1" x="67.83" y="39.91" width="1.45" height="0.63" rx="0.32"/><path class="cls-1" d="M67.64,25.82s0-.33.23-.38a9.47,9.47,0,0,1,1.31,0c.1,0,.23.43.23.43H69s0-.29-.16-.32a3.62,3.62,0,0,0-.82,0c-.07,0,0,.31,0,.31Z"/><path class="cls-1" d="M72.85,32.13a1.07,1.07,0,0,1-.65,1c-.34.22-.15.37-.15.37s.71-.4.81-.74S73,32,73,32Z"/><path class="cls-1" d="M71.1,27.16c.41-.06,1.18.1,1.37.59a17.21,17.21,0,0,1,.67,3.07c.06.7.2.91.11,1.17s-.6.63-.76.49-.44-4-.52-4.35-.15-.64-.83-.58"/><path class="cls-1" d="M64,32.17c.06.6.85.93,1.17,1.16s.17.35.17.35-1.19-.56-1.31-.89-.2-.72-.2-.72Z"/><path class="cls-1" d="M65.82,27.16c-.41-.06-1.18.1-1.38.59a18.16,18.16,0,0,0-.66,3.07c-.06.7-.2.91-.11,1.17s.6.63.76.49.43-4,.52-4.35.15-.64.82-.58"/><path class="cls-2" d="M72.18,34c0-.1,0-.22,0-.34.07-2-.35-5.89-1-6.77-1-1.48-4.08-1.36-5.18-.44s-1.49,5-1,7.3a2.46,2.46,0,0,0,.07.29A15.74,15.74,0,0,0,72.18,34Z"/><path class="cls-1" d="M65.38,34.58v0c.68,1.43,6.24,1,6.68,0a1.55,1.55,0,0,0,0-.15A16,16,0,0,1,65.38,34.58Z"/><path class="cls-1" d="M72.11,34.51a.9.9,0,0,0,0-.19l0-.33a15.74,15.74,0,0,1-7,0,2.81,2.81,0,0,0,.1.31,2.44,2.44,0,0,0,.1.24A16,16,0,0,0,72.11,34.51Z"/><path class="cls-1" d="M66.45,33.26a1.92,1.92,0,0,1,.46-2.66,5.5,5.5,0,0,1,3.56.14,2.29,2.29,0,0,1,.42,2.37C70.45,33.77,66.91,33.73,66.45,33.26Z"/><path class="cls-2" d="M66.74,32.84a1.67,1.67,0,0,1,.4-2.31,4.75,4.75,0,0,1,3.07.13,2,2,0,0,1,.36,2C70.19,33.28,67.14,33.24,66.74,32.84Z"/><path class="cls-1" d="M67.08,29.25a1.35,1.35,0,0,1,.31-1.83,3.69,3.69,0,0,1,2.41.1,2.16,2.16,0,0,1,.38,1.74A5.82,5.82,0,0,1,67.08,29.25Z"/><path class="cls-2" d="M67.28,29a1.16,1.16,0,0,1,.27-1.59,3.16,3.16,0,0,1,2.08.08A1.86,1.86,0,0,1,70,29,5.18,5.18,0,0,1,67.28,29Z"/><rect class="cls-1" x="67.83" y="27.82" width="1.45" height="0.63" rx="0.32"/><path class="cls-1" d="M80,37.9s0-.33.23-.38a11.34,11.34,0,0,1,1.31,0c.1,0,.23.44.23.44h-.44s0-.29-.16-.32a3.62,3.62,0,0,0-.82,0c-.07,0,0,.31,0,.31Z"/><path class="cls-1" d="M85.22,44.21a1.1,1.1,0,0,1-.65,1c-.33.21-.15.36-.15.36s.71-.39.81-.73a6.85,6.85,0,0,0,.16-.76Z"/><path class="cls-1" d="M83.47,39.24c.41-.06,1.18.11,1.37.6a17,17,0,0,1,.67,3.07c.06.7.2.91.11,1.16s-.6.64-.76.5-.44-4-.52-4.36-.15-.63-.83-.58"/><path class="cls-1" d="M76.39,44.26c.06.6.85.93,1.17,1.15s.17.36.17.36-1.19-.56-1.3-.89a6,6,0,0,1-.2-.72Z"/><path class="cls-1" d="M78.19,39.24c-.41-.06-1.18.11-1.37.6a17,17,0,0,0-.67,3.07c-.06.7-.2.91-.11,1.16s.6.64.76.5.44-4,.52-4.36.15-.63.83-.58"/><path class="cls-2" d="M84.55,46.08c0-.11,0-.22,0-.34.07-2-.34-5.9-1-6.78-1-1.47-4.08-1.36-5.17-.43s-1.5,4.95-1,7.3a2.29,2.29,0,0,0,.07.28A15.74,15.74,0,0,0,84.55,46.08Z"/><path class="cls-1" d="M77.75,46.67v0c.68,1.43,6.24,1.06,6.68.05a1.27,1.27,0,0,0,0-.14A16.21,16.21,0,0,1,77.75,46.67Z"/><path class="cls-1" d="M84.48,46.6a1.18,1.18,0,0,0,0-.2,2.69,2.69,0,0,0,0-.32,15.74,15.74,0,0,1-7,0c0,.11.07.21.1.31s.07.17.1.25A16.21,16.21,0,0,0,84.48,46.6Z"/><path class="cls-1" d="M78.82,45.35a1.93,1.93,0,0,1,.46-2.67,5.56,5.56,0,0,1,3.56.14,2.31,2.31,0,0,1,.42,2.38C82.82,45.86,79.29,45.82,78.82,45.35Z"/><path class="cls-2" d="M79.11,44.92a1.68,1.68,0,0,1,.4-2.3,4.81,4.81,0,0,1,3.07.12,2,2,0,0,1,.37,2C82.57,45.36,79.51,45.33,79.11,44.92Z"/><path class="cls-1" d="M79.45,41.34a1.34,1.34,0,0,1,.32-1.83,3.66,3.66,0,0,1,2.4.09,2.19,2.19,0,0,1,.38,1.75A5.93,5.93,0,0,1,79.45,41.34Z"/><path class="cls-2" d="M79.65,41.06a1.16,1.16,0,0,1,.27-1.59,3.16,3.16,0,0,1,2.08.09,1.89,1.89,0,0,1,.34,1.51A5.12,5.12,0,0,1,79.65,41.06Z"/><rect class="cls-1" x="80.21" y="39.91" width="1.45" height="0.63" rx="0.32"/><path class="cls-1" d="M80,25.82s0-.33.23-.38a9.46,9.46,0,0,1,1.31,0c.1,0,.23.43.23.43h-.44s0-.29-.16-.32a3.62,3.62,0,0,0-.82,0c-.07,0,0,.31,0,.31Z"/><path class="cls-1" d="M85.22,32.13a1.07,1.07,0,0,1-.65,1c-.33.22-.15.37-.15.37s.71-.4.81-.74a6.39,6.39,0,0,0,.16-.76Z"/><path class="cls-1" d="M83.47,27.16c.41-.06,1.18.1,1.37.59a17.21,17.21,0,0,1,.67,3.07c.06.7.2.91.11,1.17s-.6.63-.76.49-.44-4-.52-4.35-.15-.64-.83-.58"/><path class="cls-1" d="M76.39,32.17c.06.6.85.93,1.17,1.16s.17.35.17.35-1.19-.56-1.3-.89a6,6,0,0,1-.2-.72Z"/><path class="cls-1" d="M78.19,27.16c-.41-.06-1.18.1-1.37.59a17.21,17.21,0,0,0-.67,3.07c-.06.7-.2.91-.11,1.17s.6.63.76.49.44-4,.52-4.35.15-.64.83-.58"/><path class="cls-2" d="M84.55,34c0-.1,0-.22,0-.34.07-2-.34-5.89-1-6.77-1-1.48-4.08-1.36-5.17-.44s-1.5,5-1,7.3a2.46,2.46,0,0,0,.07.29A15.74,15.74,0,0,0,84.55,34Z"/><path class="cls-1" d="M77.75,34.58v0c.68,1.43,6.24,1,6.68,0a1.55,1.55,0,0,0,0-.15A16,16,0,0,1,77.75,34.58Z"/><path class="cls-1" d="M84.48,34.51a.9.9,0,0,0,0-.19,3.11,3.11,0,0,0,0-.33,15.74,15.74,0,0,1-7,0c0,.11.07.21.1.31l.1.24A16,16,0,0,0,84.48,34.51Z"/><path class="cls-1" d="M78.82,33.26a1.92,1.92,0,0,1,.46-2.66,5.5,5.5,0,0,1,3.56.14,2.29,2.29,0,0,1,.42,2.37C82.82,33.77,79.29,33.73,78.82,33.26Z"/><path class="cls-2" d="M79.11,32.84a1.69,1.69,0,0,1,.4-2.31,4.75,4.75,0,0,1,3.07.13,2,2,0,0,1,.37,2C82.57,33.28,79.51,33.24,79.11,32.84Z"/><path class="cls-1" d="M79.45,29.25a1.34,1.34,0,0,1,.32-1.83,3.66,3.66,0,0,1,2.4.1,2.16,2.16,0,0,1,.38,1.74A5.82,5.82,0,0,1,79.45,29.25Z"/><path class="cls-2" d="M79.65,29a1.16,1.16,0,0,1,.27-1.59,3.16,3.16,0,0,1,2.08.08A1.9,1.9,0,0,1,82.34,29,5.22,5.22,0,0,1,79.65,29Z"/><rect class="cls-1" x="80.21" y="27.82" width="1.45" height="0.63" rx="0.32"/><path class="cls-1" d="M67.64,12.49s0-.33.23-.38a9.47,9.47,0,0,1,1.31,0c.1,0,.23.44.23.44H69s0-.29-.16-.32a3.7,3.7,0,0,0-.82,0c-.07,0,0,.32,0,.32Z"/><path class="cls-1" d="M72.85,18.8a1.1,1.1,0,0,1-.65,1c-.34.21-.15.36-.15.36s.71-.4.81-.74.16-.76.16-.76Z"/><path class="cls-1" d="M71.1,13.83c.41-.06,1.18.11,1.37.59a17.33,17.33,0,0,1,.67,3.08c.06.7.2.91.11,1.16s-.6.63-.76.5-.44-4-.52-4.36-.15-.64-.83-.58"/><path class="cls-1" d="M64,18.84c.06.61.85.94,1.17,1.16s.17.36.17.36-1.19-.57-1.31-.89-.2-.73-.2-.73Z"/><path class="cls-1" d="M65.82,13.83a1.41,1.41,0,0,0-1.38.59,18.29,18.29,0,0,0-.66,3.08c-.06.7-.2.91-.11,1.16s.6.63.76.5.43-4,.52-4.36.15-.64.82-.58"/><path class="cls-2" d="M72.18,20.67c0-.11,0-.22,0-.35.07-2-.35-5.89-1-6.77-1-1.48-4.08-1.36-5.18-.43s-1.49,5-1,7.29a2.46,2.46,0,0,0,.07.29A15.74,15.74,0,0,0,72.18,20.67Z"/><path class="cls-1" d="M65.38,21.25v0c.68,1.43,6.24,1,6.68,0,0,0,0-.09,0-.14A16,16,0,0,1,65.38,21.25Z"/><path class="cls-1" d="M72.11,21.19a1.18,1.18,0,0,0,0-.2c0-.1,0-.2,0-.32a15.74,15.74,0,0,1-7,0,2.81,2.81,0,0,0,.1.31,1.33,1.33,0,0,0,.1.24A16,16,0,0,0,72.11,21.19Z"/><path class="cls-1" d="M66.45,19.93a1.92,1.92,0,0,1,.46-2.66,5.56,5.56,0,0,1,3.56.14,2.29,2.29,0,0,1,.42,2.37C70.45,20.45,66.91,20.4,66.45,19.93Z"/><path class="cls-2" d="M66.74,19.51a1.66,1.66,0,0,1,.4-2.3,4.75,4.75,0,0,1,3.07.12,2,2,0,0,1,.36,2.05C70.19,20,67.14,19.91,66.74,19.51Z"/><path class="cls-1" d="M67.08,15.93a1.36,1.36,0,0,1,.31-1.84,3.69,3.69,0,0,1,2.41.1,2.19,2.19,0,0,1,.38,1.75A6,6,0,0,1,67.08,15.93Z"/><path class="cls-2" d="M67.28,15.65a1.16,1.16,0,0,1,.27-1.59,3.22,3.22,0,0,1,2.08.08A1.87,1.87,0,0,1,70,15.66,5.18,5.18,0,0,1,67.28,15.65Z"/><rect class="cls-1" x="67.83" y="14.49" width="1.45" height="0.63" rx="0.32"/><path class="cls-1" d="M67.64.41s0-.33.23-.39a11.37,11.37,0,0,1,1.31,0c.1,0,.23.44.23.44H69s0-.29-.16-.32a3.62,3.62,0,0,0-.82,0c-.07,0,0,.31,0,.31Z"/><path class="cls-1" d="M72.85,6.71a1.09,1.09,0,0,1-.65,1c-.34.21-.15.37-.15.37s.71-.4.81-.74.16-.76.16-.76Z"/><path class="cls-1" d="M71.1,1.74c.41-.05,1.18.11,1.37.6a17,17,0,0,1,.67,3.07c.06.7.2.91.11,1.17s-.6.63-.76.49-.44-4-.52-4.36-.15-.63-.83-.58"/><path class="cls-1" d="M64,6.76c.06.6.85.93,1.17,1.16s.17.35.17.35-1.19-.56-1.31-.89-.2-.72-.2-.72Z"/><path class="cls-1" d="M65.82,1.74c-.41-.05-1.18.11-1.38.6a18,18,0,0,0-.66,3.07c-.06.7-.2.91-.11,1.17s.6.63.76.49.43-4,.52-4.36.15-.63.82-.58"/><path class="cls-2" d="M72.18,8.58c0-.1,0-.22,0-.34.07-2-.35-5.9-1-6.78C70.21,0,67.16.1,66.06,1s-1.49,5-1,7.3c0,.1,0,.19.07.29A15.89,15.89,0,0,0,72.18,8.58Z"/><path class="cls-1" d="M65.38,9.17v0c.68,1.44,6.24,1.06,6.68.05a.84.84,0,0,0,0-.14A16.21,16.21,0,0,1,65.38,9.17Z"/><path class="cls-1" d="M72.11,9.1a1,1,0,0,0,0-.2c0-.09,0-.2,0-.32a15.89,15.89,0,0,1-7,0,2.64,2.64,0,0,0,.1.3,1.86,1.86,0,0,0,.1.25A16.21,16.21,0,0,0,72.11,9.1Z"/><path class="cls-1" d="M66.45,7.85a1.93,1.93,0,0,1,.46-2.67,5.5,5.5,0,0,1,3.56.15,2.29,2.29,0,0,1,.42,2.37C70.45,8.36,66.91,8.32,66.45,7.85Z"/><path class="cls-2" d="M66.74,7.42a1.66,1.66,0,0,1,.4-2.3,4.81,4.81,0,0,1,3.07.12,2,2,0,0,1,.36,2.05C70.19,7.86,67.14,7.83,66.74,7.42Z"/><path class="cls-1" d="M67.08,3.84A1.35,1.35,0,0,1,67.39,2a3.69,3.69,0,0,1,2.41.09,2.19,2.19,0,0,1,.38,1.75A5.93,5.93,0,0,1,67.08,3.84Z"/><path class="cls-2" d="M67.28,3.56A1.16,1.16,0,0,1,67.55,2a3.16,3.16,0,0,1,2.08.09A1.84,1.84,0,0,1,70,3.57,5.08,5.08,0,0,1,67.28,3.56Z"/><rect class="cls-1" x="67.83" y="2.41" width="1.45" height="0.63" rx="0.32"/><path class="cls-1" d="M80,12.49s0-.33.23-.38a9.46,9.46,0,0,1,1.31,0c.1,0,.23.44.23.44h-.44s0-.29-.16-.32a3.7,3.7,0,0,0-.82,0c-.07,0,0,.32,0,.32Z"/><path class="cls-1" d="M85.22,18.8a1.1,1.1,0,0,1-.65,1c-.33.21-.15.36-.15.36s.71-.4.81-.74a6.39,6.39,0,0,0,.16-.76Z"/><path class="cls-1" d="M83.47,13.83c.41-.06,1.18.11,1.37.59a17.33,17.33,0,0,1,.67,3.08c.06.7.2.91.11,1.16s-.6.63-.76.5-.44-4-.52-4.36-.15-.64-.83-.58"/><path class="cls-1" d="M76.39,18.84c.06.61.85.94,1.17,1.16s.17.36.17.36-1.19-.57-1.3-.89a5.89,5.89,0,0,1-.2-.73Z"/><path class="cls-1" d="M78.19,13.83c-.41-.06-1.18.11-1.37.59a17.33,17.33,0,0,0-.67,3.08c-.06.7-.2.91-.11,1.16s.6.63.76.5.44-4,.52-4.36.15-.64.83-.58"/><path class="cls-2" d="M84.55,20.67c0-.11,0-.22,0-.35.07-2-.34-5.89-1-6.77-1-1.48-4.08-1.36-5.17-.43s-1.5,5-1,7.29a2.46,2.46,0,0,0,.07.29A15.74,15.74,0,0,0,84.55,20.67Z"/><path class="cls-1" d="M77.75,21.25v0c.68,1.43,6.24,1,6.68,0,0,0,0-.09,0-.14A16,16,0,0,1,77.75,21.25Z"/><path class="cls-1" d="M84.48,21.19a1.18,1.18,0,0,0,0-.2,2.91,2.91,0,0,0,0-.32,15.74,15.74,0,0,1-7,0c0,.11.07.21.1.31s.07.17.1.24A16,16,0,0,0,84.48,21.19Z"/><path class="cls-1" d="M78.82,19.93a1.92,1.92,0,0,1,.46-2.66,5.56,5.56,0,0,1,3.56.14,2.29,2.29,0,0,1,.42,2.37C82.82,20.45,79.29,20.4,78.82,19.93Z"/><path class="cls-2" d="M79.11,19.51a1.67,1.67,0,0,1,.4-2.3,4.75,4.75,0,0,1,3.07.12A2,2,0,0,1,83,19.38C82.57,20,79.51,19.91,79.11,19.51Z"/><path class="cls-1" d="M79.45,15.93a1.35,1.35,0,0,1,.32-1.84,3.66,3.66,0,0,1,2.4.1,2.19,2.19,0,0,1,.38,1.75A6,6,0,0,1,79.45,15.93Z"/><path class="cls-2" d="M79.65,15.65a1.16,1.16,0,0,1,.27-1.59,3.22,3.22,0,0,1,2.08.08,1.91,1.91,0,0,1,.34,1.52A5.22,5.22,0,0,1,79.65,15.65Z"/><rect class="cls-1" x="80.21" y="14.49" width="1.45" height="0.63" rx="0.32"/><path class="cls-1" d="M80,.41s0-.33.23-.39a11.34,11.34,0,0,1,1.31,0c.1,0,.23.44.23.44h-.44s0-.29-.16-.32a3.62,3.62,0,0,0-.82,0c-.07,0,0,.31,0,.31Z"/><path class="cls-1" d="M85.22,6.71a1.09,1.09,0,0,1-.65,1c-.33.21-.15.37-.15.37s.71-.4.81-.74a6.85,6.85,0,0,0,.16-.76Z"/><path class="cls-1" d="M83.47,1.74c.41-.05,1.18.11,1.37.6a17,17,0,0,1,.67,3.07c.06.7.2.91.11,1.17s-.6.63-.76.49-.44-4-.52-4.36-.15-.63-.83-.58"/><path class="cls-1" d="M76.39,6.76c.06.6.85.93,1.17,1.16s.17.35.17.35-1.19-.56-1.3-.89a6,6,0,0,1-.2-.72Z"/><path class="cls-1" d="M78.19,1.74c-.41-.05-1.18.11-1.37.6a17,17,0,0,0-.67,3.07c-.06.7-.2.91-.11,1.17s.6.63.76.49.44-4,.52-4.36.15-.63.83-.58"/><path class="cls-2" d="M84.55,8.58c0-.1,0-.22,0-.34.07-2-.34-5.9-1-6.78C82.58,0,79.53.1,78.44,1s-1.5,5-1,7.3c0,.1,0,.19.07.29A15.89,15.89,0,0,0,84.55,8.58Z"/><path class="cls-1" d="M77.75,9.17v0c.68,1.44,6.24,1.06,6.68.05a.84.84,0,0,0,0-.14A16.21,16.21,0,0,1,77.75,9.17Z"/><path class="cls-1" d="M84.48,9.1a1,1,0,0,0,0-.2,2.69,2.69,0,0,0,0-.32,15.89,15.89,0,0,1-7,0c0,.1.07.21.1.3s.07.17.1.25A16.21,16.21,0,0,0,84.48,9.1Z"/><path class="cls-1" d="M78.82,7.85a1.93,1.93,0,0,1,.46-2.67,5.5,5.5,0,0,1,3.56.15,2.29,2.29,0,0,1,.42,2.37C82.82,8.36,79.29,8.32,78.82,7.85Z"/><path class="cls-2" d="M79.11,7.42a1.68,1.68,0,0,1,.4-2.3,4.81,4.81,0,0,1,3.07.12A2,2,0,0,1,83,7.29C82.57,7.86,79.51,7.83,79.11,7.42Z"/><path class="cls-1" d="M79.45,3.84A1.34,1.34,0,0,1,79.77,2a3.66,3.66,0,0,1,2.4.09,2.19,2.19,0,0,1,.38,1.75A5.93,5.93,0,0,1,79.45,3.84Z"/><path class="cls-2" d="M79.65,3.56A1.16,1.16,0,0,1,79.92,2,3.16,3.16,0,0,1,82,2.06a1.89,1.89,0,0,1,.34,1.51A5.12,5.12,0,0,1,79.65,3.56Z"/><rect class="cls-1" x="80.21" y="2.41" width="1.45" height="0.63" rx="0.32"/><path class="cls-1" d="M92.93,37.9s0-.33.23-.38a11.18,11.18,0,0,1,1.3,0c.11,0,.23.44.23.44h-.44s0-.29-.15-.32a3.6,3.6,0,0,0-.82,0c-.08,0,0,.31,0,.31Z"/><path class="cls-1" d="M98.13,44.21a1.08,1.08,0,0,1-.64,1c-.34.21-.15.36-.15.36s.71-.39.81-.73.15-.76.15-.76Z"/><path class="cls-1" d="M96.39,39.24c.41-.06,1.18.11,1.37.6a18.92,18.92,0,0,1,.67,3.07c0,.7.2.91.11,1.16s-.6.64-.77.5-.43-4-.52-4.36-.14-.63-.82-.58"/><path class="cls-1" d="M89.3,44.26c.07.6.85.93,1.18,1.15s.16.36.16.36-1.19-.56-1.3-.89-.2-.72-.2-.72Z"/><path class="cls-1" d="M91.11,39.24c-.41-.06-1.19.11-1.38.6a18.92,18.92,0,0,0-.67,3.07c0,.7-.19.91-.1,1.16s.59.64.76.5.43-4,.52-4.36.15-.63.82-.58"/><path class="cls-2" d="M97.47,46.08c0-.11,0-.22,0-.34.06-2-.35-5.9-1-6.78-1-1.47-4.09-1.36-5.18-.43s-1.49,4.95-1,7.3c0,.1,0,.19.08.28A15.74,15.74,0,0,0,97.47,46.08Z"/><path class="cls-1" d="M90.67,46.67v0c.68,1.43,6.24,1.06,6.67.05a.46.46,0,0,0,.05-.14A16.21,16.21,0,0,1,90.67,46.67Z"/><path class="cls-1" d="M97.4,46.6c0-.06,0-.13,0-.2s0-.2,0-.32a15.74,15.74,0,0,1-7,0,2.81,2.81,0,0,0,.1.31,1.86,1.86,0,0,0,.1.25A16.21,16.21,0,0,0,97.4,46.6Z"/><path class="cls-1" d="M91.73,45.35a1.94,1.94,0,0,1,.47-2.67,5.56,5.56,0,0,1,3.56.14,2.31,2.31,0,0,1,.42,2.38C95.74,45.86,92.2,45.82,91.73,45.35Z"/><path class="cls-2" d="M92,44.92a1.66,1.66,0,0,1,.4-2.3,4.82,4.82,0,0,1,3.07.12,2,2,0,0,1,.36,2C95.48,45.36,92.43,45.33,92,44.92Z"/><path class="cls-1" d="M92.37,41.34a1.34,1.34,0,0,1,.31-1.83,3.69,3.69,0,0,1,2.41.09,2.19,2.19,0,0,1,.38,1.75A5.93,5.93,0,0,1,92.37,41.34Z"/><path class="cls-2" d="M92.56,41.06a1.17,1.17,0,0,1,.28-1.59,3.16,3.16,0,0,1,2.08.09,1.84,1.84,0,0,1,.33,1.51A5.11,5.11,0,0,1,92.56,41.06Z"/><rect class="cls-1" x="93.12" y="39.91" width="1.45" height="0.63" rx="0.32"/><path class="cls-1" d="M92.93,25.82s0-.33.23-.38a9.32,9.32,0,0,1,1.3,0c.11,0,.23.43.23.43h-.44s0-.29-.15-.32a3.6,3.6,0,0,0-.82,0c-.08,0,0,.31,0,.31Z"/><path class="cls-1" d="M98.13,32.13a1.05,1.05,0,0,1-.64,1c-.34.22-.15.37-.15.37s.71-.4.81-.74.15-.76.15-.76Z"/><path class="cls-1" d="M96.39,27.16c.41-.06,1.18.1,1.37.59a19.16,19.16,0,0,1,.67,3.07c0,.7.2.91.11,1.17s-.6.63-.77.49-.43-4-.52-4.35-.14-.64-.82-.58"/><path class="cls-1" d="M89.3,32.17c.07.6.85.93,1.18,1.16s.16.35.16.35-1.19-.56-1.3-.89-.2-.72-.2-.72Z"/><path class="cls-1" d="M91.11,27.16c-.41-.06-1.19.1-1.38.59a19.16,19.16,0,0,0-.67,3.07c0,.7-.19.91-.1,1.17s.59.63.76.49.43-4,.52-4.35.15-.64.82-.58"/><path class="cls-2" d="M97.47,34c0-.1,0-.22,0-.34.06-2-.35-5.89-1-6.77-1-1.48-4.09-1.36-5.18-.44s-1.49,5-1,7.3c0,.1,0,.2.08.29A15.74,15.74,0,0,0,97.47,34Z"/><path class="cls-1" d="M90.67,34.58v0c.68,1.43,6.24,1,6.67,0a.53.53,0,0,0,.05-.15A16,16,0,0,1,90.67,34.58Z"/><path class="cls-1" d="M97.4,34.51s0-.12,0-.19,0-.21,0-.33a15.74,15.74,0,0,1-7,0,2.81,2.81,0,0,0,.1.31,2.44,2.44,0,0,0,.1.24A16,16,0,0,0,97.4,34.51Z"/><path class="cls-1" d="M91.73,33.26a1.93,1.93,0,0,1,.47-2.66,5.5,5.5,0,0,1,3.56.14,2.29,2.29,0,0,1,.42,2.37C95.74,33.77,92.2,33.73,91.73,33.26Z"/><path class="cls-2" d="M92,32.84a1.67,1.67,0,0,1,.4-2.31,4.75,4.75,0,0,1,3.07.13,2,2,0,0,1,.36,2C95.48,33.28,92.43,33.24,92,32.84Z"/><path class="cls-1" d="M92.37,29.25a1.34,1.34,0,0,1,.31-1.83,3.69,3.69,0,0,1,2.41.1,2.16,2.16,0,0,1,.38,1.74A5.82,5.82,0,0,1,92.37,29.25Z"/><path class="cls-2" d="M92.56,29a1.17,1.17,0,0,1,.28-1.59,3.16,3.16,0,0,1,2.08.08A1.86,1.86,0,0,1,95.25,29,5.22,5.22,0,0,1,92.56,29Z"/><rect class="cls-1" x="93.12" y="27.82" width="1.45" height="0.63" rx="0.32"/><path class="cls-1" d="M105.3,37.9s0-.33.23-.38a11.37,11.37,0,0,1,1.31,0c.1,0,.23.44.23.44h-.45s0-.29-.15-.32a3.6,3.6,0,0,0-.82,0c-.07,0,0,.31,0,.31Z"/><path class="cls-1" d="M110.51,44.21a1.1,1.1,0,0,1-.65,1c-.34.21-.15.36-.15.36s.71-.39.81-.73.16-.76.16-.76Z"/><path class="cls-1" d="M108.76,39.24c.41-.06,1.18.11,1.37.6a18.92,18.92,0,0,1,.67,3.07c.06.7.2.91.11,1.16s-.6.64-.76.5-.44-4-.53-4.36-.14-.63-.82-.58"/><path class="cls-1" d="M101.68,44.26c.06.6.85.93,1.17,1.15s.16.36.16.36-1.18-.56-1.3-.89-.2-.72-.2-.72Z"/><path class="cls-1" d="M103.48,39.24a1.39,1.39,0,0,0-1.38.6,18,18,0,0,0-.66,3.07c-.06.7-.2.91-.11,1.16s.6.64.76.5.43-4,.52-4.36.15-.63.82-.58"/><path class="cls-2" d="M109.84,46.08c0-.11,0-.22,0-.34.07-2-.35-5.9-1-6.78-1-1.47-4.08-1.36-5.18-.43s-1.49,4.95-1,7.3a2.29,2.29,0,0,0,.07.28A15.74,15.74,0,0,0,109.84,46.08Z"/><path class="cls-1" d="M103,46.67v0c.68,1.43,6.24,1.06,6.68.05a1.27,1.27,0,0,0,0-.14A16.21,16.21,0,0,1,103,46.67Z"/><path class="cls-1" d="M109.77,46.6c0-.06,0-.13,0-.2s0-.2,0-.32a15.74,15.74,0,0,1-7,0,2.81,2.81,0,0,0,.1.31,1.86,1.86,0,0,0,.1.25A16.21,16.21,0,0,0,109.77,46.6Z"/><path class="cls-1" d="M104.11,45.35a1.93,1.93,0,0,1,.46-2.67,5.56,5.56,0,0,1,3.56.14,2.31,2.31,0,0,1,.42,2.38C108.11,45.86,104.57,45.82,104.11,45.35Z"/><path class="cls-2" d="M104.4,44.92a1.66,1.66,0,0,1,.4-2.3,4.82,4.82,0,0,1,3.07.12,2,2,0,0,1,.36,2C107.85,45.36,104.8,45.33,104.4,44.92Z"/><path class="cls-1" d="M104.74,41.34a1.35,1.35,0,0,1,.31-1.83,3.69,3.69,0,0,1,2.41.09,2.19,2.19,0,0,1,.38,1.75A5.93,5.93,0,0,1,104.74,41.34Z"/><path class="cls-2" d="M104.94,41.06a1.16,1.16,0,0,1,.27-1.59,3.16,3.16,0,0,1,2.08.09,1.84,1.84,0,0,1,.33,1.51A5.08,5.08,0,0,1,104.94,41.06Z"/><rect class="cls-1" x="105.49" y="39.91" width="1.45" height="0.63" rx="0.32"/><path class="cls-1" d="M105.3,25.82s0-.33.23-.38a9.47,9.47,0,0,1,1.31,0c.1,0,.23.43.23.43h-.45s0-.29-.15-.32a3.6,3.6,0,0,0-.82,0c-.07,0,0,.31,0,.31Z"/><path class="cls-1" d="M110.51,32.13a1.07,1.07,0,0,1-.65,1c-.34.22-.15.37-.15.37s.71-.4.81-.74.16-.76.16-.76Z"/><path class="cls-1" d="M108.76,27.16c.41-.06,1.18.1,1.37.59a19.16,19.16,0,0,1,.67,3.07c.06.7.2.91.11,1.17s-.6.63-.76.49-.44-4-.53-4.35-.14-.64-.82-.58"/><path class="cls-1" d="M101.68,32.17c.06.6.85.93,1.17,1.16s.16.35.16.35-1.18-.56-1.3-.89-.2-.72-.2-.72Z"/><path class="cls-1" d="M103.48,27.16c-.41-.06-1.18.1-1.38.59a18.16,18.16,0,0,0-.66,3.07c-.06.7-.2.91-.11,1.17s.6.63.76.49.43-4,.52-4.35.15-.64.82-.58"/><path class="cls-2" d="M109.84,34c0-.1,0-.22,0-.34.07-2-.35-5.89-1-6.77-1-1.48-4.08-1.36-5.18-.44s-1.49,5-1,7.3a2.46,2.46,0,0,0,.07.29A15.74,15.74,0,0,0,109.84,34Z"/><path class="cls-1" d="M103,34.58v0c.68,1.43,6.24,1,6.68,0a1.55,1.55,0,0,0,0-.15A16,16,0,0,1,103,34.58Z"/><path class="cls-1" d="M109.77,34.51s0-.12,0-.19l0-.33a15.74,15.74,0,0,1-7,0,2.81,2.81,0,0,0,.1.31,2.44,2.44,0,0,0,.1.24A16,16,0,0,0,109.77,34.51Z"/><path class="cls-1" d="M104.11,33.26a1.92,1.92,0,0,1,.46-2.66,5.5,5.5,0,0,1,3.56.14,2.29,2.29,0,0,1,.42,2.37C108.11,33.77,104.57,33.73,104.11,33.26Z"/><path class="cls-2" d="M104.4,32.84a1.67,1.67,0,0,1,.4-2.31,4.75,4.75,0,0,1,3.07.13,2,2,0,0,1,.36,2C107.85,33.28,104.8,33.24,104.4,32.84Z"/><path class="cls-1" d="M104.74,29.25a1.35,1.35,0,0,1,.31-1.83,3.69,3.69,0,0,1,2.41.1,2.16,2.16,0,0,1,.38,1.74A5.82,5.82,0,0,1,104.74,29.25Z"/><path class="cls-2" d="M104.94,29a1.16,1.16,0,0,1,.27-1.59,3.16,3.16,0,0,1,2.08.08,1.86,1.86,0,0,1,.33,1.52A5.18,5.18,0,0,1,104.94,29Z"/><rect class="cls-1" x="105.49" y="27.82" width="1.45" height="0.63" rx="0.32"/><path class="cls-1" d="M92.93,12.49s0-.33.23-.38a9.32,9.32,0,0,1,1.3,0c.11,0,.23.44.23.44h-.44s0-.29-.15-.32a3.69,3.69,0,0,0-.82,0c-.08,0,0,.32,0,.32Z"/><path class="cls-1" d="M98.13,18.8a1.08,1.08,0,0,1-.64,1c-.34.21-.15.36-.15.36s.71-.4.81-.74.15-.76.15-.76Z"/><path class="cls-1" d="M96.39,13.83c.41-.06,1.18.11,1.37.59a19.29,19.29,0,0,1,.67,3.08c0,.7.2.91.11,1.16s-.6.63-.77.5-.43-4-.52-4.36-.14-.64-.82-.58"/><path class="cls-1" d="M89.3,18.84c.07.61.85.94,1.18,1.16s.16.36.16.36-1.19-.57-1.3-.89-.2-.73-.2-.73Z"/><path class="cls-1" d="M91.11,13.83c-.41-.06-1.19.11-1.38.59a19.29,19.29,0,0,0-.67,3.08c0,.7-.19.91-.1,1.16s.59.63.76.5.43-4,.52-4.36.15-.64.82-.58"/><path class="cls-2" d="M97.47,20.67c0-.11,0-.22,0-.35.06-2-.35-5.89-1-6.77-1-1.48-4.09-1.36-5.18-.43s-1.49,5-1,7.29c0,.1,0,.2.08.29A15.74,15.74,0,0,0,97.47,20.67Z"/><path class="cls-1" d="M90.67,21.25v0c.68,1.43,6.24,1,6.67,0a.58.58,0,0,0,.05-.14A16,16,0,0,1,90.67,21.25Z"/><path class="cls-1" d="M97.4,21.19c0-.06,0-.13,0-.2s0-.2,0-.32a15.74,15.74,0,0,1-7,0,2.81,2.81,0,0,0,.1.31,1.33,1.33,0,0,0,.1.24A16,16,0,0,0,97.4,21.19Z"/><path class="cls-1" d="M91.73,19.93a1.93,1.93,0,0,1,.47-2.66,5.56,5.56,0,0,1,3.56.14,2.29,2.29,0,0,1,.42,2.37C95.74,20.45,92.2,20.4,91.73,19.93Z"/><path class="cls-2" d="M92,19.51a1.66,1.66,0,0,1,.4-2.3,4.75,4.75,0,0,1,3.07.12,2,2,0,0,1,.36,2.05C95.48,20,92.43,19.91,92,19.51Z"/><path class="cls-1" d="M92.37,15.93a1.35,1.35,0,0,1,.31-1.84,3.69,3.69,0,0,1,2.41.1,2.19,2.19,0,0,1,.38,1.75A6,6,0,0,1,92.37,15.93Z"/><path class="cls-2" d="M92.56,15.65a1.17,1.17,0,0,1,.28-1.59,3.22,3.22,0,0,1,2.08.08,1.87,1.87,0,0,1,.33,1.52A5.22,5.22,0,0,1,92.56,15.65Z"/><rect class="cls-1" x="93.12" y="14.49" width="1.45" height="0.63" rx="0.32"/><path class="cls-1" d="M92.93.41s0-.33.23-.39a11.18,11.18,0,0,1,1.3,0c.11,0,.23.44.23.44h-.44s0-.29-.15-.32a3.6,3.6,0,0,0-.82,0c-.08,0,0,.31,0,.31Z"/><path class="cls-1" d="M98.13,6.71a1.07,1.07,0,0,1-.64,1c-.34.21-.15.37-.15.37s.71-.4.81-.74.15-.76.15-.76Z"/><path class="cls-1" d="M96.39,1.74c.41-.05,1.18.11,1.37.6a18.92,18.92,0,0,1,.67,3.07c0,.7.2.91.11,1.17s-.6.63-.77.49-.43-4-.52-4.36-.14-.63-.82-.58"/><path class="cls-1" d="M89.3,6.76c.07.6.85.93,1.18,1.16s.16.35.16.35-1.19-.56-1.3-.89-.2-.72-.2-.72Z"/><path class="cls-1" d="M91.11,1.74c-.41-.05-1.19.11-1.38.6a18.92,18.92,0,0,0-.67,3.07c0,.7-.19.91-.1,1.17s.59.63.76.49.43-4,.52-4.36.15-.63.82-.58"/><path class="cls-2" d="M97.47,8.58c0-.1,0-.22,0-.34.06-2-.35-5.9-1-6.78C95.5,0,92.44.1,91.35,1s-1.49,5-1,7.3l.08.29A15.89,15.89,0,0,0,97.47,8.58Z"/><path class="cls-1" d="M90.67,9.17v0c.68,1.44,6.24,1.06,6.67.05a.38.38,0,0,0,.05-.14A16.21,16.21,0,0,1,90.67,9.17Z"/><path class="cls-1" d="M97.4,9.1c0-.06,0-.12,0-.2s0-.2,0-.32a15.89,15.89,0,0,1-7,0,2.64,2.64,0,0,0,.1.3,1.86,1.86,0,0,0,.1.25A16.21,16.21,0,0,0,97.4,9.1Z"/><path class="cls-1" d="M91.73,7.85a2,2,0,0,1,.47-2.67,5.5,5.5,0,0,1,3.56.15,2.29,2.29,0,0,1,.42,2.37C95.74,8.36,92.2,8.32,91.73,7.85Z"/><path class="cls-2" d="M92,7.42a1.66,1.66,0,0,1,.4-2.3,4.82,4.82,0,0,1,3.07.12,2,2,0,0,1,.36,2.05C95.48,7.86,92.43,7.83,92,7.42Z"/><path class="cls-1" d="M92.37,3.84A1.34,1.34,0,0,1,92.68,2a3.69,3.69,0,0,1,2.41.09,2.19,2.19,0,0,1,.38,1.75A5.93,5.93,0,0,1,92.37,3.84Z"/><path class="cls-2" d="M92.56,3.56A1.17,1.17,0,0,1,92.84,2a3.16,3.16,0,0,1,2.08.09,1.84,1.84,0,0,1,.33,1.51A5.11,5.11,0,0,1,92.56,3.56Z"/><rect class="cls-1" x="93.12" y="2.41" width="1.45" height="0.63" rx="0.32"/><path class="cls-1" d="M105.3,12.49s0-.33.23-.38a9.47,9.47,0,0,1,1.31,0c.1,0,.23.44.23.44h-.45s0-.29-.15-.32a3.69,3.69,0,0,0-.82,0c-.07,0,0,.32,0,.32Z"/><path class="cls-1" d="M110.51,18.8a1.1,1.1,0,0,1-.65,1c-.34.21-.15.36-.15.36s.71-.4.81-.74.16-.76.16-.76Z"/><path class="cls-1" d="M108.76,13.83c.41-.06,1.18.11,1.37.59a19.29,19.29,0,0,1,.67,3.08c.06.7.2.91.11,1.16s-.6.63-.76.5-.44-4-.53-4.36-.14-.64-.82-.58"/><path class="cls-1" d="M101.68,18.84c.06.61.85.94,1.17,1.16s.16.36.16.36-1.18-.57-1.3-.89-.2-.73-.2-.73Z"/><path class="cls-1" d="M103.48,13.83a1.41,1.41,0,0,0-1.38.59,18.29,18.29,0,0,0-.66,3.08c-.06.7-.2.91-.11,1.16s.6.63.76.5.43-4,.52-4.36.15-.64.82-.58"/><path class="cls-2" d="M109.84,20.67c0-.11,0-.22,0-.35.07-2-.35-5.89-1-6.77-1-1.48-4.08-1.36-5.18-.43s-1.49,5-1,7.29a2.46,2.46,0,0,0,.07.29A15.74,15.74,0,0,0,109.84,20.67Z"/><path class="cls-1" d="M103,21.25v0c.68,1.43,6.24,1,6.68,0,0,0,0-.09,0-.14A16,16,0,0,1,103,21.25Z"/><path class="cls-1" d="M109.77,21.19c0-.06,0-.13,0-.2s0-.2,0-.32a15.74,15.74,0,0,1-7,0,2.81,2.81,0,0,0,.1.31,1.33,1.33,0,0,0,.1.24A16,16,0,0,0,109.77,21.19Z"/><path class="cls-1" d="M104.11,19.93a1.92,1.92,0,0,1,.46-2.66,5.56,5.56,0,0,1,3.56.14,2.29,2.29,0,0,1,.42,2.37C108.11,20.45,104.57,20.4,104.11,19.93Z"/><path class="cls-2" d="M104.4,19.51a1.66,1.66,0,0,1,.4-2.3,4.75,4.75,0,0,1,3.07.12,2,2,0,0,1,.36,2.05C107.85,20,104.8,19.91,104.4,19.51Z"/><path class="cls-1" d="M104.74,15.93a1.36,1.36,0,0,1,.31-1.84,3.69,3.69,0,0,1,2.41.1,2.19,2.19,0,0,1,.38,1.75A6,6,0,0,1,104.74,15.93Z"/><path class="cls-2" d="M104.94,15.65a1.16,1.16,0,0,1,.27-1.59,3.22,3.22,0,0,1,2.08.08,1.87,1.87,0,0,1,.33,1.52A5.18,5.18,0,0,1,104.94,15.65Z"/><rect class="cls-1" x="105.49" y="14.49" width="1.45" height="0.63" rx="0.32"/><path class="cls-1" d="M105.3.41s0-.33.23-.39a11.37,11.37,0,0,1,1.31,0c.1,0,.23.44.23.44h-.45s0-.29-.15-.32a3.6,3.6,0,0,0-.82,0c-.07,0,0,.31,0,.31Z"/><path class="cls-1" d="M110.51,6.71a1.09,1.09,0,0,1-.65,1c-.34.21-.15.37-.15.37s.71-.4.81-.74.16-.76.16-.76Z"/><path class="cls-1" d="M108.76,1.74c.41-.05,1.18.11,1.37.6a18.92,18.92,0,0,1,.67,3.07c.06.7.2.91.11,1.17s-.6.63-.76.49-.44-4-.53-4.36-.14-.63-.82-.58"/><path class="cls-1" d="M101.68,6.76c.06.6.85.93,1.17,1.16s.16.35.16.35-1.18-.56-1.3-.89-.2-.72-.2-.72Z"/><path class="cls-1" d="M103.48,1.74c-.41-.05-1.18.11-1.38.6a18,18,0,0,0-.66,3.07c-.06.7-.2.91-.11,1.17s.6.63.76.49.43-4,.52-4.36.15-.63.82-.58"/><path class="cls-2" d="M109.84,8.58c0-.1,0-.22,0-.34.07-2-.35-5.9-1-6.78C107.87,0,104.82.1,103.72,1s-1.49,5-1,7.3c0,.1,0,.19.07.29A15.89,15.89,0,0,0,109.84,8.58Z"/><path class="cls-1" d="M103,9.17v0c.68,1.44,6.24,1.06,6.68.05a.84.84,0,0,0,0-.14A16.21,16.21,0,0,1,103,9.17Z"/><path class="cls-1" d="M109.77,9.1c0-.06,0-.12,0-.2s0-.2,0-.32a15.89,15.89,0,0,1-7,0,2.64,2.64,0,0,0,.1.3,1.86,1.86,0,0,0,.1.25A16.21,16.21,0,0,0,109.77,9.1Z"/><path class="cls-1" d="M104.11,7.85a1.93,1.93,0,0,1,.46-2.67,5.5,5.5,0,0,1,3.56.15,2.29,2.29,0,0,1,.42,2.37C108.11,8.36,104.57,8.32,104.11,7.85Z"/><path class="cls-2" d="M104.4,7.42a1.66,1.66,0,0,1,.4-2.3,4.82,4.82,0,0,1,3.07.12,2,2,0,0,1,.36,2.05C107.85,7.86,104.8,7.83,104.4,7.42Z"/><path class="cls-1" d="M104.74,3.84A1.35,1.35,0,0,1,105.05,2a3.69,3.69,0,0,1,2.41.09,2.19,2.19,0,0,1,.38,1.75A5.93,5.93,0,0,1,104.74,3.84Z"/><path class="cls-2" d="M104.94,3.56A1.16,1.16,0,0,1,105.21,2a3.16,3.16,0,0,1,2.08.09,1.84,1.84,0,0,1,.33,1.51A5.08,5.08,0,0,1,104.94,3.56Z"/><rect class="cls-1" x="105.49" y="2.41" width="1.45" height="0.63" rx="0.32"/><path class="cls-1" d="M118,37.9s0-.33.23-.38a11.34,11.34,0,0,1,1.31,0c.1,0,.23.44.23.44h-.44s0-.29-.16-.32a3.62,3.62,0,0,0-.82,0c-.07,0,0,.31,0,.31Z"/><path class="cls-1" d="M123.23,44.21a1.1,1.1,0,0,1-.65,1c-.33.21-.15.36-.15.36s.71-.39.81-.73.16-.76.16-.76Z"/><path class="cls-1" d="M121.48,39.24c.41-.06,1.18.11,1.37.6a17,17,0,0,1,.67,3.07c.06.7.2.91.11,1.16s-.6.64-.76.5-.44-4-.52-4.36-.15-.63-.83-.58"/><path class="cls-1" d="M114.4,44.26c.06.6.85.93,1.17,1.15s.17.36.17.36-1.19-.56-1.31-.89-.2-.72-.2-.72Z"/><path class="cls-1" d="M116.2,39.24c-.41-.06-1.18.11-1.37.6a17,17,0,0,0-.67,3.07c-.06.7-.2.91-.11,1.16s.6.64.76.5.43-4,.52-4.36.15-.63.83-.58"/><path class="cls-2" d="M122.56,46.08c0-.11,0-.22,0-.34.07-2-.35-5.9-1-6.78-1-1.47-4.08-1.36-5.17-.43s-1.5,4.95-1,7.3a2.29,2.29,0,0,0,.07.28A15.74,15.74,0,0,0,122.56,46.08Z"/><path class="cls-1" d="M115.76,46.67v0c.68,1.43,6.24,1.06,6.68.05a1.27,1.27,0,0,0,0-.14A16.21,16.21,0,0,1,115.76,46.67Z"/><path class="cls-1" d="M122.49,46.6a1.18,1.18,0,0,0,0-.2c0-.09,0-.2,0-.32a15.74,15.74,0,0,1-7,0,2.81,2.81,0,0,0,.1.31c0,.09.07.17.1.25A16.21,16.21,0,0,0,122.49,46.6Z"/><path class="cls-1" d="M116.83,45.35a1.93,1.93,0,0,1,.46-2.67,5.56,5.56,0,0,1,3.56.14,2.31,2.31,0,0,1,.42,2.38C120.83,45.86,117.29,45.82,116.83,45.35Z"/><path class="cls-2" d="M117.12,44.92a1.67,1.67,0,0,1,.4-2.3,4.81,4.81,0,0,1,3.07.12,2,2,0,0,1,.37,2C120.57,45.36,117.52,45.33,117.12,44.92Z"/><path class="cls-1" d="M117.46,41.34a1.34,1.34,0,0,1,.32-1.83,3.66,3.66,0,0,1,2.4.09,2.19,2.19,0,0,1,.38,1.75A5.93,5.93,0,0,1,117.46,41.34Z"/><path class="cls-2" d="M117.66,41.06a1.16,1.16,0,0,1,.27-1.59,3.16,3.16,0,0,1,2.08.09,1.89,1.89,0,0,1,.34,1.51A5.12,5.12,0,0,1,117.66,41.06Z"/><rect class="cls-1" x="118.21" y="39.91" width="1.45" height="0.63" rx="0.32"/><path class="cls-1" d="M4,51.23s0-.33.23-.38a9.47,9.47,0,0,1,1.31,0c.1,0,.23.44.23.44H5.33s0-.29-.16-.32a4.44,4.44,0,0,0-.82,0c-.07,0,0,.32,0,.32Z"/><path class="cls-1" d="M9.21,57.54a1.1,1.1,0,0,1-.65,1c-.33.21-.15.36-.15.36s.71-.39.81-.74.16-.76.16-.76Z"/><path class="cls-1" d="M7.46,52.57c.41-.06,1.18.11,1.37.59a17.33,17.33,0,0,1,.67,3.08c.06.7.2.91.11,1.16s-.6.63-.76.5-.44-4-.52-4.36-.15-.63-.83-.58"/><path class="cls-1" d="M.38,57.58c.06.61.85.94,1.17,1.16s.17.36.17.36S.53,58.54.41,58.21s-.2-.73-.2-.73Z"/><path class="cls-1" d="M2.18,52.57a1.41,1.41,0,0,0-1.38.59,18.29,18.29,0,0,0-.66,3.08c-.06.7-.2.91-.11,1.16s.6.63.76.5.43-4,.52-4.36.15-.63.83-.58"/><path class="cls-2" d="M8.54,59.41c0-.11,0-.22,0-.34.07-2-.35-5.9-1-6.78-1-1.48-4.08-1.36-5.17-.43s-1.5,5-1,7.29a2.46,2.46,0,0,0,.07.29A15.74,15.74,0,0,0,8.54,59.41Z"/><path class="cls-1" d="M1.74,60v0c.68,1.43,6.24,1,6.68,0,0,0,0-.09,0-.14A16,16,0,0,1,1.74,60Z"/><path class="cls-1" d="M8.47,59.93a1.18,1.18,0,0,0,0-.2c0-.1,0-.2,0-.32a15.74,15.74,0,0,1-7,0,2.81,2.81,0,0,0,.1.31c0,.09.07.17.1.24A16,16,0,0,0,8.47,59.93Z"/><path class="cls-1" d="M2.81,58.68A1.93,1.93,0,0,1,3.27,56a5.56,5.56,0,0,1,3.56.14,2.29,2.29,0,0,1,.42,2.37C6.81,59.19,3.27,59.14,2.81,58.68Z"/><path class="cls-2" d="M3.1,58.25A1.66,1.66,0,0,1,3.5,56a4.75,4.75,0,0,1,3.07.12,2,2,0,0,1,.37,2C6.55,58.69,3.5,58.65,3.1,58.25Z"/><path class="cls-1" d="M3.44,54.67a1.35,1.35,0,0,1,.32-1.84,3.66,3.66,0,0,1,2.4.1,2.19,2.19,0,0,1,.38,1.75A6,6,0,0,1,3.44,54.67Z"/><path class="cls-2" d="M3.64,54.39a1.16,1.16,0,0,1,.27-1.59A3.22,3.22,0,0,1,6,52.88a1.92,1.92,0,0,1,.34,1.52A5.12,5.12,0,0,1,3.64,54.39Z"/><rect class="cls-1" x="4.19" y="53.23" width="1.45" height="0.63" rx="0.32"/><path class="cls-1" d="M16.38,51.23s0-.33.22-.38a9.46,9.46,0,0,1,1.31,0c.1,0,.23.44.23.44H17.7s0-.29-.16-.32a4.44,4.44,0,0,0-.82,0c-.07,0,0,.32,0,.32Z"/><path class="cls-1" d="M21.58,57.54a1.1,1.1,0,0,1-.65,1c-.33.21-.15.36-.15.36s.72-.39.81-.74a6.39,6.39,0,0,0,.16-.76Z"/><path class="cls-1" d="M19.83,52.57c.41-.06,1.18.11,1.37.59a17.33,17.33,0,0,1,.67,3.08c.06.7.2.91.11,1.16s-.6.63-.76.5-.43-4-.52-4.36-.15-.63-.83-.58"/><path class="cls-1" d="M12.75,57.58c.06.61.85.94,1.17,1.16s.17.36.17.36-1.19-.56-1.3-.89a5.89,5.89,0,0,1-.2-.73Z"/><path class="cls-1" d="M14.55,52.57c-.41-.06-1.18.11-1.37.59a17.33,17.33,0,0,0-.67,3.08c-.06.7-.2.91-.11,1.16s.6.63.76.5.44-4,.52-4.36.15-.63.83-.58"/><path class="cls-2" d="M20.91,59.41c0-.11,0-.22,0-.34.07-2-.34-5.9-1-6.78-1-1.48-4.08-1.36-5.17-.43s-1.5,5-1,7.29c0,.1.05.2.07.29A15.74,15.74,0,0,0,20.91,59.41Z"/><path class="cls-1" d="M14.11,60v0c.68,1.43,6.24,1,6.68,0,0,0,0-.09,0-.14A16,16,0,0,1,14.11,60Z"/><path class="cls-1" d="M20.84,59.93a1.18,1.18,0,0,0,0-.2,2.91,2.91,0,0,0,0-.32,15.74,15.74,0,0,1-7,0c0,.11.07.21.1.31s.07.17.1.24A16,16,0,0,0,20.84,59.93Z"/><path class="cls-1" d="M15.18,58.68A1.94,1.94,0,0,1,15.64,56a5.56,5.56,0,0,1,3.56.14,2.29,2.29,0,0,1,.42,2.37C19.18,59.19,15.65,59.14,15.18,58.68Z"/><path class="cls-2" d="M15.47,58.25a1.67,1.67,0,0,1,.4-2.3,4.75,4.75,0,0,1,3.07.12,2,2,0,0,1,.37,2C18.93,58.69,15.87,58.65,15.47,58.25Z"/><path class="cls-1" d="M15.81,54.67a1.35,1.35,0,0,1,.32-1.84,3.66,3.66,0,0,1,2.4.1,2.19,2.19,0,0,1,.38,1.75A6,6,0,0,1,15.81,54.67Z"/><path class="cls-2" d="M16,54.39a1.17,1.17,0,0,1,.27-1.59,3.22,3.22,0,0,1,2.08.08,1.92,1.92,0,0,1,.34,1.52A5.12,5.12,0,0,1,16,54.39Z"/><rect class="cls-1" x="16.57" y="53.23" width="1.45" height="0.63" rx="0.32"/><path class="cls-1" d="M29.29,51.23s0-.33.23-.38a9.47,9.47,0,0,1,1.31,0c.1,0,.22.44.22.44h-.44s.05-.29-.15-.32a4.43,4.43,0,0,0-.82,0c-.08,0,0,.32,0,.32Z"/><path class="cls-1" d="M34.49,57.54a1.08,1.08,0,0,1-.64,1c-.34.21-.15.36-.15.36s.71-.39.81-.74.16-.76.16-.76Z"/><path class="cls-1" d="M32.75,52.57c.41-.06,1.18.11,1.37.59a19.29,19.29,0,0,1,.67,3.08c.05.7.2.91.11,1.16s-.6.63-.77.5-.43-4-.52-4.36-.14-.63-.82-.58"/><path class="cls-1" d="M25.66,57.58c.07.61.86.94,1.18,1.16s.16.36.16.36-1.18-.56-1.3-.89-.2-.73-.2-.73Z"/><path class="cls-1" d="M27.47,52.57a1.41,1.41,0,0,0-1.38.59,19.29,19.29,0,0,0-.67,3.08c-.05.7-.19.91-.1,1.16s.59.63.76.5.43-4,.52-4.36.15-.63.82-.58"/><path class="cls-2" d="M33.83,59.41c0-.11,0-.22,0-.34.07-2-.35-5.9-1-6.78-1-1.48-4.09-1.36-5.18-.43s-1.49,5-1,7.29c0,.1.05.2.08.29A15.74,15.74,0,0,0,33.83,59.41Z"/><path class="cls-1" d="M27,60v0c.68,1.43,6.24,1,6.67,0a.58.58,0,0,0,0-.14A16,16,0,0,1,27,60Z"/><path class="cls-1" d="M33.76,59.93c0-.06,0-.13,0-.2s0-.2,0-.32a15.74,15.74,0,0,1-7,0,2.81,2.81,0,0,0,.1.31A1.33,1.33,0,0,0,27,60,16,16,0,0,0,33.76,59.93Z"/><path class="cls-1" d="M28.09,58.68A1.94,1.94,0,0,1,28.56,56a5.56,5.56,0,0,1,3.56.14,2.29,2.29,0,0,1,.42,2.37C32.1,59.19,28.56,59.14,28.09,58.68Z"/><path class="cls-2" d="M28.39,58.25a1.66,1.66,0,0,1,.4-2.3,4.75,4.75,0,0,1,3.07.12,2,2,0,0,1,.36,2C31.84,58.69,28.79,58.65,28.39,58.25Z"/><path class="cls-1" d="M28.73,54.67A1.36,1.36,0,0,1,29,52.83a3.69,3.69,0,0,1,2.41.1,2.19,2.19,0,0,1,.38,1.75A6,6,0,0,1,28.73,54.67Z"/><path class="cls-2" d="M28.92,54.39a1.17,1.17,0,0,1,.28-1.59,3.22,3.22,0,0,1,2.08.08,1.87,1.87,0,0,1,.33,1.52A5.11,5.11,0,0,1,28.92,54.39Z"/><rect class="cls-1" x="29.48" y="53.23" width="1.45" height="0.63" rx="0.32"/><path class="cls-1" d="M41.66,51.23s0-.33.23-.38a9.47,9.47,0,0,1,1.31,0c.1,0,.23.44.23.44H43s0-.29-.16-.32A4.44,4.44,0,0,0,42,51c-.07,0,0,.32,0,.32Z"/><path class="cls-1" d="M46.87,57.54a1.1,1.1,0,0,1-.65,1c-.34.21-.15.36-.15.36s.71-.39.81-.74.16-.76.16-.76Z"/><path class="cls-1" d="M45.12,52.57c.41-.06,1.18.11,1.37.59a17.33,17.33,0,0,1,.67,3.08c.06.7.2.91.11,1.16s-.6.63-.76.5-.44-4-.52-4.36-.15-.63-.83-.58"/><path class="cls-1" d="M38,57.58c.06.61.85.94,1.17,1.16s.17.36.17.36-1.19-.56-1.31-.89-.2-.73-.2-.73Z"/><path class="cls-1" d="M39.84,52.57a1.41,1.41,0,0,0-1.38.59,18.29,18.29,0,0,0-.66,3.08c-.06.7-.2.91-.11,1.16s.6.63.76.5.43-4,.52-4.36.15-.63.82-.58"/><path class="cls-2" d="M46.2,59.41c0-.11,0-.22,0-.34.07-2-.35-5.9-1-6.78-1-1.48-4.08-1.36-5.18-.43s-1.49,5-.95,7.29a2.46,2.46,0,0,0,.07.29A15.74,15.74,0,0,0,46.2,59.41Z"/><path class="cls-1" d="M39.4,60v0c.68,1.43,6.24,1,6.68,0,0,0,0-.09,0-.14A16,16,0,0,1,39.4,60Z"/><path class="cls-1" d="M46.13,59.93a1.18,1.18,0,0,0,0-.2c0-.1,0-.2,0-.32a15.74,15.74,0,0,1-7,0,2.81,2.81,0,0,0,.1.31,1.33,1.33,0,0,0,.1.24A16,16,0,0,0,46.13,59.93Z"/><path class="cls-1" d="M40.47,58.68A1.93,1.93,0,0,1,40.93,56a5.56,5.56,0,0,1,3.56.14,2.29,2.29,0,0,1,.42,2.37C44.47,59.19,40.93,59.14,40.47,58.68Z"/><path class="cls-2" d="M40.76,58.25a1.66,1.66,0,0,1,.4-2.3,4.75,4.75,0,0,1,3.07.12,2,2,0,0,1,.36,2C44.21,58.69,41.16,58.65,40.76,58.25Z"/><path class="cls-1" d="M41.1,54.67a1.36,1.36,0,0,1,.31-1.84,3.69,3.69,0,0,1,2.41.1,2.19,2.19,0,0,1,.38,1.75A6,6,0,0,1,41.1,54.67Z"/><path class="cls-2" d="M41.3,54.39a1.16,1.16,0,0,1,.27-1.59,3.22,3.22,0,0,1,2.08.08A1.92,1.92,0,0,1,44,54.4,5.12,5.12,0,0,1,41.3,54.39Z"/><rect class="cls-1" x="41.85" y="53.23" width="1.45" height="0.63" rx="0.32"/><path class="cls-1" d="M54.38,51.23s0-.33.23-.38a9.46,9.46,0,0,1,1.31,0c.1,0,.23.44.23.44h-.44s0-.29-.16-.32a4.44,4.44,0,0,0-.82,0c-.07,0,0,.32,0,.32Z"/><path class="cls-1" d="M59.59,57.54a1.1,1.1,0,0,1-.65,1c-.33.21-.15.36-.15.36s.71-.39.81-.74a6.39,6.39,0,0,0,.16-.76Z"/><path class="cls-1" d="M57.84,52.57c.41-.06,1.18.11,1.37.59a17.33,17.33,0,0,1,.67,3.08c.06.7.2.91.11,1.16s-.6.63-.76.5-.44-4-.52-4.36-.15-.63-.83-.58"/><path class="cls-1" d="M50.76,57.58c.06.61.85.94,1.17,1.16s.17.36.17.36-1.19-.56-1.3-.89a5.89,5.89,0,0,1-.2-.73Z"/><path class="cls-1" d="M52.56,52.57c-.41-.06-1.18.11-1.37.59a17.33,17.33,0,0,0-.67,3.08c-.06.7-.2.91-.11,1.16s.6.63.76.5.44-4,.52-4.36.15-.63.83-.58"/><path class="cls-2" d="M58.92,59.41c0-.11,0-.22,0-.34.07-2-.34-5.9-1-6.78-1-1.48-4.08-1.36-5.17-.43s-1.5,5-1,7.29a2.46,2.46,0,0,0,.07.29A15.74,15.74,0,0,0,58.92,59.41Z"/><path class="cls-1" d="M52.12,60v0c.68,1.43,6.24,1,6.68,0,0,0,0-.09,0-.14A16,16,0,0,1,52.12,60Z"/><path class="cls-1" d="M58.85,59.93a1.18,1.18,0,0,0,0-.2c0-.1,0-.2,0-.32a15.74,15.74,0,0,1-7,0,2.81,2.81,0,0,0,.1.31c0,.09.07.17.1.24A16,16,0,0,0,58.85,59.93Z"/><path class="cls-1" d="M53.19,58.68A1.93,1.93,0,0,1,53.65,56a5.56,5.56,0,0,1,3.56.14,2.29,2.29,0,0,1,.42,2.37C57.19,59.19,53.65,59.14,53.19,58.68Z"/><path class="cls-2" d="M53.48,58.25a1.67,1.67,0,0,1,.4-2.3,4.75,4.75,0,0,1,3.07.12,2,2,0,0,1,.37,2C56.94,58.69,53.88,58.65,53.48,58.25Z"/><path class="cls-1" d="M53.82,54.67a1.35,1.35,0,0,1,.32-1.84,3.66,3.66,0,0,1,2.4.1,2.19,2.19,0,0,1,.38,1.75A6,6,0,0,1,53.82,54.67Z"/><path class="cls-2" d="M54,54.39a1.16,1.16,0,0,1,.27-1.59,3.22,3.22,0,0,1,2.08.08,1.92,1.92,0,0,1,.34,1.52A5.12,5.12,0,0,1,54,54.39Z"/><rect class="cls-1" x="54.58" y="53.23" width="1.45" height="0.63" rx="0.32"/><path class="cls-1" d="M67.64,51.23s0-.33.23-.38a9.47,9.47,0,0,1,1.31,0c.1,0,.23.44.23.44H69s0-.29-.16-.32A4.44,4.44,0,0,0,68,51c-.07,0,0,.32,0,.32Z"/><path class="cls-1" d="M72.85,57.54a1.1,1.1,0,0,1-.65,1c-.34.21-.15.36-.15.36s.71-.39.81-.74.16-.76.16-.76Z"/><path class="cls-1" d="M71.1,52.57c.41-.06,1.18.11,1.37.59a17.33,17.33,0,0,1,.67,3.08c.06.7.2.91.11,1.16s-.6.63-.76.5-.44-4-.52-4.36-.15-.63-.83-.58"/><path class="cls-1" d="M64,57.58c.06.61.85.94,1.17,1.16s.17.36.17.36-1.19-.56-1.31-.89-.2-.73-.2-.73Z"/><path class="cls-1" d="M65.82,52.57a1.41,1.41,0,0,0-1.38.59,18.29,18.29,0,0,0-.66,3.08c-.06.7-.2.91-.11,1.16s.6.63.76.5.43-4,.52-4.36.15-.63.82-.58"/><path class="cls-2" d="M72.18,59.41c0-.11,0-.22,0-.34.07-2-.35-5.9-1-6.78-1-1.48-4.08-1.36-5.18-.43s-1.49,5-1,7.29a2.46,2.46,0,0,0,.07.29A15.74,15.74,0,0,0,72.18,59.41Z"/><path class="cls-1" d="M65.38,60v0c.68,1.43,6.24,1,6.68,0,0,0,0-.09,0-.14A16,16,0,0,1,65.38,60Z"/><path class="cls-1" d="M72.11,59.93a1.18,1.18,0,0,0,0-.2c0-.1,0-.2,0-.32a15.74,15.74,0,0,1-7,0,2.81,2.81,0,0,0,.1.31,1.33,1.33,0,0,0,.1.24A16,16,0,0,0,72.11,59.93Z"/><path class="cls-1" d="M66.45,58.68A1.93,1.93,0,0,1,66.91,56a5.56,5.56,0,0,1,3.56.14,2.29,2.29,0,0,1,.42,2.37C70.45,59.19,66.91,59.14,66.45,58.68Z"/><path class="cls-2" d="M66.74,58.25a1.66,1.66,0,0,1,.4-2.3,4.75,4.75,0,0,1,3.07.12,2,2,0,0,1,.36,2C70.19,58.69,67.14,58.65,66.74,58.25Z"/><path class="cls-1" d="M67.08,54.67a1.36,1.36,0,0,1,.31-1.84,3.69,3.69,0,0,1,2.41.1,2.19,2.19,0,0,1,.38,1.75A6,6,0,0,1,67.08,54.67Z"/><path class="cls-2" d="M67.28,54.39a1.16,1.16,0,0,1,.27-1.59,3.22,3.22,0,0,1,2.08.08A1.87,1.87,0,0,1,70,54.4,5.08,5.08,0,0,1,67.28,54.39Z"/><rect class="cls-1" x="67.83" y="53.23" width="1.45" height="0.63" rx="0.32"/><path class="cls-1" d="M80,51.23s0-.33.23-.38a9.46,9.46,0,0,1,1.31,0c.1,0,.23.44.23.44h-.44s0-.29-.16-.32a4.44,4.44,0,0,0-.82,0c-.07,0,0,.32,0,.32Z"/><path class="cls-1" d="M85.22,57.54a1.1,1.1,0,0,1-.65,1c-.33.21-.15.36-.15.36s.71-.39.81-.74a6.39,6.39,0,0,0,.16-.76Z"/><path class="cls-1" d="M83.47,52.57c.41-.06,1.18.11,1.37.59a17.33,17.33,0,0,1,.67,3.08c.06.7.2.91.11,1.16s-.6.63-.76.5-.44-4-.52-4.36-.15-.63-.83-.58"/><path class="cls-1" d="M76.39,57.58c.06.61.85.94,1.17,1.16s.17.36.17.36-1.19-.56-1.3-.89a5.89,5.89,0,0,1-.2-.73Z"/><path class="cls-1" d="M78.19,52.57c-.41-.06-1.18.11-1.37.59a17.33,17.33,0,0,0-.67,3.08c-.06.7-.2.91-.11,1.16s.6.63.76.5.44-4,.52-4.36.15-.63.83-.58"/><path class="cls-2" d="M84.55,59.41c0-.11,0-.22,0-.34.07-2-.34-5.9-1-6.78-1-1.48-4.08-1.36-5.17-.43s-1.5,5-1,7.29a2.46,2.46,0,0,0,.07.29A15.74,15.74,0,0,0,84.55,59.41Z"/><path class="cls-1" d="M77.75,60v0c.68,1.43,6.24,1,6.68,0,0,0,0-.09,0-.14A16,16,0,0,1,77.75,60Z"/><path class="cls-1" d="M84.48,59.93a1.18,1.18,0,0,0,0-.2,2.91,2.91,0,0,0,0-.32,15.74,15.74,0,0,1-7,0c0,.11.07.21.1.31s.07.17.1.24A16,16,0,0,0,84.48,59.93Z"/><path class="cls-1" d="M78.82,58.68A1.93,1.93,0,0,1,79.28,56a5.56,5.56,0,0,1,3.56.14,2.29,2.29,0,0,1,.42,2.37C82.82,59.19,79.29,59.14,78.82,58.68Z"/><path class="cls-2" d="M79.11,58.25a1.67,1.67,0,0,1,.4-2.3,4.75,4.75,0,0,1,3.07.12,2,2,0,0,1,.37,2C82.57,58.69,79.51,58.65,79.11,58.25Z"/><path class="cls-1" d="M79.45,54.67a1.35,1.35,0,0,1,.32-1.84,3.66,3.66,0,0,1,2.4.1,2.19,2.19,0,0,1,.38,1.75A6,6,0,0,1,79.45,54.67Z"/><path class="cls-2" d="M79.65,54.39a1.16,1.16,0,0,1,.27-1.59,3.22,3.22,0,0,1,2.08.08,1.92,1.92,0,0,1,.34,1.52A5.12,5.12,0,0,1,79.65,54.39Z"/><rect class="cls-1" x="80.21" y="53.23" width="1.45" height="0.63" rx="0.32"/><path class="cls-1" d="M92.93,51.23s0-.33.23-.38a9.32,9.32,0,0,1,1.3,0c.11,0,.23.44.23.44h-.44s0-.29-.15-.32a4.43,4.43,0,0,0-.82,0c-.08,0,0,.32,0,.32Z"/><path class="cls-1" d="M98.13,57.54a1.08,1.08,0,0,1-.64,1c-.34.21-.15.36-.15.36s.71-.39.81-.74.15-.76.15-.76Z"/><path class="cls-1" d="M96.39,52.57c.41-.06,1.18.11,1.37.59a19.29,19.29,0,0,1,.67,3.08c0,.7.2.91.11,1.16s-.6.63-.77.5-.43-4-.52-4.36-.14-.63-.82-.58"/><path class="cls-1" d="M89.3,57.58c.07.61.85.94,1.18,1.16s.16.36.16.36-1.19-.56-1.3-.89-.2-.73-.2-.73Z"/><path class="cls-1" d="M91.11,52.57c-.41-.06-1.19.11-1.38.59a19.29,19.29,0,0,0-.67,3.08c0,.7-.19.91-.1,1.16s.59.63.76.5.43-4,.52-4.36.15-.63.82-.58"/><path class="cls-2" d="M97.47,59.41c0-.11,0-.22,0-.34.06-2-.35-5.9-1-6.78-1-1.48-4.09-1.36-5.18-.43s-1.49,5-1,7.29c0,.1,0,.2.08.29A15.74,15.74,0,0,0,97.47,59.41Z"/><path class="cls-1" d="M90.67,60v0c.68,1.43,6.24,1,6.67,0a.58.58,0,0,0,.05-.14A16,16,0,0,1,90.67,60Z"/><path class="cls-1" d="M97.4,59.93c0-.06,0-.13,0-.2s0-.2,0-.32a15.74,15.74,0,0,1-7,0,2.81,2.81,0,0,0,.1.31,1.33,1.33,0,0,0,.1.24A16,16,0,0,0,97.4,59.93Z"/><path class="cls-1" d="M91.73,58.68A1.94,1.94,0,0,1,92.2,56a5.56,5.56,0,0,1,3.56.14,2.29,2.29,0,0,1,.42,2.37C95.74,59.19,92.2,59.14,91.73,58.68Z"/><path class="cls-2" d="M92,58.25a1.66,1.66,0,0,1,.4-2.3,4.75,4.75,0,0,1,3.07.12,2,2,0,0,1,.36,2C95.48,58.69,92.43,58.65,92,58.25Z"/><path class="cls-1" d="M92.37,54.67a1.35,1.35,0,0,1,.31-1.84,3.69,3.69,0,0,1,2.41.1,2.19,2.19,0,0,1,.38,1.75A6,6,0,0,1,92.37,54.67Z"/><path class="cls-2" d="M92.56,54.39a1.17,1.17,0,0,1,.28-1.59,3.22,3.22,0,0,1,2.08.08,1.87,1.87,0,0,1,.33,1.52A5.11,5.11,0,0,1,92.56,54.39Z"/><rect class="cls-1" x="93.12" y="53.23" width="1.45" height="0.63" rx="0.32"/><path class="cls-1" d="M105.3,51.23s0-.33.23-.38a9.47,9.47,0,0,1,1.31,0c.1,0,.23.44.23.44h-.45s0-.29-.15-.32a4.43,4.43,0,0,0-.82,0c-.07,0,0,.32,0,.32Z"/><path class="cls-1" d="M110.51,57.54a1.1,1.1,0,0,1-.65,1c-.34.21-.15.36-.15.36s.71-.39.81-.74.16-.76.16-.76Z"/><path class="cls-1" d="M108.76,52.57c.41-.06,1.18.11,1.37.59a19.29,19.29,0,0,1,.67,3.08c.06.7.2.91.11,1.16s-.6.63-.76.5-.44-4-.53-4.36-.14-.63-.82-.58"/><path class="cls-1" d="M101.68,57.58c.06.61.85.94,1.17,1.16s.16.36.16.36-1.18-.56-1.3-.89-.2-.73-.2-.73Z"/><path class="cls-1" d="M103.48,52.57a1.41,1.41,0,0,0-1.38.59,18.29,18.29,0,0,0-.66,3.08c-.06.7-.2.91-.11,1.16s.6.63.76.5.43-4,.52-4.36.15-.63.82-.58"/><path class="cls-2" d="M109.84,59.41c0-.11,0-.22,0-.34.07-2-.35-5.9-1-6.78-1-1.48-4.08-1.36-5.18-.43s-1.49,5-1,7.29a2.46,2.46,0,0,0,.07.29A15.74,15.74,0,0,0,109.84,59.41Z"/><path class="cls-1" d="M103,60v0c.68,1.43,6.24,1,6.68,0,0,0,0-.09,0-.14A16,16,0,0,1,103,60Z"/><path class="cls-1" d="M109.77,59.93c0-.06,0-.13,0-.2s0-.2,0-.32a15.74,15.74,0,0,1-7,0,2.81,2.81,0,0,0,.1.31,1.33,1.33,0,0,0,.1.24A16,16,0,0,0,109.77,59.93Z"/><path class="cls-1" d="M104.11,58.68a1.93,1.93,0,0,1,.46-2.67,5.56,5.56,0,0,1,3.56.14,2.29,2.29,0,0,1,.42,2.37C108.11,59.19,104.57,59.14,104.11,58.68Z"/><path class="cls-2" d="M104.4,58.25a1.66,1.66,0,0,1,.4-2.3,4.75,4.75,0,0,1,3.07.12,2,2,0,0,1,.36,2C107.85,58.69,104.8,58.65,104.4,58.25Z"/><path class="cls-1" d="M104.74,54.67a1.36,1.36,0,0,1,.31-1.84,3.69,3.69,0,0,1,2.41.1,2.19,2.19,0,0,1,.38,1.75A6,6,0,0,1,104.74,54.67Z"/><path class="cls-2" d="M104.94,54.39a1.16,1.16,0,0,1,.27-1.59,3.22,3.22,0,0,1,2.08.08,1.87,1.87,0,0,1,.33,1.52A5.08,5.08,0,0,1,104.94,54.39Z"/><rect class="cls-1" x="105.49" y="53.23" width="1.45" height="0.63" rx="0.32"/><path class="cls-1" d="M118,51.23s0-.33.23-.38a9.46,9.46,0,0,1,1.31,0c.1,0,.23.44.23.44h-.44s0-.29-.16-.32a4.44,4.44,0,0,0-.82,0c-.07,0,0,.32,0,.32Z"/><path class="cls-1" d="M123.23,57.54a1.1,1.1,0,0,1-.65,1c-.33.21-.15.36-.15.36s.71-.39.81-.74.16-.76.16-.76Z"/><path class="cls-1" d="M121.48,52.57c.41-.06,1.18.11,1.37.59a17.33,17.33,0,0,1,.67,3.08c.06.7.2.91.11,1.16s-.6.63-.76.5-.44-4-.52-4.36-.15-.63-.83-.58"/><path class="cls-1" d="M114.4,57.58c.06.61.85.94,1.17,1.16s.17.36.17.36-1.19-.56-1.31-.89-.2-.73-.2-.73Z"/><path class="cls-1" d="M116.2,52.57c-.41-.06-1.18.11-1.37.59a17.33,17.33,0,0,0-.67,3.08c-.06.7-.2.91-.11,1.16s.6.63.76.5.43-4,.52-4.36.15-.63.83-.58"/><path class="cls-2" d="M122.56,59.41c0-.11,0-.22,0-.34.07-2-.35-5.9-1-6.78-1-1.48-4.08-1.36-5.17-.43s-1.5,5-1,7.29a2.46,2.46,0,0,0,.07.29A15.74,15.74,0,0,0,122.56,59.41Z"/><path class="cls-1" d="M115.76,60v0c.68,1.43,6.24,1,6.68,0,0,0,0-.09,0-.14A16,16,0,0,1,115.76,60Z"/><path class="cls-1" d="M122.49,59.93a1.18,1.18,0,0,0,0-.2c0-.1,0-.2,0-.32a15.74,15.74,0,0,1-7,0,2.81,2.81,0,0,0,.1.31c0,.09.07.17.1.24A16,16,0,0,0,122.49,59.93Z"/><path class="cls-1" d="M116.83,58.68a1.93,1.93,0,0,1,.46-2.67,5.56,5.56,0,0,1,3.56.14,2.29,2.29,0,0,1,.42,2.37C120.83,59.19,117.29,59.14,116.83,58.68Z"/><path class="cls-2" d="M117.12,58.25a1.66,1.66,0,0,1,.4-2.3,4.75,4.75,0,0,1,3.07.12,2,2,0,0,1,.37,2C120.57,58.69,117.52,58.65,117.12,58.25Z"/><path class="cls-1" d="M117.46,54.67a1.35,1.35,0,0,1,.32-1.84,3.66,3.66,0,0,1,2.4.1,2.19,2.19,0,0,1,.38,1.75A6,6,0,0,1,117.46,54.67Z"/><path class="cls-2" d="M117.66,54.39a1.16,1.16,0,0,1,.27-1.59,3.22,3.22,0,0,1,2.08.08,1.92,1.92,0,0,1,.34,1.52A5.12,5.12,0,0,1,117.66,54.39Z"/><rect class="cls-1" x="118.21" y="53.23" width="1.45" height="0.63" rx="0.32"/><path class="cls-1" d="M118,25.82s0-.33.23-.38a9.46,9.46,0,0,1,1.31,0c.1,0,.23.43.23.43h-.44s0-.29-.16-.32a3.62,3.62,0,0,0-.82,0c-.07,0,0,.31,0,.31Z"/><path class="cls-1" d="M123.23,32.13a1.07,1.07,0,0,1-.65,1c-.33.22-.15.37-.15.37s.71-.4.81-.74.16-.76.16-.76Z"/><path class="cls-1" d="M121.48,27.16c.41-.06,1.18.1,1.37.59a17.21,17.21,0,0,1,.67,3.07c.06.7.2.91.11,1.17s-.6.63-.76.49-.44-4-.52-4.35-.15-.64-.83-.58"/><path class="cls-1" d="M114.4,32.17c.06.6.85.93,1.17,1.16s.17.35.17.35-1.19-.56-1.31-.89-.2-.72-.2-.72Z"/><path class="cls-1" d="M116.2,27.16c-.41-.06-1.18.1-1.37.59a17.21,17.21,0,0,0-.67,3.07c-.06.7-.2.91-.11,1.17s.6.63.76.49.43-4,.52-4.35.15-.64.83-.58"/><path class="cls-2" d="M122.56,34c0-.1,0-.22,0-.34.07-2-.35-5.89-1-6.77-1-1.48-4.08-1.36-5.17-.44s-1.5,5-1,7.3a2.46,2.46,0,0,0,.07.29A15.74,15.74,0,0,0,122.56,34Z"/><path class="cls-1" d="M115.76,34.58v0c.68,1.43,6.24,1,6.68,0a1.55,1.55,0,0,0,0-.15A16,16,0,0,1,115.76,34.58Z"/><path class="cls-1" d="M122.49,34.51a.9.9,0,0,0,0-.19q0-.15,0-.33a15.74,15.74,0,0,1-7,0,2.81,2.81,0,0,0,.1.31l.1.24A16,16,0,0,0,122.49,34.51Z"/><path class="cls-1" d="M116.83,33.26a1.92,1.92,0,0,1,.46-2.66,5.5,5.5,0,0,1,3.56.14,2.29,2.29,0,0,1,.42,2.37C120.83,33.77,117.29,33.73,116.83,33.26Z"/><path class="cls-2" d="M117.12,32.84a1.68,1.68,0,0,1,.4-2.31,4.75,4.75,0,0,1,3.07.13,2,2,0,0,1,.37,2C120.57,33.28,117.52,33.24,117.12,32.84Z"/><path class="cls-1" d="M117.46,29.25a1.34,1.34,0,0,1,.32-1.83,3.66,3.66,0,0,1,2.4.1,2.16,2.16,0,0,1,.38,1.74A5.82,5.82,0,0,1,117.46,29.25Z"/><path class="cls-2" d="M117.66,29a1.16,1.16,0,0,1,.27-1.59,3.16,3.16,0,0,1,2.08.08,1.9,1.9,0,0,1,.34,1.52A5.22,5.22,0,0,1,117.66,29Z"/><rect class="cls-1" x="118.21" y="27.82" width="1.45" height="0.63" rx="0.32"/><path class="cls-1" d="M118,12.49s0-.33.23-.38a9.46,9.46,0,0,1,1.31,0c.1,0,.23.44.23.44h-.44s0-.29-.16-.32a3.7,3.7,0,0,0-.82,0c-.07,0,0,.32,0,.32Z"/><path class="cls-1" d="M123.23,18.8a1.1,1.1,0,0,1-.65,1c-.33.21-.15.36-.15.36s.71-.4.81-.74.16-.76.16-.76Z"/><path class="cls-1" d="M121.48,13.83c.41-.06,1.18.11,1.37.59a17.33,17.33,0,0,1,.67,3.08c.06.7.2.91.11,1.16s-.6.63-.76.5-.44-4-.52-4.36-.15-.64-.83-.58"/><path class="cls-1" d="M114.4,18.84c.06.61.85.94,1.17,1.16s.17.36.17.36-1.19-.57-1.31-.89-.2-.73-.2-.73Z"/><path class="cls-1" d="M116.2,13.83c-.41-.06-1.18.11-1.37.59a17.33,17.33,0,0,0-.67,3.08c-.06.7-.2.91-.11,1.16s.6.63.76.5.43-4,.52-4.36.15-.64.83-.58"/><path class="cls-2" d="M122.56,20.67c0-.11,0-.22,0-.35.07-2-.35-5.89-1-6.77-1-1.48-4.08-1.36-5.17-.43s-1.5,5-1,7.29a2.46,2.46,0,0,0,.07.29A15.74,15.74,0,0,0,122.56,20.67Z"/><path class="cls-1" d="M115.76,21.25v0c.68,1.43,6.24,1,6.68,0,0,0,0-.09,0-.14A16,16,0,0,1,115.76,21.25Z"/><path class="cls-1" d="M122.49,21.19a1.18,1.18,0,0,0,0-.2c0-.1,0-.2,0-.32a15.74,15.74,0,0,1-7,0,2.81,2.81,0,0,0,.1.31c0,.09.07.17.1.24A16,16,0,0,0,122.49,21.19Z"/><path class="cls-1" d="M116.83,19.93a1.92,1.92,0,0,1,.46-2.66,5.56,5.56,0,0,1,3.56.14,2.29,2.29,0,0,1,.42,2.37C120.83,20.45,117.29,20.4,116.83,19.93Z"/><path class="cls-2" d="M117.12,19.51a1.66,1.66,0,0,1,.4-2.3,4.75,4.75,0,0,1,3.07.12,2,2,0,0,1,.37,2.05C120.57,20,117.52,19.91,117.12,19.51Z"/><path class="cls-1" d="M117.46,15.93a1.35,1.35,0,0,1,.32-1.84,3.66,3.66,0,0,1,2.4.1,2.19,2.19,0,0,1,.38,1.75A6,6,0,0,1,117.46,15.93Z"/><path class="cls-2" d="M117.66,15.65a1.16,1.16,0,0,1,.27-1.59,3.22,3.22,0,0,1,2.08.08,1.91,1.91,0,0,1,.34,1.52A5.22,5.22,0,0,1,117.66,15.65Z"/><rect class="cls-1" x="118.21" y="14.49" width="1.45" height="0.63" rx="0.32"/><path class="cls-1" d="M118,.41s0-.33.23-.39a11.34,11.34,0,0,1,1.31,0c.1,0,.23.44.23.44h-.44s0-.29-.16-.32a3.62,3.62,0,0,0-.82,0c-.07,0,0,.31,0,.31Z"/><path class="cls-1" d="M123.23,6.71a1.09,1.09,0,0,1-.65,1c-.33.21-.15.37-.15.37s.71-.4.81-.74.16-.76.16-.76Z"/><path class="cls-1" d="M121.48,1.74c.41-.05,1.18.11,1.37.6a17,17,0,0,1,.67,3.07c.06.7.2.91.11,1.17s-.6.63-.76.49-.44-4-.52-4.36-.15-.63-.83-.58"/><path class="cls-1" d="M114.4,6.76c.06.6.85.93,1.17,1.16s.17.35.17.35-1.19-.56-1.31-.89-.2-.72-.2-.72Z"/><path class="cls-1" d="M116.2,1.74c-.41-.05-1.18.11-1.37.6a17,17,0,0,0-.67,3.07c-.06.7-.2.91-.11,1.17s.6.63.76.49.43-4,.52-4.36.15-.63.83-.58"/><path class="cls-2" d="M122.56,8.58c0-.1,0-.22,0-.34.07-2-.35-5.9-1-6.78C120.59,0,117.54.1,116.45,1s-1.5,5-1,7.3c0,.1,0,.19.07.29A15.89,15.89,0,0,0,122.56,8.58Z"/><path class="cls-1" d="M115.76,9.17v0c.68,1.44,6.24,1.06,6.68.05a.84.84,0,0,0,0-.14A16.21,16.21,0,0,1,115.76,9.17Z"/><path class="cls-1" d="M122.49,9.1a1,1,0,0,0,0-.2c0-.09,0-.2,0-.32a15.89,15.89,0,0,1-7,0,2.64,2.64,0,0,0,.1.3c0,.09.07.17.1.25A16.21,16.21,0,0,0,122.49,9.1Z"/><path class="cls-1" d="M116.83,7.85a1.93,1.93,0,0,1,.46-2.67,5.5,5.5,0,0,1,3.56.15,2.29,2.29,0,0,1,.42,2.37C120.83,8.36,117.29,8.32,116.83,7.85Z"/><path class="cls-2" d="M117.12,7.42a1.67,1.67,0,0,1,.4-2.3,4.81,4.81,0,0,1,3.07.12A2,2,0,0,1,121,7.29C120.57,7.86,117.52,7.83,117.12,7.42Z"/><path class="cls-1" d="M117.46,3.84A1.34,1.34,0,0,1,117.78,2a3.66,3.66,0,0,1,2.4.09,2.19,2.19,0,0,1,.38,1.75A5.93,5.93,0,0,1,117.46,3.84Z"/><path class="cls-2" d="M117.66,3.56A1.16,1.16,0,0,1,117.93,2a3.16,3.16,0,0,1,2.08.09,1.89,1.89,0,0,1,.34,1.51A5.12,5.12,0,0,1,117.66,3.56Z"/><rect class="cls-1" x="118.21" y="2.41" width="1.45" height="0.63" rx="0.32"/></g></g></svg>