<svg xmlns="http://www.w3.org/2000/svg" viewBox="0 0 636.13 669.27"><defs><style>.a33a9711-bbf1-42e0-b7aa-f2ac729e3a70{isolation:isolate;}.b78cac7a-a15c-400f-9082-9712553284ea{fill:#fff;}.a185d1e2-1bdf-48e5-b19f-4899effccb49{fill:#fce592;}.fc2aeb72-fc39-4661-a820-1961ca5e2ce9{fill:#e73952;}.bee2ce7e-5052-48df-8182-857a3644ae86{fill:#444;}.fa964dec-a93c-41de-afb6-423fa519fa75{fill:#195485;}.af8ac9c4-70c4-4076-a84e-938d4e2f3122{fill:#2ed096;}.e35f7679-e8f9-4d01-82bf-24923e328ef5{fill:#070707;}.e0e93b80-a014-49be-ba87-e9bcdcf45f47{fill:#208992;}.b624a0c5-0123-4078-943d-58418fd1c1cd,.b9e5f0a2-6f2a-4c76-b6e0-ea27cc51e6a9,.bc6d569d-f301-4c9b-bb7b-502dbdf807b4,.f2e5295e-81d2-44ea-8845-09649a663456,.f7b86e69-bb3c-4266-acbf-84b653f1f294{fill:#2932b8;}.b9e5f0a2-6f2a-4c76-b6e0-ea27cc51e6a9,.f70b62f8-8c91-49e3-85de-f1a9972a5a66{opacity:0.5;}.b9e5f0a2-6f2a-4c76-b6e0-ea27cc51e6a9,.bc6d569d-f301-4c9b-bb7b-502dbdf807b4,.ee7d885d-2de3-41e2-9fa9-4f4b7d45ff8a,.f0bc551b-7fa4-48b6-9827-5fad5b164b0f,.f2e5295e-81d2-44ea-8845-09649a663456,.f70b62f8-8c91-49e3-85de-f1a9972a5a66,.f7b86e69-bb3c-4266-acbf-84b653f1f294{mix-blend-mode:multiply;}.aa9d57da-9b8e-4e7c-a1ed-4fab3f2449db,.ad9863f1-a28a-483c-b6a1-647bde80c165,.b837fbee-eb74-4052-8239-9f2d8d9e7b11,.b8941f5a-4c1e-4d83-961a-a7ab7d89ed13,.b8dcbc31-c79f-49db-ae60-76e402a459dc,.efdb2ae5-6677-468b-9ee1-1ad97424f04e,.f1b00fae-6435-4d14-9ca4-90c6ec983944,.f70b62f8-8c91-49e3-85de-f1a9972a5a66{fill:none;}.ad9863f1-a28a-483c-b6a1-647bde80c165,.f70b62f8-8c91-49e3-85de-f1a9972a5a66{stroke:#2932b8;}.aa9d57da-9b8e-4e7c-a1ed-4fab3f2449db,.ad9863f1-a28a-483c-b6a1-647bde80c165,.b8dcbc31-c79f-49db-ae60-76e402a459dc,.efdb2ae5-6677-468b-9ee1-1ad97424f04e,.f70b62f8-8c91-49e3-85de-f1a9972a5a66{stroke-linecap:round;}.aa9d57da-9b8e-4e7c-a1ed-4fab3f2449db,.ad9863f1-a28a-483c-b6a1-647bde80c165,.b837fbee-eb74-4052-8239-9f2d8d9e7b11,.b8941f5a-4c1e-4d83-961a-a7ab7d89ed13,.b8dcbc31-c79f-49db-ae60-76e402a459dc,.efdb2ae5-6677-468b-9ee1-1ad97424f04e,.f0bc551b-7fa4-48b6-9827-5fad5b164b0f,.f1b00fae-6435-4d14-9ca4-90c6ec983944,.f70b62f8-8c91-49e3-85de-f1a9972a5a66{stroke-miterlimit:10;}.f70b62f8-8c91-49e3-85de-f1a9972a5a66{stroke-width:5.8px;}.b13d0169-9675-4585-8851-243a866bca00{fill:#4375ff;}.aa779f2c-f828-4fb3-9a8c-7da718aa0108{fill:#1e1d35;}.a112c2f8-3725-4eca-ac71-1f81426ed112,.ee7d885d-2de3-41e2-9fa9-4f4b7d45ff8a,.f0bc551b-7fa4-48b6-9827-5fad5b164b0f{fill:#ffe79b;}.aa9d57da-9b8e-4e7c-a1ed-4fab3f2449db,.b837fbee-eb74-4052-8239-9f2d8d9e7b11,.f0bc551b-7fa4-48b6-9827-5fad5b164b0f{stroke:#fff;}.b6d2c660-86ce-478c-8607-f90b5bdc48cc{fill:#ffb6af;}.f7b86e69-bb3c-4266-acbf-84b653f1f294{opacity:0.38;}.b2943054-5e2f-46fe-9f90-183e13ee786f{fill:#ededed;}.f2e5295e-81d2-44ea-8845-09649a663456{opacity:0.16;}.b8dcbc31-c79f-49db-ae60-76e402a459dc{stroke:#e73952;}.ad9863f1-a28a-483c-b6a1-647bde80c165,.b8dcbc31-c79f-49db-ae60-76e402a459dc,.efdb2ae5-6677-468b-9ee1-1ad97424f04e{stroke-width:5.05px;}.aa9d57da-9b8e-4e7c-a1ed-4fab3f2449db{stroke-width:2.53px;}.efdb2ae5-6677-468b-9ee1-1ad97424f04e{stroke:#2ed096;}.f1b00fae-6435-4d14-9ca4-90c6ec983944{stroke:#fce592;stroke-width:2px;}.b8941f5a-4c1e-4d83-961a-a7ab7d89ed13{stroke:#443530;}.b837fbee-eb74-4052-8239-9f2d8d9e7b11{stroke-width:0.93px;opacity:0.1;}.bc6d569d-f301-4c9b-bb7b-502dbdf807b4{opacity:0.2;}</style></defs><g class="a33a9711-bbf1-42e0-b7aa-f2ac729e3a70"><g id="b7b96eb5-f3f6-492d-8626-33f95ec25264" data-name="Layer 1"><path id="a8f9cd5d-149a-4153-b19b-d9f012159c3d" data-name="bg" class="b78cac7a-a15c-400f-9082-9712553284ea" d="M426.74,200.42c32.15,22.17,67.06,36,76.2,61.24,9.15,25.49-7.48,62.62-13.85,96.15C482.72,391.06,486.6,421,484.66,459c-1.94,37.68-9.7,83.68-35.47,111.39s-69.55,37.13-112.78,36c-43.22-.83-85.9-12.19-120.81-34.64-34.91-22.17-62.35-55.69-83.68-92.55C110.3,442.32,95.06,401.86,104.49,367c9.42-35.19,43.5-64.56,65.39-100.58,21.89-36.3,31.59-78.7,57.08-104.74,25.49-25.77,67.33-34.92,102.8-24.39S394.6,178.25,426.74,200.42Z"/><g id="b0fb8722-db72-48e1-88f0-662c6cdd1ba5" data-name="papers"><path class="b78cac7a-a15c-400f-9082-9712553284ea" d="M113.56,480.56c.23,15,3.35,55.76,16,63.74C108.49,556.07,85.89,574,85.89,574L73,515.64Z"/><path class="b78cac7a-a15c-400f-9082-9712553284ea" d="M548,208.68c-2.65,14.79-11.88,54.58-23.66,61,15.49,14,31.22,34.12,31.22,34.12l20.19-56.06Z"/></g><g id="a57e466d-2143-4c65-a9d3-c8435df4be2d" data-name="postits"><path class="a185d1e2-1bdf-48e5-b19f-4899effccb49" d="M446.43,334c-.83,6.14-4.56,22.51-12.6,24.41a285.9,285.9,0,0,1,25.11,16.93l10.46-22.53Z"/><path class="a185d1e2-1bdf-48e5-b19f-4899effccb49" d="M405.59,398.18c5.08,3.53,17.94,14.33,16,22.35a289.16,289.16,0,0,1,26.53-14.61l-15.26-19.59Z"/><path class="a185d1e2-1bdf-48e5-b19f-4899effccb49" d="M445.22,393.5c5.09,3.53,17.95,14.33,16,22.35a287.71,287.71,0,0,1,26.53-14.61l-15.27-19.59Z"/></g><path id="bd49a8ec-253c-4d18-8a53-88515c19b928" data-name="heart3" class="fc2aeb72-fc39-4661-a820-1961ca5e2ce9" d="M463.3,293.23s-14.23-38.24,0-47.53,24.18,12.45,24.18,12.45,12.32-3.22,18.5,5.79C520.92,285.73,463.3,293.23,463.3,293.23Z"/><g id="bba49df4-83ed-4214-ba8c-d213a9d1cd9b" data-name="backpack"><path class="bee2ce7e-5052-48df-8182-857a3644ae86" d="M354.38,565.6c-6,11.1-12.68,11.68-20.48,12.38s-5.91,5-5.91,5,16-.53,20.7-5.67a146.86,146.86,0,0,0,9.5-11.86Z"/><path class="fa964dec-a93c-41de-afb6-423fa519fa75" d="M361,446.77c8.09,3.57,21.08,15.68,20.77,27.39s-7.6,53.5-12.17,67.84-3.61,20.1-7.3,24-16.15,5.48-18.12.94,23.85-83.05,25.14-91.24c1.44-9.12,2.34-14.14-10.62-20.86"/><path class="af8ac9c4-70c4-4076-a84e-938d4e2f3122" d="M319.32,396.33c17.53-7.62,32.66,5.86,36.05,13.65s16.84,52.9,7.34,82.51-19.1,90.93-43.24,97.57-67-21-74.22-41-37.33-43.21-21-82S319.32,396.33,319.32,396.33Z"/><path class="e35f7679-e8f9-4d01-82bf-24923e328ef5" d="M315.74,404.07c6.49-2.83,20.88-5.23,25.57,2s5.09,29.44,3.74,37-7.89,35.09-9.35,38.82-3.93,23.78-3.93,23.78l-36.19-32.57Z"/><path class="af8ac9c4-70c4-4076-a84e-938d4e2f3122" d="M114.64,548.72c9.81-41.32,11.44-66,41-90.4s5-70.11,15.15-82.26,53.51-40.27,95.94-33.25,44.91,19.82,47.6,34.87,2.91,88.29,10,104.52,16,34.53-8.94,43.95S146.22,592.89,133.06,584,114.64,548.72,114.64,548.72Z"/><path class="e0e93b80-a014-49be-ba87-e9bcdcf45f47" d="M159.27,631.64c-22.84-7.87-49.69-54.06-44.56-83s162.49-59.14,179-50.3,48.45,70.62,25.72,92.09S182.11,639.51,159.27,631.64Z"/><path class="fa964dec-a93c-41de-afb6-423fa519fa75" d="M159.47,635.76c-20.58-6.48-44.14-46.42-39-71.82s148.43-54.56,163.25-47.12,42.73,60.93,21.74,80.1S180.05,642.25,159.47,635.76Z"/><path class="e0e93b80-a014-49be-ba87-e9bcdcf45f47" d="M141,494c-.39-4.46,8.18-34.44,15.85-41.64s29.66-15.23,47.39-20.63,47.81-10.77,55.1-4.67a28.59,28.59,0,0,1,9.27,28.39c-2.82,11.26-3.55,13.13-18.48,19.63s-96.79,31.31-102,28.18S141.41,498.47,141,494Z"/><path class="e0e93b80-a014-49be-ba87-e9bcdcf45f47" d="M180.77,392.58c-.26-2.89,5.29-22.3,10.26-27s19.21-9.86,30.69-13.36,31-7,35.68-3a18.5,18.5,0,0,1,6,18.39c-1.83,7.29-2.3,8.5-12,12.71s-62.67,20.27-66.06,18.25S181,395.47,180.77,392.58Z"/><path class="af8ac9c4-70c4-4076-a84e-938d4e2f3122" d="M178.62,387.81c-.2-2.59,5.11-20,9.71-24.27s17.72-9.05,28.28-12.31,28.46-6.6,32.74-3.11a16,16,0,0,1,5.3,16.4c-1.75,6.56-2.2,7.65-11.11,11.52s-57.68,18.87-60.76,17.09S178.83,390.39,178.62,387.81Z"/><path class="af8ac9c4-70c4-4076-a84e-938d4e2f3122" d="M142.34,484.92c-.25-3.65,7.78-26.48,14.52-32.55s25.78-15.05,41.13-19.85,41.32-9.84,47.45-5a21.91,21.91,0,0,1,7.37,23.1c-2.65,9.3-3.32,10.84-16.29,16.48s-83.83,27.72-88.26,25.26S142.59,488.58,142.34,484.92Z"/><path class="b9e5f0a2-6f2a-4c76-b6e0-ea27cc51e6a9" d="M333.44,577.8c-13.23,17.39-24.16,1.25-40.63-34.81s2.66-73.74,11-99S295.63,365,305.56,363c5-1,10.3,35.09,10.3,35.09s19.48-13.65,38.09,9.38c6.65,8.22,15.27,56.53,11,75.44C362.79,492.51,346.67,560.42,333.44,577.8Z"/><path class="b9e5f0a2-6f2a-4c76-b6e0-ea27cc51e6a9" d="M250.14,475.09s-9.69-2.74-7.07-16.23,5.16-25.41,2.9-30.6,19-4.66,21.07,9.22S272.12,467.06,250.14,475.09Z"/><path class="b9e5f0a2-6f2a-4c76-b6e0-ea27cc51e6a9" d="M253.22,379.48s-5.9-2-4.68-10.75,2.44-16.41,1-19.85,11.3-2.53,12.93,6.56S266.26,374.83,253.22,379.48Z"/><path class="b78cac7a-a15c-400f-9082-9712553284ea" d="M201.65,373.49l2.47-8.22a1.46,1.46,0,0,1,.95-1l24.82-8a1.47,1.47,0,0,1,1.89,1.08l1.66,7.67a1.48,1.48,0,0,1-1,1.72l-28.95,8.52A1.47,1.47,0,0,1,201.65,373.49Z"/></g><g id="b2c6f11c-9435-4c8f-b4f1-29042b52417f" data-name="laptop"><path class="b624a0c5-0123-4078-943d-58418fd1c1cd" d="M337.87,345.16l-81.22-78.84a11.31,11.31,0,0,1-2.25-3.07l-.61-1.22a11.34,11.34,0,0,1,4-14.56L371.68,173.4a11.33,11.33,0,0,1,14.07,1.37L468,254.58a11.33,11.33,0,0,1,.77,15.44,11.55,11.55,0,0,1-2.49,2.19L351.94,346.53A11.34,11.34,0,0,1,337.87,345.16Z"/><path class="f70b62f8-8c91-49e3-85de-f1a9972a5a66" d="M464.55,254a11,11,0,0,1,.74,14.92,11.27,11.27,0,0,1-2.4,2.12L352.42,342.83"/><path class="b13d0169-9675-4585-8851-243a866bca00" d="M338.52,337.29l-77.89-75.61a10.7,10.7,0,0,1-2.15-2.94l-.59-1.17a10.87,10.87,0,0,1,3.8-14l109.25-71a10.87,10.87,0,0,1,13.5,1.31l78.84,76.53a10.87,10.87,0,0,1,.74,14.81h0a11.08,11.08,0,0,1-2.38,2.1L352,338.6A10.87,10.87,0,0,1,338.52,337.29Z"/><path class="b624a0c5-0123-4078-943d-58418fd1c1cd" d="M243.37,240.92l10.8-105a22.13,22.13,0,0,1,1-4.34l.53-1.66c2.25-7,7.56-14.67,12.35-17.73L381,40c4.4-2.81,13.56,1.67,13,7.08L383,153.55c-.63,6.09-5.19,14.72-10.44,19.75h0a19.24,19.24,0,0,1-2.87,2.31L256.37,248C252,250.81,242.81,246.33,243.37,240.92Z"/><path class="b9e5f0a2-6f2a-4c76-b6e0-ea27cc51e6a9" d="M249.81,243.56l10.8-105a22,22,0,0,1,1-4.33l.53-1.67c2.25-7,7.56-14.66,12.35-17.72l113-72.15c4.4-2.81,7.12-1,6.56,4.44L383,153.55c-.63,6.09-5.19,14.72-10.44,19.75h0a19.24,19.24,0,0,1-2.87,2.31L256.37,248C252,250.81,249.25,249,249.81,243.56Z"/><path class="aa779f2c-f828-4fb3-9a8c-7da718aa0108" d="M359.93,240.43a2.28,2.28,0,0,1,.36-3.72l1.54-1a4,4,0,0,1,4.67.45l1.1,1.07a2.29,2.29,0,0,1-.36,3.72l-1.55,1a4,4,0,0,1-4.67-.45Z"/><path class="aa779f2c-f828-4fb3-9a8c-7da718aa0108" d="M368.94,234.57a2.28,2.28,0,0,1,.36-3.72l1.54-1a4,4,0,0,1,4.67.46l1.1,1.06a2.29,2.29,0,0,1-.36,3.72l-1.55,1a4,4,0,0,1-4.67-.45Z"/><path class="aa779f2c-f828-4fb3-9a8c-7da718aa0108" d="M350.92,246.29a2.29,2.29,0,0,1,.35-3.72l1.55-1a4,4,0,0,1,4.67.45l1.1,1.06a2.3,2.3,0,0,1-.36,3.73l-1.55,1a4,4,0,0,1-4.67-.45Z"/><path class="aa779f2c-f828-4fb3-9a8c-7da718aa0108" d="M323.88,263.86a2.29,2.29,0,0,1,.36-3.72l1.55-1a4,4,0,0,1,4.67.45l1.09,1.06a2.28,2.28,0,0,1-.36,3.72l-1.54,1a4,4,0,0,1-4.67-.45Z"/><path class="aa779f2c-f828-4fb3-9a8c-7da718aa0108" d="M332.89,258a2.3,2.3,0,0,1,.36-3.73l1.55-1a4,4,0,0,1,4.67.45l1.09,1.06a2.28,2.28,0,0,1-.36,3.72l-1.54,1a4,4,0,0,1-4.67-.45Z"/><path class="aa779f2c-f828-4fb3-9a8c-7da718aa0108" d="M341.9,252.15a2.29,2.29,0,0,1,.36-3.72l1.55-1a4,4,0,0,1,4.67.45l1.1,1.06a2.29,2.29,0,0,1-.36,3.72l-1.55,1a4,4,0,0,1-4.67-.45Z"/><path class="aa779f2c-f828-4fb3-9a8c-7da718aa0108" d="M319.42,230.38a2.29,2.29,0,0,1,.36-3.72l1.54-1a4,4,0,0,1,4.67.45l1.1,1.06a2.29,2.29,0,0,1-.36,3.72l-1.54,1a4,4,0,0,1-4.67-.45Z"/><path class="aa779f2c-f828-4fb3-9a8c-7da718aa0108" d="M337.44,218.67a2.29,2.29,0,0,1,.36-3.72l1.55-1a4,4,0,0,1,4.67.45l1.09,1.06a2.28,2.28,0,0,1-.36,3.72l-1.54,1a4,4,0,0,1-4.67-.45Z"/><path class="aa779f2c-f828-4fb3-9a8c-7da718aa0108" d="M328.43,224.53a2.3,2.3,0,0,1,.36-3.73l1.55-1a4,4,0,0,1,4.67.45l1.09,1.06a2.28,2.28,0,0,1-.36,3.72l-1.54,1a4,4,0,0,1-4.67-.45Z"/><path class="aa779f2c-f828-4fb3-9a8c-7da718aa0108" d="M379.47,215.6a2.28,2.28,0,0,1,.36-3.72l1.54-1a4,4,0,0,1,4.67.45l1.1,1.06a2.3,2.3,0,0,1-.36,3.73l-1.55,1a4,4,0,0,1-4.67-.45Z"/><path class="aa779f2c-f828-4fb3-9a8c-7da718aa0108" d="M301.4,242.1a2.28,2.28,0,0,1,.36-3.72l1.54-1a4,4,0,0,1,4.67.45l1.1,1.06a2.29,2.29,0,0,1-.36,3.72l-1.55,1a4,4,0,0,1-4.67-.45Z"/><path class="aa779f2c-f828-4fb3-9a8c-7da718aa0108" d="M310.41,236.24a2.28,2.28,0,0,1,.36-3.72l1.54-1A4,4,0,0,1,317,232l1.1,1.06a2.29,2.29,0,0,1-.36,3.72l-1.55,1a4,4,0,0,1-4.67-.46Z"/><path class="aa779f2c-f828-4fb3-9a8c-7da718aa0108" d="M346.45,212.81a2.29,2.29,0,0,1,.36-3.72l1.55-1a4,4,0,0,1,4.67.45l1.1,1.06a2.3,2.3,0,0,1-.36,3.73l-1.55,1a4,4,0,0,1-4.67-.45Z"/><path class="aa779f2c-f828-4fb3-9a8c-7da718aa0108" d="M372,208.35a2.3,2.3,0,0,1,.36-3.73l1.55-1a4,4,0,0,1,4.67.45l1.09,1.06a2.28,2.28,0,0,1-.36,3.72l-1.54,1a4,4,0,0,1-4.67-.45Z"/><path class="aa779f2c-f828-4fb3-9a8c-7da718aa0108" d="M364.48,201.09a2.28,2.28,0,0,1,.36-3.72l1.54-1a4,4,0,0,1,4.67.46l1.1,1.06a2.29,2.29,0,0,1-.36,3.72l-1.55,1a4,4,0,0,1-4.67-.45Z"/><path class="aa779f2c-f828-4fb3-9a8c-7da718aa0108" d="M355.46,207a2.29,2.29,0,0,1,.36-3.72l1.55-1a4,4,0,0,1,4.67.45l1.1,1.07a2.29,2.29,0,0,1-.36,3.72l-1.55,1a4,4,0,0,1-4.67-.45Z"/><path class="aa779f2c-f828-4fb3-9a8c-7da718aa0108" d="M378,228.71a2.29,2.29,0,0,1,.36-3.72l1.54-1a4,4,0,0,1,4.68.45l1.09,1.06a2.29,2.29,0,0,1-.36,3.72l-1.54,1a4,4,0,0,1-4.67-.45Z"/><path class="aa779f2c-f828-4fb3-9a8c-7da718aa0108" d="M343.42,239a2.29,2.29,0,0,1,.36-3.72l1.55-1a4,4,0,0,1,4.67.45l1.09,1.06a2.28,2.28,0,0,1-.36,3.72l-1.54,1a4,4,0,0,1-4.67-.45Z"/><path class="aa779f2c-f828-4fb3-9a8c-7da718aa0108" d="M361.44,227.32a2.29,2.29,0,0,1,.36-3.72l1.55-1A4,4,0,0,1,368,223l1.09,1.06a2.29,2.29,0,0,1-.35,3.72l-1.55,1a4,4,0,0,1-4.67-.45Z"/><path class="aa779f2c-f828-4fb3-9a8c-7da718aa0108" d="M352.43,233.18a2.3,2.3,0,0,1,.36-3.73l1.55-1a4,4,0,0,1,4.67.45L360.1,230a2.28,2.28,0,0,1-.36,3.72l-1.54,1a4,4,0,0,1-4.67-.45Z"/><path class="aa779f2c-f828-4fb3-9a8c-7da718aa0108" d="M370.45,221.46a2.29,2.29,0,0,1,.36-3.72l1.55-1a4,4,0,0,1,4.67.45l1.1,1.06a2.3,2.3,0,0,1-.36,3.73l-1.55,1a4,4,0,0,1-4.67-.45Z"/><path class="aa779f2c-f828-4fb3-9a8c-7da718aa0108" d="M381,202.49a2.3,2.3,0,0,1,.36-3.73l1.55-1a4,4,0,0,1,4.67.45l1.09,1.06a2.28,2.28,0,0,1-.36,3.72l-1.54,1a4,4,0,0,1-4.67-.45Z"/><path class="aa779f2c-f828-4fb3-9a8c-7da718aa0108" d="M334.41,244.89a2.29,2.29,0,0,1,.36-3.72l1.54-1a4,4,0,0,1,4.67.45l1.1,1.06a2.29,2.29,0,0,1-.36,3.72l-1.54,1a4,4,0,0,1-4.67-.45Z"/><path class="aa779f2c-f828-4fb3-9a8c-7da718aa0108" d="M363,214.2a2.29,2.29,0,0,1,.36-3.72l1.54-1a4,4,0,0,1,4.67.45l1.1,1.06a2.28,2.28,0,0,1-.36,3.72l-1.54,1a4,4,0,0,1-4.67-.46Z"/><path class="aa779f2c-f828-4fb3-9a8c-7da718aa0108" d="M387,222.85a2.29,2.29,0,0,1,.36-3.72l10.56-6.86a4,4,0,0,1,4.67.45l1.09,1.06a2.28,2.28,0,0,1-.36,3.72l-10.55,6.87a4,4,0,0,1-4.67-.46Z"/><path class="aa779f2c-f828-4fb3-9a8c-7da718aa0108" d="M325.4,250.75a2.28,2.28,0,0,1,.36-3.72l1.54-1a4,4,0,0,1,4.67.45l1.1,1.06a2.29,2.29,0,0,1-.36,3.72l-1.55,1a4,4,0,0,1-4.67-.45Z"/><path class="aa779f2c-f828-4fb3-9a8c-7da718aa0108" d="M292.39,248a2.28,2.28,0,0,1,.36-3.72l1.54-1a4,4,0,0,1,4.67.45l1.1,1.06a2.29,2.29,0,0,1-.36,3.72l-1.55,1a4,4,0,0,1-4.67-.45Z"/><path class="aa779f2c-f828-4fb3-9a8c-7da718aa0108" d="M307.38,262.47a2.29,2.29,0,0,1,.35-3.72l1.55-1a4,4,0,0,1,4.67.45l1.1,1.06a2.3,2.3,0,0,1-.36,3.73l-1.55,1a4,4,0,0,1-4.67-.45Z"/><path class="aa779f2c-f828-4fb3-9a8c-7da718aa0108" d="M308.89,249.36a2.3,2.3,0,0,1,.36-3.73l1.55-1a4,4,0,0,1,4.67.45l1.09,1.06a2.28,2.28,0,0,1-.36,3.72l-1.54,1a4,4,0,0,1-4.67-.45Z"/><path class="aa779f2c-f828-4fb3-9a8c-7da718aa0108" d="M316.39,256.61a2.28,2.28,0,0,1,.36-3.72l1.54-1a4,4,0,0,1,4.67.46l1.1,1.06a2.29,2.29,0,0,1-.36,3.72l-1.55,1a4,4,0,0,1-4.67-.45Z"/><path class="aa779f2c-f828-4fb3-9a8c-7da718aa0108" d="M354,220.06a2.28,2.28,0,0,1,.36-3.72l1.54-1a4,4,0,0,1,4.67.45l1.1,1.06a2.29,2.29,0,0,1-.36,3.72l-1.55,1a4,4,0,0,1-4.67-.45Z"/><path class="aa779f2c-f828-4fb3-9a8c-7da718aa0108" d="M335.93,231.78a2.29,2.29,0,0,1,.35-3.72l1.55-1a4,4,0,0,1,4.67.46l1.1,1.06a2.29,2.29,0,0,1-.36,3.72l-1.55,1a4,4,0,0,1-4.67-.45Z"/><path class="aa779f2c-f828-4fb3-9a8c-7da718aa0108" d="M344.94,225.92a2.28,2.28,0,0,1,.36-3.72l1.54-1a4,4,0,0,1,4.67.45l1.1,1.06a2.29,2.29,0,0,1-.36,3.72l-1.55,1A4,4,0,0,1,346,227Z"/><path class="aa779f2c-f828-4fb3-9a8c-7da718aa0108" d="M317.9,243.5a2.29,2.29,0,0,1,.36-3.72l1.55-1a4,4,0,0,1,4.67.45l1.09,1.06a2.3,2.3,0,0,1-.35,3.73l-1.55,1a4,4,0,0,1-4.67-.45Z"/><path class="aa779f2c-f828-4fb3-9a8c-7da718aa0108" d="M326.91,237.64a2.29,2.29,0,0,1,.36-3.72l1.55-1a4,4,0,0,1,4.67.45l1.1,1.06a2.3,2.3,0,0,1-.36,3.73l-1.55,1a4,4,0,0,1-4.67-.45Z"/><path class="aa779f2c-f828-4fb3-9a8c-7da718aa0108" d="M331.38,271.12a2.28,2.28,0,0,1,.36-3.72l1.54-1a4,4,0,0,1,4.67.45l1.08,1.05a2.29,2.29,0,0,1-.36,3.72l-1.54,1a4,4,0,0,1-4.67-.45Z"/><path class="aa779f2c-f828-4fb3-9a8c-7da718aa0108" d="M313.35,282.84a2.3,2.3,0,0,1,.36-3.73l1.55-1a4,4,0,0,1,4.67.45l1.08,1a2.3,2.3,0,0,1-.36,3.73l-1.55,1a4,4,0,0,1-4.67-.45Z"/><path class="aa779f2c-f828-4fb3-9a8c-7da718aa0108" d="M322.37,277a2.29,2.29,0,0,1,.35-3.72l1.55-1a4,4,0,0,1,4.67.45l1.08,1.05a2.29,2.29,0,0,1-.36,3.72l-1.55,1a4,4,0,0,1-4.67-.45Z"/><path class="aa779f2c-f828-4fb3-9a8c-7da718aa0108" d="M340.39,265.26a2.28,2.28,0,0,1,.36-3.72L369.33,243a4,4,0,0,1,4.67.45l1.08,1a2.29,2.29,0,0,1-.36,3.72l-28.58,18.59a4,4,0,0,1-4.67-.46Z"/><path class="aa779f2c-f828-4fb3-9a8c-7da718aa0108" d="M290.87,261.07a2.29,2.29,0,0,1,.36-3.72l10.55-6.86a4,4,0,0,1,4.68.45l1.09,1.06a2.28,2.28,0,0,1-.36,3.72l-10.55,6.87a4,4,0,0,1-4.67-.45Z"/><path class="aa779f2c-f828-4fb3-9a8c-7da718aa0108" d="M298.36,268.33a2.29,2.29,0,0,1,.36-3.72l1.55-1a4,4,0,0,1,4.67.45l1.1,1.06a2.3,2.3,0,0,1-.36,3.73l-1.55,1a4,4,0,0,1-4.67-.45Z"/><path class="aa779f2c-f828-4fb3-9a8c-7da718aa0108" d="M305.86,275.58a2.28,2.28,0,0,1,.36-3.72L316.77,265a4,4,0,0,1,4.68.45l1.09,1.06a2.28,2.28,0,0,1-.36,3.72l-10.55,6.86a4,4,0,0,1-4.68-.45Z"/><path class="aa779f2c-f828-4fb3-9a8c-7da718aa0108" d="M385.44,236a2.3,2.3,0,0,1,.36-3.73l1.55-1a4,4,0,0,1,4.67.45l1.08,1a2.3,2.3,0,0,1-.36,3.73l-1.55,1a4,4,0,0,1-4.67-.45Z"/><path class="aa779f2c-f828-4fb3-9a8c-7da718aa0108" d="M283.37,253.82a2.29,2.29,0,0,1,.36-3.72l1.55-1a4,4,0,0,1,4.67.45l1.1,1.07a2.29,2.29,0,0,1-.36,3.72l-1.55,1a4,4,0,0,1-4.67-.45Z"/><path class="aa779f2c-f828-4fb3-9a8c-7da718aa0108" d="M376.43,241.82a2.29,2.29,0,0,1,.36-3.72l1.55-1a4,4,0,0,1,4.67.45l1.08,1a2.3,2.3,0,0,1-.36,3.73l-1.55,1a4,4,0,0,1-4.67-.45Z"/><path class="aa779f2c-f828-4fb3-9a8c-7da718aa0108" d="M388.48,209.74a2.28,2.28,0,0,1,.36-3.72l1.54-1a4,4,0,0,1,4.67.45l1.1,1.07a2.29,2.29,0,0,1-.36,3.72l-1.55,1a4,4,0,0,1-4.67-.45Z"/><path class="aa779f2c-f828-4fb3-9a8c-7da718aa0108" d="M373.49,195.23a2.28,2.28,0,0,1,.36-3.72l1.54-1a4,4,0,0,1,4.67.45l1.1,1.06a2.29,2.29,0,0,1-.36,3.72l-1.55,1a4,4,0,0,1-4.67-.45Z"/><path class="aa779f2c-f828-4fb3-9a8c-7da718aa0108" d="M394.46,230.11a2.28,2.28,0,0,1,.36-3.72l1.54-1a4,4,0,0,1,4.67.45l1.08,1a2.29,2.29,0,0,1-.36,3.72l-1.54,1a4,4,0,0,1-4.68-.45Z"/><path class="aa779f2c-f828-4fb3-9a8c-7da718aa0108" d="M403.47,224.25a2.28,2.28,0,0,1,.36-3.72l1.54-1A4,4,0,0,1,410,220l1.08,1.05a2.28,2.28,0,0,1-.36,3.72l-1.54,1a4,4,0,0,1-4.67-.45Z"/><path class="b624a0c5-0123-4078-943d-58418fd1c1cd" d="M383.38,305.72l-24.51-23.8a2.46,2.46,0,0,1,.37-3.84L393,256.14a2.46,2.46,0,0,1,3.06.29l24.52,23.8a2.47,2.47,0,0,1-.37,3.84L386.44,306A2.46,2.46,0,0,1,383.38,305.72Z"/><path class="b78cac7a-a15c-400f-9082-9712553284ea" d="M260,229.69l9.28-90.18a18.93,18.93,0,0,1,.82-3.72l.46-1.43c1.93-6.05,6.49-12.59,10.61-15.22l97-62c3.78-2.41,6.12-.83,5.64,3.82l-9.41,91.39c-.54,5.23-4.46,12.64-9,17h0a15.85,15.85,0,0,1-2.47,2L265.62,233.5C261.85,235.91,259.51,234.33,260,229.69Z"/><path class="f0bc551b-7fa4-48b6-9827-5fad5b164b0f" d="M275.85,185.72l4.53-44.05a8.72,8.72,0,0,1,.4-1.82l.22-.7c.95-3,3.17-6.15,5.18-7.43l47.4-30.27c1.84-1.18,3-.41,2.75,1.86L331.73,148a15.63,15.63,0,0,1-4.38,8.29h0a7.52,7.52,0,0,1-1.2,1L278.6,187.59C276.75,188.76,275.61,188,275.85,185.72Z"/><path class="b6d2c660-86ce-478c-8607-f90b5bdc48cc" d="M309.58,189.38l4.53-44a9.41,9.41,0,0,1,.4-1.82l.22-.7c.95-2.95,3.18-6.15,5.19-7.43l47.39-30.27c1.84-1.18,3-.4,2.75,1.86l-4.6,44.65a15.49,15.49,0,0,1-4.38,8.29h0a8.24,8.24,0,0,1-1.2,1l-47.55,30.37C310.48,192.43,309.34,191.65,309.58,189.38Z"/><path class="ee7d885d-2de3-41e2-9fa9-4f4b7d45ff8a" d="M324.35,141.49l2.5-24.3a4.8,4.8,0,0,1,.23-1l.12-.38a8.4,8.4,0,0,1,2.86-4.1L356.2,95c1-.65,1.65-.22,1.52,1l-2.54,24.63a8.59,8.59,0,0,1-2.41,4.57h0a3.78,3.78,0,0,1-.67.53l-26.23,16.76C324.85,143.17,324.22,142.74,324.35,141.49Z"/><path class="f7b86e69-bb3c-4266-acbf-84b653f1f294" d="M260.76,251.51c33,1.76,134.74,19.45,168.36,36.72l31.95-20.31a11.65,11.65,0,0,0,1.82-18.23l-85.57-82.15-118,78.71A2.87,2.87,0,0,0,260.76,251.51Z"/></g><g id="b480ca44-040b-4d72-823c-b3f80f41bd5d" data-name="bottle"><path class="a112c2f8-3725-4eca-ac71-1f81426ed112" d="M161.28,376.73c1.39,1.2-.05,5.14-3.22,8.81s-6.85,5.67-8.23,4.47l-27.57-23.78L133.72,353Z"/><ellipse class="a112c2f8-3725-4eca-ac71-1f81426ed112" cx="127.99" cy="359.59" rx="8.77" ry="3.31" transform="translate(-227.89 221.61) rotate(-49.21)"/><path class="af8ac9c4-70c4-4076-a84e-938d4e2f3122" d="M128.85,354.54c.69.6,0,2.57-1.61,4.4s-3.43,2.84-4.12,2.24l-3.76-3.24,5.73-6.64Z"/><ellipse class="af8ac9c4-70c4-4076-a84e-938d4e2f3122" cx="122.23" cy="354.62" rx="4.39" ry="1.65" transform="translate(-226.12 215.52) rotate(-49.21)"/><path class="af8ac9c4-70c4-4076-a84e-938d4e2f3122" d="M136.76,367.16c-3.16,3.67-6.85,5.67-8.23,4.48l15,13c1.39,1.19,5.07-.81,8.24-4.48a21.58,21.58,0,0,0,2.06-2.81l-15-13A22.4,22.4,0,0,1,136.76,367.16Z"/></g><g id="fff9b3e8-5473-4807-aa91-547324f7fef6" data-name="book2"><polygon class="af8ac9c4-70c4-4076-a84e-938d4e2f3122" points="492.13 508.76 401.23 570.23 341.83 519.97 432.73 458.5 492.13 508.76"/><polygon class="b2943054-5e2f-46fe-9f90-183e13ee786f" points="491.81 502.15 400.91 563.62 341.95 520.03 432.85 458.56 491.81 502.15"/><polygon class="b78cac7a-a15c-400f-9082-9712553284ea" points="490.28 493.88 399.38 555.35 341.95 520.03 432.85 458.56 490.28 493.88"/><polygon class="b2943054-5e2f-46fe-9f90-183e13ee786f" points="491.81 483.74 400.91 545.21 341.95 520.03 432.85 458.56 491.81 483.74"/><polygon class="b78cac7a-a15c-400f-9082-9712553284ea" points="490.28 475.48 399.38 536.95 341.95 520.03 432.85 458.56 490.28 475.48"/><polygon class="af8ac9c4-70c4-4076-a84e-938d4e2f3122" points="490.16 468.34 399.27 529.81 341.83 519.97 432.73 458.5 490.16 468.34"/><polygon class="b78cac7a-a15c-400f-9082-9712553284ea" points="456.64 478.42 440.76 489.16 413.12 484.43 429 473.68 456.64 478.42"/><path class="f2e5295e-81d2-44ea-8845-09649a663456" d="M386.65,523l-4.89,3.79L341.84,520l47.82-32.34h0A24.15,24.15,0,0,1,386.65,523Z"/></g><g id="b6d645aa-3e92-4122-979c-e1c17b3dd81e" data-name="book1"><polygon class="fc2aeb72-fc39-4661-a820-1961ca5e2ce9" points="591.4 337.35 604.63 406.38 534.69 440.47 521.46 371.44 591.4 337.35"/><polygon class="b2943054-5e2f-46fe-9f90-183e13ee786f" points="585.22 334.98 598.45 404.01 534.79 440.38 521.56 371.36 585.22 334.98"/><polygon class="b78cac7a-a15c-400f-9082-9712553284ea" points="577.04 333.04 590.27 402.07 534.79 440.38 521.56 371.36 577.04 333.04"/><polygon class="b2943054-5e2f-46fe-9f90-183e13ee786f" points="550.12 325.01 563.35 394.04 534.79 440.38 521.56 371.36 550.12 325.01"/><polygon class="b78cac7a-a15c-400f-9082-9712553284ea" points="537.67 321.94 550.9 390.97 534.79 440.38 521.56 371.36 537.67 321.94"/><polygon class="fc2aeb72-fc39-4661-a820-1961ca5e2ce9" points="529.09 320.89 542.32 389.92 534.69 440.47 521.46 371.44 529.09 320.89"/></g><path id="a0f09f82-20ff-45e3-968e-0305a2ab8bc9" data-name="heart2" class="fc2aeb72-fc39-4661-a820-1961ca5e2ce9" d="M187.23,182.85s-57-29.11-53.64-54.35,37.6-10.61,37.6-10.61,8.37-16.34,24.55-12.39C234.89,115.08,187.23,182.85,187.23,182.85Z"/><path id="a995e051-7314-4fc6-8e4a-726676080f56" data-name="heart1" class="fc2aeb72-fc39-4661-a820-1961ca5e2ce9" d="M179.19,473s-42,15.65-52.24,0,13.68-26.59,13.68-26.59-3.54-13.54,6.37-20.33C171,409.69,179.19,473,179.19,473Z"/><g id="e0ce8adf-cbcd-4cc4-9587-4c71121af108" data-name="pens"><line class="b8dcbc31-c79f-49db-ae60-76e402a459dc" x1="392.41" y1="424.81" x2="398.1" y2="366.4"/><line class="aa9d57da-9b8e-4e7c-a1ed-4fab3f2449db" x1="396.49" y1="368.83" x2="395.07" y2="384.5"/><line class="ad9863f1-a28a-483c-b6a1-647bde80c165" x1="381.12" y1="440.62" x2="372.02" y2="382.65"/><line class="aa9d57da-9b8e-4e7c-a1ed-4fab3f2449db" x1="372.73" y1="385.41" x2="375.27" y2="400.94"/><line class="efdb2ae5-6677-468b-9ee1-1ad97424f04e" x1="419.09" y1="399.64" x2="416.67" y2="341.01"/><line class="aa9d57da-9b8e-4e7c-a1ed-4fab3f2449db" x1="416.74" y1="343.69" x2="417.49" y2="359.4"/></g><g id="a2727f1f-e917-4db6-8165-f29fe8aa2222" data-name="compass"><path class="b78cac7a-a15c-400f-9082-9712553284ea" d="M458.84,204.58l-59-62.58,7.28-6.86a43,43,0,0,1,59,62.58ZM429.69,144.5l28.42,30.14a23,23,0,0,0-28.42-30.14Z"/><path class="f1b00fae-6435-4d14-9ca4-90c6ec983944" d="M404.82,147.34l7.28-6.86"/><path class="f1b00fae-6435-4d14-9ca4-90c6ec983944" d="M411,153.83l7.27-6.86"/><path class="f1b00fae-6435-4d14-9ca4-90c6ec983944" d="M417.07,160.32l7.28-6.86"/><path class="f1b00fae-6435-4d14-9ca4-90c6ec983944" d="M453.81,199.26l7.27-6.86"/><path class="f1b00fae-6435-4d14-9ca4-90c6ec983944" d="M447.68,192.77l7.28-6.86"/><path class="f1b00fae-6435-4d14-9ca4-90c6ec983944" d="M441.56,186.28l7.28-6.86"/><path class="f1b00fae-6435-4d14-9ca4-90c6ec983944" d="M435.44,179.79l7.27-6.86"/><path class="f1b00fae-6435-4d14-9ca4-90c6ec983944" d="M429.32,173.3l7.27-6.86"/><path class="f1b00fae-6435-4d14-9ca4-90c6ec983944" d="M423.19,166.81l7.28-6.86"/></g><g id="b6093243-6f17-463b-96c2-48c40d4226aa" data-name="masks"><path class="b8941f5a-4c1e-4d83-961a-a7ab7d89ed13" d="M57.8,333.75s-3.82,5.11-4.61,7.46,6.33,15.55,10.46,17.07S69.77,348,69.77,348"/><path class="b8941f5a-4c1e-4d83-961a-a7ab7d89ed13" d="M120.62,312.67s10.4-4.46,12.15-6.61S134,288.94,131,286.38s-12.15,6.6-12.15,6.6"/><path class="b8941f5a-4c1e-4d83-961a-a7ab7d89ed13" d="M133.86,250.56s-10.4,4.46-12.15,6.6-1.23,17.13,1.78,19.69,12.15-6.61,12.15-6.61"/><path class="b8941f5a-4c1e-4d83-961a-a7ab7d89ed13" d="M205.37,253.31s-8.29,3.9-10,6-1.22,17.13,1.78,19.69,12.15-6.6,12.15-6.6"/><path class="b13d0169-9675-4585-8851-243a866bca00" d="M128.72,248.67c-1.85,2.86,6.87,30.09,12,32.07s18.19-5.7,32.68-7.88,35.15,5.74,38,3.3-5.79-30.37-8.16-30.58-26.29-7.26-35.36-6.52C160.18,239.69,132,243.6,128.72,248.67Z"/><path class="aa779f2c-f828-4fb3-9a8c-7da718aa0108" d="M74,355.05c-3.71-.61-22.92-24.37-20.45-28.67,7.89-13.71,13.27-24,23.22-30.94,12-8.41,23.42-7.43,40-8.73,3.72-.29,10.11,29.22,8.16,30.58S103.75,329.16,95.51,333C88.52,336.33,80.6,356.15,74,355.05Z"/><path class="b8941f5a-4c1e-4d83-961a-a7ab7d89ed13" d="M191.68,325.4s8.23-.32,10.27-1.36,8.81-11.74,8.24-14.36S199.92,311,199.92,311"/><path class="b8941f5a-4c1e-4d83-961a-a7ab7d89ed13" d="M148,316.43s-8.23.32-10.28,1.36-8.8,11.74-8.24,14.36,10.28-1.36,10.28-1.36"/><path class="b624a0c5-0123-4078-943d-58418fd1c1cd" d="M202.91,305.65c1.05,1.92-8.6,23.25-12.68,25.33S170.6,335,160,335.09s-20.18,2.16-22,.67,7.82-23.33,9.62-23.76,14.35-2.71,21-3.21C174.37,308.37,201,302.24,202.91,305.65Z"/><path class="b837fbee-eb74-4052-8239-9f2d8d9e7b11" d="M69.08,351s5.45-19,12.83-23.72,42.91-16.55,42.91-16.55"/><path class="b837fbee-eb74-4052-8239-9f2d8d9e7b11" d="M199.92,311s-29.47,8.27-38.27,8.12a147.8,147.8,0,0,1-17.52-1.5"/><path class="b837fbee-eb74-4052-8239-9f2d8d9e7b11" d="M198.51,318s-30,6.54-38.79,6.39a149,149,0,0,1-17.52-1.49"/><path class="b837fbee-eb74-4052-8239-9f2d8d9e7b11" d="M196.77,324.17s-30,6.54-38.79,6.39a149,149,0,0,1-17.52-1.49"/><path class="b837fbee-eb74-4052-8239-9f2d8d9e7b11" d="M62.7,343.43s13.79-26.08,21.17-30.76,38.9-9.57,38.9-9.57"/><path class="b837fbee-eb74-4052-8239-9f2d8d9e7b11" d="M57.18,335.52s15.61-25.86,23-30.55,40.56-9.53,40.56-9.53"/><path class="b837fbee-eb74-4052-8239-9f2d8d9e7b11" d="M130.4,256.11s24.76-10.22,33.68-10.8,42.9,6.07,42.9,6.07"/><path class="b837fbee-eb74-4052-8239-9f2d8d9e7b11" d="M132.44,263.77s24.76-10.22,33.68-10.8S209,259.05,209,259.05"/><path class="b837fbee-eb74-4052-8239-9f2d8d9e7b11" d="M134.69,272.2s24.76-10.22,33.68-10.8,42.91,6.07,42.91,6.07"/><path class="bc6d569d-f301-4c9b-bb7b-502dbdf807b4" d="M203.25,245.58c-1.23-.11-8.22-2.05-15.94-3.79-3.43,9.37-7.11,19.75-9.53,30.7,14-.38,31.08,5.87,33.63,3.67C214.24,273.73,205.62,245.79,203.25,245.58Z"/><path class="bc6d569d-f301-4c9b-bb7b-502dbdf807b4" d="M147.65,312c-3.79,1.86-11.21,23.83-8.62,23.76,4.16-.1,7.32-.17,10-.28A28.1,28.1,0,0,0,158.6,326c1.56-2.38,2.85-8.61,3.64-16.24C155.58,310.71,148.56,311.55,147.65,312Z"/></g></g></g></svg>