<svg xmlns="http://www.w3.org/2000/svg" viewBox="0 0 779.64 482.56"><defs><style>.cls-1{isolation:isolate;}.cls-2{fill:#fff;}.cls-3{fill:#444;}.cls-4{fill:#195485;}.cls-5{fill:#2ed096;}.cls-6{fill:#208992;}.cls-7{fill:#e73952;}.cls-8{fill:#a62f37;}.cls-9{fill:#721d27;}.cls-10{fill:#2932b8;opacity:0.5;mix-blend-mode:multiply;}.cls-11{fill:#fce89f;}.cls-12{fill:#f4b67d;}.cls-13{fill:#e5845c;}</style></defs><g class="cls-1"><g id="Layer_2" data-name="Layer 2"><g id="Layer_1-2" data-name="Layer 1"><path class="cls-2" d="M580.81,54.42c42,34.38,70.57,85.4,80.7,140.05,9.77,54.64.72,112.53-29.67,151.25-30.76,38.72-82.87,57.54-137.51,82.51-54.28,25-110.73,55.73-174.06,54.28-63.32-1.09-133.16-34.38-174-91.19s-52.84-136.79-30-201.2,80.7-113.26,138.6-144.74C312.67,13.53,370.57-1.66,427,.14,483.84,1.59,538.84,19.69,580.81,54.42Z"/><path class="cls-3" d="M362.51,93.86s-1-10.26,7.12-11.84,37.36-.23,40.53,0,7.13,13.58,7.13,13.58h-13.7s1.36-9-4.75-10-23.33-.68-25.59.23,0,9.73,0,9.73Z"/><path class="cls-3" d="M525.86,291.17c-1.93,18.75-10.56,24.74-20.59,31.75s-5.13,11-5.13,11,21-13.21,24.52-23.42S530.89,288,530.89,288Z"/><path class="cls-4" d="M469.88,135.44c12.74-1.82,36.68,3.33,42.66,18.41s19,73.73,20.75,95.49,6.15,28.29,3.35,36.16S518.08,305.11,513,300.91,499.52,177,496.77,165.59c-3-12.68-4.59-19.76-25.55-18.1"/><path class="cls-3" d="M255.64,292.55c2.73,18.65,11.6,24.27,21.92,30.85s5.59,10.8,5.59,10.8-21.57-12.32-25.49-22.37-7.17-22.2-7.17-22.2Z"/><path class="cls-4" d="M305,134.59c-12.81-1.28-36.51,4.88-41.85,20.2s-15.9,74.47-16.7,96.28-5,28.52-1.83,36.27,19.38,18.81,24.31,14.39,8.21-124.39,10.47-135.88c2.52-12.8,3.75-19.93,24.77-19.15"/><path class="cls-5" d="M503.52,347.83q.38-4.93.56-10.64c2.06-61-10.76-183.13-29.8-210.43-32-45.87-126.89-42.3-160.78-13.5-31,26.32-46.43,153.85-29.8,226.7.71,3.08,1.48,6.05,2.3,8.93C347.47,367.1,445.86,362.11,503.52,347.83Z"/><path class="cls-4" d="M292.22,366.06c.12.24.23.5.34.74,21.14,44.54,193.84,32.81,207.34,1.61a28,28,0,0,0,1.42-4.48C445.23,377.3,353.05,382,292.22,366.06Z"/><path class="cls-6" d="M501.32,363.93c.43-1.79.82-3.84,1.15-6.13.43-2.94.78-6.29,1-10-57.66,14.28-156,19.27-217.52,1.06.95,3.34,2,6.54,3.09,9.57,1,2.66,2,5.2,3.13,7.6C353.05,382,445.23,377.3,501.32,363.93Z"/><path class="cls-3" d="M201.18,309.89c-5,9.29-10.62,9.78-17.14,10.37s-4.95,4.22-4.95,4.22,13.38-.45,17.32-4.75a123.34,123.34,0,0,0,8-9.93Z"/><path class="cls-4" d="M206.71,210.41c6.77,3,17.65,13.13,17.39,22.94s-6.37,44.78-10.19,56.78-3,16.83-6.11,20.12-13.52,4.59-15.17.78,20-69.53,21.05-76.38c1.2-7.63,1.95-11.84-8.89-17.46"/><path class="cls-7" d="M171.83,168.19c14.67-6.39,27.34,4.91,30.18,11.43s14.1,44.28,6.14,69.07-16,76.12-36.19,81.68S115.83,312.79,109.82,296s-31.26-36.17-17.59-68.62S171.83,168.19,171.83,168.19Z"/><path class="cls-7" d="M.48,295.76c8.21-34.59,9.57-55.22,34.28-75.67S61.48,183.55,70,173.39s44.79-33.72,80.31-27.85,37.61,16.6,39.86,29.2S183.23,227,176,240.07s13.42,28.91-7.48,36.8S26.91,332.74,15.89,325.25.48,295.76.48,295.76Z"/><path class="cls-8" d="M37.84,365.18C18.72,358.59-3.76,319.93.53,295.7s136-49.52,149.85-42.11S191,312.7,171.92,330.68,57,371.76,37.84,365.18Z"/><path class="cls-9" d="M38,368.63C20.78,363.2,1.06,329.77,5.37,308.5S129.63,262.82,142,269.06s35.77,51,18.2,67.06S55.23,374.06,38,368.63Z"/><path class="cls-10" d="M203.33,179.67c-1.4-3.2-5.16-7.53-10.36-10.38a7.88,7.88,0,0,1-.32,1.49c-4,10-5,20-7,31a325.72,325.72,0,0,1-34,101c-2,3-5,7-7,10-8.52,17-20.62,28.7-32.06,44.32,14-4.1,27.24-8.8,36.85-13.44,10.8-4.3,19.38-8.75,23.8-12.93.15-.14.28-.28.42-.43,19.92-6.11,27.91-56.93,35.81-81.56C217.43,224,206.16,186.19,203.33,179.67Z"/><path class="cls-8" d="M22.55,250c-.33-3.73,6.85-28.83,13.27-34.86s24.83-12.75,39.67-17.27,40-9,46.13-3.91a23.93,23.93,0,0,1,7.76,23.77c-2.36,9.43-3,11-15.47,16.43s-81,26.21-85.4,23.59S22.89,253.69,22.55,250Z"/><path class="cls-8" d="M78.37,187.22c-.22-2.42,4.43-18.68,8.59-22.58s16.08-8.25,25.69-11.18,25.92-5.84,29.87-2.54a15.5,15.5,0,0,1,5,15.4c-1.52,6.1-1.92,7.11-10,10.64s-52.46,17-55.3,15.27S78.58,189.63,78.37,187.22Z"/><path class="cls-7" d="M76.57,183.22c-.17-2.16,4.27-16.78,8.13-20.32s14.83-7.58,23.67-10.3,23.83-5.53,27.41-2.61a13.43,13.43,0,0,1,4.44,13.74c-1.47,5.48-1.85,6.39-9.31,9.64s-48.28,15.79-50.86,14.3S76.74,185.38,76.57,183.22Z"/><path class="cls-7" d="M23.66,242.35c-.2-3,6.51-22.17,12.16-27.25s21.59-12.6,34.43-16.62,34.59-8.24,39.73-4.18a18.38,18.38,0,0,1,6.17,19.34c-2.23,7.79-2.79,9.08-13.64,13.8s-70.18,23.21-73.89,21.15S23.87,245.41,23.66,242.35Z"/><path class="cls-10" d="M113.91,234.12s-8.11-2.29-5.92-13.59,4.32-21.27,2.43-25.62,15.88-3.9,17.64,7.73S132.31,227.4,113.91,234.12Z"/><path class="cls-10" d="M139,176.25s-4.94-1.7-3.91-9,2-13.74.79-16.62,9.46-2.12,10.82,5.49S149.93,172.36,139,176.25Z"/><path class="cls-2" d="M95.85,171.23l2.06-6.88a1.24,1.24,0,0,1,.8-.81l20.78-6.68a1.23,1.23,0,0,1,1.58.91l1.39,6.42a1.24,1.24,0,0,1-.86,1.44l-24.23,7.13A1.23,1.23,0,0,1,95.85,171.23Z"/><path class="cls-6" d="M325.33,325.08c-20.28-20.31-9.88-73,14.39-82.81,23.3-9.41,88.54-10.58,110.53,4.41,16.24,11.06,24.55,56.53,13.16,73.69C449.72,341,339.86,339.64,325.33,325.08Z"/><path class="cls-5" d="M334.41,311.82c-17.5-17.54-8.52-63,12.42-71.48,20.11-8.12,76.41-9.12,95.39,3.81,14,9.55,21.19,48.79,11.36,63.6C441.76,325.55,347,324.37,334.41,311.82Z"/><path class="cls-6" d="M345.08,200.55c-13.7-14-6.67-50.22,9.72-57,15.74-6.47,59.8-7.27,74.66,3,11,7.61,17.49,48,11.9,54.28C435.09,207.92,354.89,210.55,345.08,200.55Z"/><path class="cls-5" d="M351.1,192c-11.88-12.12-5.79-43.57,8.44-49.41,13.65-5.62,51.89-6.31,64.78,2.63,9.52,6.6,15.18,41.67,10.32,47.09C429.2,198.35,359.62,200.63,351.1,192Z"/><rect class="cls-2" x="368.45" y="156.02" width="44.97" height="19.69" rx="1.93"/><path class="cls-10" d="M429.46,146.63a30,30,0,0,0-6.86-3.35c3.64,20.76,2.64,41.52-.4,62.27,10-1.09,17.42-2.7,19.16-4.64C447,194.65,440.43,154.24,429.46,146.63Z"/><path class="cls-10" d="M450.25,246.68c-4.44-3-10.66-5.38-17.92-7.16,15.83,28.59,18.07,63.37,4.49,92.59,13.08-2.55,23.05-6.41,26.59-11.74C474.8,303.21,466.49,257.74,450.25,246.68Z"/><path class="cls-10" d="M474.28,126.76C467.17,116.57,457,108.82,445,103.24a29.81,29.81,0,0,0,.49,6.52c21.93,94.39,37.37,189.59,12.7,279.41,21.79-4.87,37.95-12.06,41.72-20.76a28,28,0,0,0,1.42-4.48c.43-1.79.82-3.84,1.15-6.13.43-2.94.78-6.29,1-10q.38-4.93.56-10.64C506.14,276.22,493.32,154.06,474.28,126.76Z"/><path class="cls-3" d="M562.66,295.25c4.19,10.57,10.14,11.8,17.05,13.25s4.77,5.14,4.77,5.14-14.27-2.16-18-7.27a133.3,133.3,0,0,1-7.27-11.62Z"/><path class="cls-4" d="M569.25,188.06c-7.62,2.35-20.53,11.83-21.49,22.36s1.18,48.74,3.76,62.07,1.12,18.4,4,22.3,13.9,6.62,16.15,2.75S559,220.6,558.75,213.13c-.33-8.33-.61-12.92,11.71-17.58"/><path class="cls-11" d="M611.91,147.25c-14.91-8.68-29.89,1.81-33.75,8.43s-20.66,45.63-15.26,73.17,7.54,83.5,28.47,92,62.3-11.76,70.84-29,38-34.79,27.45-71.25S611.91,147.25,611.91,147.25Z"/><path class="cls-11" d="M779.29,305.37C774.85,267.3,776,245,752.11,220s-24-42.47-31.83-54.42-43.71-41.72-82.47-39.91-42.34,13-46.34,26.24.83,56.81,7,71.73c6.07,14.77-18,29.26,3.38,40.32s144.53,77.62,157.26,71S779.29,305.37,779.29,305.37Z"/><path class="cls-12" d="M730.56,375c21.3-4.64,50.23-43.21,48.68-69.69s-139.39-70.11-155.12-63.92-50.86,58.18-32.75,79.82S709.27,379.62,730.56,375Z"/><path class="cls-13" d="M730,378.65c19.13-3.65,44.44-36.95,42.5-60.27S645.17,253.86,631.11,259s-44.71,50.1-27.92,69.5S710.83,382.29,730,378.65Z"/><path class="cls-10" d="M779.64,305c-4.44-38.07-3.3-60.33-27.18-85.33s-24-42.47-31.83-54.42c-3-4.55-10-11.69-19.78-18.68.79,13.48.5,27,6.4,38.14,16.24,28.88,34.29,56.85,44.21,88.43,7.22,27.07,2.71,55.95-18.05,77.6-9.76,10.52-22,16-34.72,22.28,14.25,4.13,26,6.33,31.61,5.26,12.53-2.39,27.72-17.51,36.16-34.21,8.21-12.6,13.75-27,13.13-38.93Z"/><path class="cls-12" d="M761.42,253.56c.82-4-3.7-31.73-9.82-39s-25-16.77-40.3-23.47-41.71-14.69-48.88-10a25.8,25.8,0,0,0-11.3,24.47c1.34,10.39,1.8,12.14,14.5,19.54s83.43,38.25,88.45,36S760.59,257.51,761.42,253.56Z"/><path class="cls-12" d="M709.56,179.37c.54-2.56-2.39-20.55-6.35-25.25s-16.18-10.86-26.1-15.2-27-9.51-31.66-6.47a16.71,16.71,0,0,0-7.31,15.85c.87,6.73,1.16,7.86,9.39,12.65s54,24.77,57.27,23.31S709,181.93,709.56,179.37Z"/><path class="cls-11" d="M709.63,175.75c.45-2.29-2.74-17.35-6.42-21.63a68.62,68.62,0,0,0-21.41-15.59c-9.13-4-24.82-8.9-29-6.23a14.45,14.45,0,0,0-6.47,14.14c.88,6.06,1.17,7.08,8.74,11.5s49.7,23,52.65,21.71S709.17,178.05,709.63,175.75Z"/><path class="cls-11" d="M761.19,245.27c.6-3.24-4.18-24.55-9.59-30.7s-21.52-16.21-34.77-22.12-36-13.17-42-9.47a19.8,19.8,0,0,0-9,19.92c1.41,8.62,1.84,10.07,12.87,16.5s72.21,33.66,76.43,31.92S760.58,248.52,761.19,245.27Z"/><path class="cls-2" d="M692.86,160.06l-1.35-7.62a1.3,1.3,0,0,0-.75-1l-21.4-9.76a1.34,1.34,0,0,0-1.81.78l-2.29,6.7a1.33,1.33,0,0,0,.73,1.65l25,10.68A1.33,1.33,0,0,0,692.86,160.06Z"/><path class="cls-10" d="M751.6,214.57c-2.45-2.91-7-6.17-12.43-9.48,8.73,16.93,12.34,36.52,9.18,55.14,3,.85,5,1.19,5.72.87,5-2.25,6.52-3.59,7.35-7.54S757.72,221.83,751.6,214.57Z"/><path class="cls-10" d="M703.21,154.12a32.32,32.32,0,0,0-7.48-5.78,83.48,83.48,0,0,1,5.86,35.49,7.16,7.16,0,0,0,3.21.43c3.25-1.47,4.23-2.33,4.76-4.89S707.17,158.82,703.21,154.12Z"/></g></g></g></svg>