<svg xmlns="http://www.w3.org/2000/svg" viewBox="0 0 552 597.59"><defs><style>.cls-1{isolation:isolate;}.cls-2{fill:#5e17eb;}.cls-3{fill:#fff;}.cls-4{fill:#fce592;}.cls-5{fill:#e73952;}.cls-6{fill:#444;}.cls-7{fill:#195485;}.cls-8{fill:#2ed096;}.cls-9{fill:#070707;}.cls-10{fill:#208992;}.cls-11,.cls-12,.cls-19,.cls-22,.cls-30{fill:#2932b8;}.cls-11,.cls-13{opacity:0.5;}.cls-11,.cls-13,.cls-16,.cls-18,.cls-19,.cls-22,.cls-30{mix-blend-mode:multiply;}.cls-13,.cls-23,.cls-24,.cls-25,.cls-26,.cls-27,.cls-28,.cls-29{fill:none;}.cls-13{stroke:#2932b8;stroke-width:5.8px;}.cls-13,.cls-23,.cls-24,.cls-25,.cls-26{stroke-linecap:round;}.cls-13,.cls-16,.cls-23,.cls-24,.cls-25,.cls-26,.cls-27,.cls-28,.cls-29{stroke-miterlimit:10;}.cls-14{fill:#4375ff;}.cls-15{fill:#1e1d35;}.cls-16,.cls-18,.cls-20{fill:#ffe79b;}.cls-16,.cls-24,.cls-29{stroke:#fff;}.cls-17{fill:#ffb6af;}.cls-19{opacity:0.38;}.cls-21{fill:#ededed;}.cls-22{opacity:0.16;}.cls-23{stroke:#e73952;}.cls-23,.cls-25,.cls-26{stroke-width:5.05px;}.cls-24{stroke-width:2.53px;}.cls-25,.cls-27{stroke:#fce592;}.cls-26{stroke:#2ed096;}.cls-27{stroke-width:2px;}.cls-28{stroke:#443530;}.cls-29{stroke-width:0.93px;opacity:0.1;}.cls-30{opacity:0.2;}</style></defs><g class="cls-1"><g id="Layer_2" data-name="Layer 2"><g id="Layer_1-2" data-name="Layer 1"><path id="bg" class="cls-2" d="M374.12,161.24c32.14,22.17,67.05,36,76.2,61.24,9.14,25.49-7.48,62.62-13.86,96.15-6.37,33.25-2.49,63.18-4.43,101.14-1.94,37.68-9.7,83.68-35.47,111.39s-69.55,37.13-112.77,36c-43.23-.83-85.9-12.19-120.82-34.64-34.91-22.16-62.34-55.69-83.68-92.54-21.61-36.86-36.85-77.31-27.43-112.23,9.42-35.19,43.5-64.56,65.39-100.58,21.89-36.3,31.59-78.7,57.08-104.74,25.5-25.77,67.34-34.92,102.81-24.39S342,139.07,374.12,161.24Z"/><g id="papers"><path class="cls-3" d="M60.94,441.38c.23,15,3.34,55.76,16,63.75-21.11,11.76-43.72,29.68-43.72,29.68L20.35,476.46Z"/><path class="cls-3" d="M495.35,169.5c-2.65,14.79-11.88,54.58-23.66,61,15.5,13.95,31.23,34.12,31.23,34.12l20.19-56.06Z"/></g><g id="postits"><path class="cls-4" d="M393.8,294.77c-.82,6.15-4.55,22.51-12.6,24.41a286.88,286.88,0,0,1,25.12,16.93l10.45-22.53Z"/><path class="cls-4" d="M353,359c5.09,3.54,17.94,14.33,16,22.35a286.36,286.36,0,0,1,26.53-14.6l-15.27-19.6Z"/><path class="cls-4" d="M392.59,354.32c5.09,3.54,18,14.33,16,22.35a287.79,287.79,0,0,1,26.53-14.6l-15.26-19.6Z"/></g><path id="heart3" class="cls-5" d="M410.68,254.05s-14.24-38.24,0-47.53S434.86,219,434.86,219s12.32-3.22,18.5,5.79C468.3,246.55,410.68,254.05,410.68,254.05Z"/><g id="backpack"><path class="cls-6" d="M301.76,526.42c-6,11.1-12.68,11.68-20.48,12.38s-5.91,5.05-5.91,5.05,16-.54,20.69-5.68a148.14,148.14,0,0,0,9.51-11.86Z"/><path class="cls-7" d="M308.37,407.59c8.08,3.58,21.07,15.68,20.76,27.4s-7.6,53.49-12.17,67.83-3.6,20.1-7.3,24-16.14,5.49-18.12.94,23.86-83,25.15-91.24c1.43-9.12,2.33-14.14-10.63-20.85"/><path class="cls-8" d="M266.69,357.16c17.53-7.63,32.67,5.86,36.06,13.65s16.84,52.89,7.34,82.5S291,544.24,266.85,550.88s-67.05-21-74.23-41-37.33-43.21-21-82S266.69,357.16,266.69,357.16Z"/><path class="cls-9" d="M263.11,364.89c6.49-2.82,20.89-5.23,25.58,2s5.09,29.44,3.74,37-7.89,35.09-9.36,38.82-3.92,23.78-3.92,23.78L243,433.89Z"/><path class="cls-8" d="M62,509.55c9.8-41.33,11.43-66,40.95-90.4s5-70.12,15.16-82.26,53.5-40.28,95.93-33.26,44.92,19.83,47.6,34.87,2.91,88.29,10,104.52,16,34.54-8.95,44-169.1,66.74-182.26,57.8S62,509.55,62,509.55Z"/><path class="cls-10" d="M106.65,592.46c-22.84-7.87-49.7-54.05-44.57-83s162.49-59.14,179-50.3,48.46,70.62,25.73,92.09S129.48,600.33,106.65,592.46Z"/><path class="cls-7" d="M106.84,596.58c-20.58-6.48-44.13-46.42-39-71.82s148.43-54.56,163.25-47.12,42.73,60.93,21.74,80.11S127.42,603.07,106.84,596.58Z"/><path class="cls-10" d="M88.39,454.83c-.4-4.46,8.17-34.44,15.85-41.64S133.9,398,151.62,392.57s47.82-10.78,55.1-4.68A28.57,28.57,0,0,1,216,416.28c-2.82,11.27-3.55,13.13-18.48,19.63s-96.78,31.31-102,28.18S88.79,459.29,88.39,454.83Z"/><path class="cls-10" d="M128.14,353.4c-.26-2.88,5.29-22.3,10.26-27s19.21-9.86,30.69-13.36,31-7,35.68-3a18.51,18.51,0,0,1,6,18.39c-1.82,7.3-2.3,8.5-12,12.71s-62.68,20.28-66.06,18.25S128.4,356.29,128.14,353.4Z"/><path class="cls-8" d="M126,348.63c-.2-2.58,5.1-20,9.71-24.27s17.71-9.05,28.28-12.31,28.46-6.59,32.74-3.11A16,16,0,0,1,202,325.35c-1.75,6.55-2.2,7.64-11.11,11.51S133.23,355.73,130.16,354,126.2,351.22,126,348.63Z"/><path class="cls-8" d="M89.71,445.75c-.24-3.65,7.78-26.49,14.53-32.56s25.78-15.05,41.12-19.85,41.32-9.84,47.46-5a21.93,21.93,0,0,1,7.37,23.1c-2.66,9.3-3.33,10.84-16.3,16.49s-83.83,27.71-88.25,25.25S90,449.4,89.71,445.75Z"/><path class="cls-11" d="M280.82,538.63c-13.23,17.38-24.17,1.25-40.63-34.82s2.65-73.73,11-99-8.16-79.06,1.78-81.07c5-1,10.29,35.1,10.29,35.1s19.49-13.66,38.1,9.37c6.64,8.23,15.26,56.53,11,75.45C310.16,453.33,294.05,521.24,280.82,538.63Z"/><path class="cls-11" d="M197.51,435.91s-9.68-2.74-7.06-16.23,5.15-25.41,2.89-30.6,19-4.66,21.08,9.23S219.5,427.88,197.51,435.91Z"/><path class="cls-11" d="M200.6,340.3s-5.91-2-4.68-10.75,2.44-16.4.94-19.84,11.3-2.54,12.94,6.55S213.63,335.66,200.6,340.3Z"/><path class="cls-3" d="M149,334.31l2.47-8.21a1.47,1.47,0,0,1,1-1l24.82-8a1.46,1.46,0,0,1,1.88,1.09l1.66,7.66a1.46,1.46,0,0,1-1,1.72l-28.95,8.52A1.47,1.47,0,0,1,149,334.31Z"/></g><g id="laptop"><path class="cls-12" d="M285.25,306,204,227.14a11.31,11.31,0,0,1-2.25-3.07l-.6-1.22a11.32,11.32,0,0,1,4-14.56l113.92-74.07a11.34,11.34,0,0,1,14.07,1.37l82.22,79.81A11.33,11.33,0,0,1,413.63,233L299.32,307.35A11.33,11.33,0,0,1,285.25,306Z"/><path class="cls-13" d="M411.92,214.79a11,11,0,0,1-1.66,17L299.8,303.65"/><path class="cls-14" d="M285.9,298.11,208,222.5a10.79,10.79,0,0,1-2.16-2.94l-.58-1.17a10.86,10.86,0,0,1,3.8-14l109.25-71a10.86,10.86,0,0,1,13.49,1.31l78.85,76.54a10.86,10.86,0,0,1,.73,14.8h0a10.59,10.59,0,0,1-2.38,2.1L299.39,299.43A10.86,10.86,0,0,1,285.9,298.11Z"/><path class="cls-12" d="M190.74,201.75l10.8-105a22.28,22.28,0,0,1,1-4.34l.53-1.66c2.25-7,7.57-14.67,12.36-17.73L328.35.86c4.4-2.8,13.56,1.68,13,7.08l-11,106.43c-.63,6.09-5.19,14.72-10.44,19.75h0a18.74,18.74,0,0,1-2.87,2.31l-113.35,72.4C199.34,211.63,190.18,207.15,190.74,201.75Z"/><path class="cls-11" d="M197.18,204.38,208,99.37a22.12,22.12,0,0,1,.95-4.33l.54-1.67c2.24-7,7.56-14.66,12.35-17.72l113-72.15c4.4-2.81,7.12-1,6.56,4.44l-11,106.43c-.63,6.09-5.19,14.72-10.44,19.75h0a18.74,18.74,0,0,1-2.87,2.31l-113.35,72.4C199.34,211.63,196.62,209.79,197.18,204.38Z"/><path class="cls-15" d="M307.3,201.25a2.29,2.29,0,0,1,.36-3.72l1.55-1a4,4,0,0,1,4.67.46L315,198a2.28,2.28,0,0,1-.36,3.72l-1.54,1a4,4,0,0,1-4.67-.45Z"/><path class="cls-15" d="M316.31,195.39a2.29,2.29,0,0,1,.36-3.72l1.55-1a4,4,0,0,1,4.67.45l1.09,1.06a2.28,2.28,0,0,1-.36,3.72l-1.54,1a4,4,0,0,1-4.67-.45Z"/><path class="cls-15" d="M298.29,207.11a2.29,2.29,0,0,1,.36-3.72l1.54-1a4,4,0,0,1,4.68.45L306,203.9a2.29,2.29,0,0,1-.36,3.72l-1.54,1a4,4,0,0,1-4.67-.45Z"/><path class="cls-15" d="M271.26,224.69a2.3,2.3,0,0,1,.35-3.73l1.55-1a4,4,0,0,1,4.67.45l1.1,1.06a2.29,2.29,0,0,1-.36,3.72l-1.55,1a4,4,0,0,1-4.67-.45Z"/><path class="cls-15" d="M280.27,218.83a2.28,2.28,0,0,1,.36-3.72l1.54-1a4,4,0,0,1,4.67.45l1.1,1.06a2.29,2.29,0,0,1-.36,3.72l-1.55,1a4,4,0,0,1-4.67-.45Z"/><path class="cls-15" d="M289.28,213a2.28,2.28,0,0,1,.36-3.72l1.54-1a4,4,0,0,1,4.67.45l1.1,1.06a2.3,2.3,0,0,1-.36,3.73l-1.55,1a4,4,0,0,1-4.67-.45Z"/><path class="cls-15" d="M266.79,191.21a2.3,2.3,0,0,1,.36-3.73l1.55-1a4,4,0,0,1,4.67.45l1.09,1.06a2.29,2.29,0,0,1-.35,3.72l-1.55,1a4,4,0,0,1-4.67-.45Z"/><path class="cls-15" d="M284.82,179.49a2.28,2.28,0,0,1,.36-3.72l1.54-1a4,4,0,0,1,4.67.45l1.1,1.06a2.3,2.3,0,0,1-.36,3.73l-1.55,1a4,4,0,0,1-4.67-.45Z"/><path class="cls-15" d="M275.8,185.35a2.29,2.29,0,0,1,.36-3.72l1.55-1a4,4,0,0,1,4.67.45l1.1,1.06a2.3,2.3,0,0,1-.36,3.73l-1.55,1a4,4,0,0,1-4.67-.45Z"/><path class="cls-15" d="M326.84,176.42a2.29,2.29,0,0,1,.36-3.72l1.54-1a4,4,0,0,1,4.68.46l1.09,1.06a2.28,2.28,0,0,1-.36,3.72l-1.54,1a4,4,0,0,1-4.67-.45Z"/><path class="cls-15" d="M248.77,202.92a2.29,2.29,0,0,1,.36-3.72l1.55-1a4,4,0,0,1,4.67.45l1.09,1.06a2.28,2.28,0,0,1-.36,3.72l-1.54,1a4,4,0,0,1-4.67-.45Z"/><path class="cls-15" d="M257.78,197.07a2.3,2.3,0,0,1,.36-3.73l1.55-1a4,4,0,0,1,4.67.45l1.09,1.06a2.28,2.28,0,0,1-.36,3.72l-1.54,1a4,4,0,0,1-4.67-.45Z"/><path class="cls-15" d="M293.83,173.63a2.28,2.28,0,0,1,.36-3.72l1.54-1a4,4,0,0,1,4.67.46l1.1,1.06a2.29,2.29,0,0,1-.36,3.72l-1.55,1a4,4,0,0,1-4.67-.45Z"/><path class="cls-15" d="M319.34,169.17a2.29,2.29,0,0,1,.36-3.72l1.55-1a4,4,0,0,1,4.67.45L327,166a2.29,2.29,0,0,1-.36,3.72l-1.55,1a4,4,0,0,1-4.67-.45Z"/><path class="cls-15" d="M311.85,161.91a2.29,2.29,0,0,1,.36-3.72l1.54-1a4,4,0,0,1,4.68.45l1.09,1.06a2.28,2.28,0,0,1-.36,3.72l-1.54,1A4,4,0,0,1,313,163Z"/><path class="cls-15" d="M302.84,167.77a2.28,2.28,0,0,1,.36-3.72l1.54-1a4,4,0,0,1,4.67.45l1.1,1.06a2.29,2.29,0,0,1-.36,3.72l-1.54,1a4,4,0,0,1-4.68-.45Z"/><path class="cls-15" d="M325.32,189.53a2.29,2.29,0,0,1,.36-3.72l1.55-1a4,4,0,0,1,4.67.45l1.1,1.06a2.29,2.29,0,0,1-.36,3.72l-1.55,1a4,4,0,0,1-4.67-.46Z"/><path class="cls-15" d="M290.79,199.86a2.3,2.3,0,0,1,.36-3.73l1.55-1a4,4,0,0,1,4.67.45l1.1,1.06a2.29,2.29,0,0,1-.36,3.72l-1.55,1a4,4,0,0,1-4.67-.45Z"/><path class="cls-15" d="M308.82,188.14a2.28,2.28,0,0,1,.36-3.72l1.54-1a4,4,0,0,1,4.67.45l1.1,1.06a2.3,2.3,0,0,1-.36,3.73l-1.55,1a4,4,0,0,1-4.67-.45Z"/><path class="cls-15" d="M299.81,194a2.28,2.28,0,0,1,.36-3.72l1.54-1a4,4,0,0,1,4.67.45l1.1,1.06a2.29,2.29,0,0,1-.36,3.72l-1.55,1a4,4,0,0,1-4.67-.45Z"/><path class="cls-15" d="M317.83,182.28a2.28,2.28,0,0,1,.36-3.72l1.54-1a4,4,0,0,1,4.67.45l1.1,1.07a2.29,2.29,0,0,1-.36,3.72l-1.54,1a4,4,0,0,1-4.68-.45Z"/><path class="cls-15" d="M328.36,163.31a2.28,2.28,0,0,1,.36-3.72l1.54-1a4,4,0,0,1,4.67.45l1.1,1.06a2.3,2.3,0,0,1-.36,3.73l-1.55,1a4,4,0,0,1-4.67-.45Z"/><path class="cls-15" d="M281.78,205.71a2.29,2.29,0,0,1,.36-3.72l1.55-1a4,4,0,0,1,4.67.45l1.09,1.06a2.29,2.29,0,0,1-.35,3.72l-1.55,1a4,4,0,0,1-4.67-.45Z"/><path class="cls-15" d="M310.33,175a2.3,2.3,0,0,1,.36-3.73l1.55-1a4,4,0,0,1,4.67.45l1.1,1.06a2.29,2.29,0,0,1-.36,3.72l-1.55,1a4,4,0,0,1-4.67-.45Z"/><path class="cls-15" d="M334.33,183.67a2.29,2.29,0,0,1,.36-3.72l10.56-6.86a4,4,0,0,1,4.67.45l1.1,1.06a2.29,2.29,0,0,1-.36,3.72l-10.56,6.87a4,4,0,0,1-4.67-.45Z"/><path class="cls-15" d="M272.77,211.57a2.29,2.29,0,0,1,.36-3.72l1.55-1a4,4,0,0,1,4.67.45l1.09,1.06a2.28,2.28,0,0,1-.36,3.72l-1.54,1a4,4,0,0,1-4.67-.46Z"/><path class="cls-15" d="M239.76,208.78a2.29,2.29,0,0,1,.36-3.72l1.54-1a4,4,0,0,1,4.68.45l1.09,1.06a2.28,2.28,0,0,1-.36,3.72l-1.54,1a4,4,0,0,1-4.67-.46Z"/><path class="cls-15" d="M254.75,223.29a2.29,2.29,0,0,1,.36-3.72l1.54-1a4,4,0,0,1,4.67.46l1.1,1.06a2.29,2.29,0,0,1-.36,3.72l-1.54,1a4,4,0,0,1-4.67-.45Z"/><path class="cls-15" d="M256.27,210.18a2.28,2.28,0,0,1,.36-3.72l1.54-1a4,4,0,0,1,4.67.45l1.1,1.06a2.3,2.3,0,0,1-.36,3.73l-1.55,1a4,4,0,0,1-4.67-.45Z"/><path class="cls-15" d="M263.76,217.43a2.29,2.29,0,0,1,.36-3.72l1.55-1a4,4,0,0,1,4.67.45l1.09,1.06a2.28,2.28,0,0,1-.36,3.72l-1.54,1a4,4,0,0,1-4.67-.45Z"/><path class="cls-15" d="M301.32,180.88a2.29,2.29,0,0,1,.36-3.72l1.55-1a4,4,0,0,1,4.67.45l1.09,1.06a2.28,2.28,0,0,1-.36,3.72l-1.54,1a4,4,0,0,1-4.67-.45Z"/><path class="cls-15" d="M283.3,192.6a2.29,2.29,0,0,1,.36-3.72l1.54-1a4,4,0,0,1,4.68.45l1.09,1.06a2.28,2.28,0,0,1-.36,3.72l-1.54,1a4,4,0,0,1-4.67-.45Z"/><path class="cls-15" d="M292.31,186.74a2.29,2.29,0,0,1,.36-3.72l1.55-1a4,4,0,0,1,4.67.45l1.09,1.06a2.28,2.28,0,0,1-.36,3.72l-1.54,1a4,4,0,0,1-4.67-.46Z"/><path class="cls-15" d="M265.28,204.32a2.28,2.28,0,0,1,.36-3.72l1.54-1a4,4,0,0,1,4.67.45l1.1,1.07a2.29,2.29,0,0,1-.36,3.72l-1.55,1a4,4,0,0,1-4.67-.45Z"/><path class="cls-15" d="M274.29,198.46a2.28,2.28,0,0,1,.36-3.72l1.54-1a4,4,0,0,1,4.67.46l1.1,1.06a2.29,2.29,0,0,1-.36,3.72l-1.55,1a4,4,0,0,1-4.67-.45Z"/><path class="cls-15" d="M278.75,231.94a2.29,2.29,0,0,1,.36-3.72l1.55-1a4,4,0,0,1,4.67.46l1.07,1a2.29,2.29,0,0,1-.35,3.72l-1.55,1a4,4,0,0,1-4.67-.46Z"/><path class="cls-15" d="M260.73,243.66a2.28,2.28,0,0,1,.36-3.72l1.54-1a4,4,0,0,1,4.67.45l1.08,1.05a2.28,2.28,0,0,1-.36,3.72l-1.54,1a4,4,0,0,1-4.67-.45Z"/><path class="cls-15" d="M269.74,237.8a2.29,2.29,0,0,1,.36-3.72l1.54-1a4,4,0,0,1,4.67.45l1.08,1a2.28,2.28,0,0,1-.36,3.72l-1.54,1a4,4,0,0,1-4.67-.45Z"/><path class="cls-15" d="M287.76,226.08a2.29,2.29,0,0,1,.36-3.72l28.58-18.58a4,4,0,0,1,4.67.45l1.08,1a2.3,2.3,0,0,1-.36,3.73l-28.58,18.58a4,4,0,0,1-4.67-.45Z"/><path class="cls-15" d="M238.24,221.9a2.3,2.3,0,0,1,.36-3.73l10.56-6.86a4,4,0,0,1,4.67.45l1.1,1.06a2.29,2.29,0,0,1-.36,3.72L244,223.41a4,4,0,0,1-4.67-.45Z"/><path class="cls-15" d="M245.74,229.15a2.28,2.28,0,0,1,.36-3.72l1.54-1a4,4,0,0,1,4.67.46l1.1,1.06a2.29,2.29,0,0,1-.36,3.72l-1.55,1a4,4,0,0,1-4.67-.45Z"/><path class="cls-15" d="M253.23,236.4a2.29,2.29,0,0,1,.36-3.72l10.56-6.86a4,4,0,0,1,4.67.45l1.1,1.06a2.29,2.29,0,0,1-.36,3.72L259,237.92a4,4,0,0,1-4.67-.46Z"/><path class="cls-15" d="M332.82,196.79a2.28,2.28,0,0,1,.36-3.72l1.54-1a4,4,0,0,1,4.67.45l1.08,1.05a2.28,2.28,0,0,1-.36,3.72l-1.54,1a4,4,0,0,1-4.67-.45Z"/><path class="cls-15" d="M230.75,214.64a2.28,2.28,0,0,1,.36-3.72l1.54-1a4,4,0,0,1,4.67.45l1.1,1.06a2.29,2.29,0,0,1-.36,3.72l-1.54,1a4,4,0,0,1-4.68-.45Z"/><path class="cls-15" d="M323.81,202.65a2.29,2.29,0,0,1,.36-3.73l1.54-1a4,4,0,0,1,4.67.45l1.08,1a2.28,2.28,0,0,1-.36,3.72l-1.54,1a4,4,0,0,1-4.67-.45Z"/><path class="cls-15" d="M335.85,170.56a2.29,2.29,0,0,1,.36-3.72l1.55-1a4,4,0,0,1,4.67.45l1.09,1.06a2.28,2.28,0,0,1-.36,3.72l-1.54,1a4,4,0,0,1-4.67-.45Z"/><path class="cls-15" d="M320.86,156.05a2.29,2.29,0,0,1,.36-3.72l1.55-1a4,4,0,0,1,4.67.45l1.09,1.06a2.28,2.28,0,0,1-.36,3.72l-1.54,1a4,4,0,0,1-4.67-.45Z"/><path class="cls-15" d="M341.83,190.93a2.29,2.29,0,0,1,.36-3.72l1.54-1a4,4,0,0,1,4.68.45l1.07,1a2.28,2.28,0,0,1-.36,3.72l-1.54,1a4,4,0,0,1-4.67-.45Z"/><path class="cls-15" d="M350.84,185.07a2.29,2.29,0,0,1,.36-3.72l1.55-1a4,4,0,0,1,4.67.45l1.08,1.05a2.29,2.29,0,0,1-.36,3.72l-1.55,1a4,4,0,0,1-4.67-.46Z"/><path class="cls-12" d="M330.76,266.54l-24.52-23.8a2.47,2.47,0,0,1,.37-3.84L340.37,217a2.45,2.45,0,0,1,3.06.3l24.51,23.79a2.46,2.46,0,0,1-.37,3.84l-33.75,21.95A2.47,2.47,0,0,1,330.76,266.54Z"/><path class="cls-3" d="M207.37,190.51l9.27-90.18a19,19,0,0,1,.83-3.72l.45-1.43c1.93-6,6.5-12.59,10.61-15.22l97-62c3.77-2.41,6.11-.83,5.63,3.82l-9.4,91.39c-.54,5.23-4.46,12.64-9,17h0a15.81,15.81,0,0,1-2.46,2L213,194.32C209.22,196.73,206.89,195.15,207.37,190.51Z"/><path class="cls-16" d="M223.22,146.54l4.53-44a9.41,9.41,0,0,1,.4-1.82l.23-.7c.94-3,3.17-6.15,5.18-7.43L281,62.27c1.84-1.18,3-.4,2.75,1.86l-4.59,44.65a15.62,15.62,0,0,1-4.38,8.29h0a8.29,8.29,0,0,1-1.21,1L226,148.41C224.13,149.59,223,148.81,223.22,146.54Z"/><path class="cls-17" d="M257,150.2l4.53-44a10.22,10.22,0,0,1,.4-1.82l.23-.69c.94-3,3.17-6.16,5.18-7.44l47.39-30.27c1.85-1.18,3-.4,2.75,1.87l-4.59,44.64a15.62,15.62,0,0,1-4.38,8.29h0a8.29,8.29,0,0,1-1.21,1L259.7,152.07C257.86,153.25,256.72,152.47,257,150.2Z"/><path class="cls-18" d="M271.73,102.31l2.5-24.3a4.66,4.66,0,0,1,.22-1l.12-.39a8.4,8.4,0,0,1,2.86-4.1l26.14-16.7c1-.65,1.65-.22,1.52,1l-2.53,24.63a8.68,8.68,0,0,1-2.42,4.57h0a4.14,4.14,0,0,1-.66.53l-26.23,16.76C272.23,104,271.6,103.56,271.73,102.31Z"/><path class="cls-19" d="M208.13,212.33c33,1.76,134.75,19.46,168.36,36.72l31.95-20.31a11.64,11.64,0,0,0,1.82-18.22L324.7,128.36l-118,78.71A2.87,2.87,0,0,0,208.13,212.33Z"/></g><g id="bottle"><path class="cls-20" d="M108.66,337.56c1.38,1.19-.06,5.13-3.22,8.8s-6.86,5.67-8.24,4.48L69.64,327.06l11.45-13.29Z"/><ellipse class="cls-20" cx="75.37" cy="320.42" rx="8.77" ry="3.31" transform="translate(-216.47 168.17) rotate(-49.21)"/><path class="cls-8" d="M76.23,315.37c.69.59,0,2.56-1.62,4.4S71.19,322.6,70.5,322l-3.76-3.25,5.73-6.64Z"/><ellipse class="cls-8" cx="69.6" cy="315.44" rx="4.39" ry="1.65" transform="translate(-214.7 162.09) rotate(-49.21)"/><path class="cls-8" d="M84.14,328c-3.17,3.67-6.85,5.67-8.24,4.48l15,13c1.38,1.2,5.07-.81,8.23-4.48a21,21,0,0,0,2.07-2.81l-15-13A21.58,21.58,0,0,1,84.14,328Z"/></g><g id="book2"><polygon class="cls-8" points="439.5 469.58 348.61 531.05 289.21 480.8 380.11 419.32 439.5 469.58"/><polygon class="cls-21" points="439.18 462.97 348.28 524.44 289.33 480.85 380.22 419.38 439.18 462.97"/><polygon class="cls-3" points="437.65 454.7 346.76 516.17 289.33 480.85 380.22 419.38 437.65 454.7"/><polygon class="cls-21" points="439.18 444.56 348.28 506.04 289.33 480.85 380.22 419.38 439.18 444.56"/><polygon class="cls-3" points="437.65 436.3 346.76 497.77 289.33 480.85 380.22 419.38 437.65 436.3"/><polygon class="cls-8" points="437.54 429.16 346.64 490.63 289.21 480.8 380.11 419.32 437.54 429.16"/><polygon class="cls-3" points="404.02 439.24 388.13 449.98 360.49 445.25 376.38 434.5 404.02 439.24"/><path class="cls-22" d="M334,483.84l-4.89,3.8-39.93-6.84L337,448.46h0A24.14,24.14,0,0,1,334,483.84Z"/></g><g id="book1"><polygon class="cls-5" points="538.77 298.17 552 367.2 482.07 401.29 468.83 332.26 538.77 298.17"/><polygon class="cls-21" points="532.59 295.8 545.83 364.83 482.16 401.21 468.93 332.18 532.59 295.8"/><polygon class="cls-3" points="524.41 293.86 537.65 362.89 482.16 401.21 468.93 332.18 524.41 293.86"/><polygon class="cls-21" points="497.5 285.83 510.73 354.86 482.16 401.21 468.93 332.18 497.5 285.83"/><polygon class="cls-3" points="485.05 282.77 498.28 351.79 482.16 401.21 468.93 332.18 485.05 282.77"/><polygon class="cls-5" points="476.46 281.71 489.69 350.74 482.07 401.29 468.83 332.26 476.46 281.71"/></g><path id="heart2" class="cls-5" d="M134.6,143.67S77.58,114.56,81,89.32s37.6-10.61,37.6-10.61,8.36-16.34,24.55-12.38C182.26,75.9,134.6,143.67,134.6,143.67Z"/><path id="heart1" class="cls-5" d="M126.57,433.84s-42,15.65-52.24,0S88,407.26,88,407.26s-3.54-13.54,6.36-20.33C118.33,370.51,126.57,433.84,126.57,433.84Z"/><g id="pens"><line class="cls-23" x1="339.78" y1="385.63" x2="345.48" y2="327.22"/><line class="cls-24" x1="343.86" y1="329.65" x2="342.44" y2="345.32"/><line class="cls-25" x1="328.5" y1="401.44" x2="319.39" y2="343.47"/><line class="cls-24" x1="320.11" y1="346.23" x2="322.65" y2="361.76"/><line class="cls-26" x1="366.46" y1="360.46" x2="364.05" y2="301.83"/><line class="cls-24" x1="364.12" y1="304.51" x2="364.87" y2="320.23"/></g><g id="compass"><path class="cls-2" d="M406.22,165.4l-59-62.58L354.5,96a43,43,0,1,1,59,62.57Zm-29.15-60.08,28.41,30.14a23,23,0,0,0-28.41-30.14Z"/><line class="cls-27" x1="352.2" y1="108.16" x2="359.47" y2="101.31"/><line class="cls-27" x1="358.32" y1="114.65" x2="365.6" y2="107.79"/><line class="cls-27" x1="364.44" y1="121.14" x2="371.72" y2="114.28"/><line class="cls-27" x1="401.18" y1="160.08" x2="408.46" y2="153.22"/><line class="cls-27" x1="395.06" y1="153.59" x2="402.33" y2="146.73"/><line class="cls-27" x1="388.94" y1="147.1" x2="396.21" y2="140.24"/><line class="cls-27" x1="382.81" y1="140.61" x2="390.09" y2="133.75"/><line class="cls-27" x1="376.69" y1="134.12" x2="383.97" y2="127.26"/><line class="cls-27" x1="370.57" y1="127.63" x2="377.84" y2="120.77"/></g><g id="masks"><path class="cls-28" d="M5.18,294.57S1.36,299.68.56,302,6.9,317.58,11,319.1s6.12-10.33,6.12-10.33"/><path class="cls-28" d="M68,273.49S78.4,269,80.14,266.88s1.23-17.12-1.77-19.68-12.15,6.6-12.15,6.6"/><path class="cls-28" d="M81.23,211.38s-10.4,4.46-12.15,6.6-1.22,17.13,1.78,19.69S83,231.07,83,231.07"/><path class="cls-28" d="M152.74,214.14s-8.29,3.89-10,6-1.23,17.13,1.77,19.69,12.15-6.6,12.15-6.6"/><path class="cls-14" d="M76.09,209.49c-1.85,2.86,6.87,30.09,12,32.07s18.19-5.69,32.68-7.88,35.15,5.74,38,3.3-5.78-30.37-8.16-30.58-26.28-7.26-35.36-6.52C107.56,200.51,79.38,204.42,76.09,209.49Z"/><path class="cls-2" d="M21.39,315.87C17.68,315.26-1.54,291.51.94,287.2c7.88-13.71,13.27-24,23.21-30.94,12-8.41,23.43-7.42,40-8.73,3.72-.29,10.12,29.22,8.16,30.58S51.12,290,42.88,293.86C35.89,297.15,28,317,21.39,315.87Z"/><path class="cls-28" d="M139.05,286.22s8.24-.32,10.28-1.36,8.8-11.74,8.24-14.35-10.28,1.36-10.28,1.36"/><path class="cls-28" d="M95.39,277.25s-8.24.32-10.28,1.36-8.8,11.74-8.24,14.36,10.28-1.36,10.28-1.36"/><path class="cls-15" d="M150.28,266.47c1.05,1.92-8.59,23.25-12.68,25.33s-19.62,4.06-30.18,4.11-20.18,2.17-22,.68,7.82-23.34,9.61-23.77,14.36-2.71,21-3.21C121.74,269.19,148.42,263.06,150.28,266.47Z"/><path class="cls-29" d="M16.45,311.85s5.45-19,12.83-23.72,42.91-16.55,42.91-16.55"/><path class="cls-29" d="M147.29,271.87S117.82,280.13,109,280a149,149,0,0,1-17.53-1.49"/><path class="cls-29" d="M145.88,278.78s-30,6.55-38.78,6.4a147.83,147.83,0,0,1-17.53-1.5"/><path class="cls-29" d="M144.14,285s-30,6.55-38.78,6.4a147.83,147.83,0,0,1-17.53-1.5"/><path class="cls-29" d="M10.07,304.25s13.79-26.07,21.17-30.76,38.9-9.57,38.9-9.57"/><path class="cls-29" d="M4.55,296.34s15.61-25.86,23-30.55,40.56-9.53,40.56-9.53"/><path class="cls-29" d="M77.77,216.93s24.76-10.22,33.68-10.8,42.91,6.08,42.91,6.08"/><path class="cls-29" d="M79.82,224.59s24.75-10.22,33.68-10.79,42.9,6.07,42.9,6.07"/><path class="cls-29" d="M82.07,233s24.75-10.22,33.68-10.8,42.9,6.08,42.9,6.08"/><path class="cls-30" d="M150.62,206.4c-1.22-.1-8.22-2-15.94-3.79-3.42,9.37-7.11,19.76-9.52,30.7,14-.38,31.07,5.87,33.62,3.67C161.61,234.55,153,206.61,150.62,206.4Z"/><path class="cls-30" d="M95,272.82c-3.79,1.86-11.2,23.83-8.61,23.77,4.16-.11,7.31-.17,10-.29a28.21,28.21,0,0,0,9.56-9.46c1.55-2.38,2.84-8.61,3.64-16.24C103,271.53,95.93,272.37,95,272.82Z"/></g></g></g></g></svg>