<svg id="Layer_1" data-name="Layer 1" xmlns="http://www.w3.org/2000/svg" viewBox="0 0 729.48 626.68"><defs><style>.cls-1{fill:#231f20;}</style></defs><g id="Page-1"><g id="Artboard-Copy-4"><g id="Group"><g id="w6-ma-squiggle-border"><path class="cls-1" d="M157,369.56a31.22,31.22,0,0,1-21.71-8.8l-.4-.4A39.24,39.24,0,0,0,106,348.93l-.61,0a31.23,31.23,0,0,1-29.89-18.14l-.22-.5a39.09,39.09,0,0,0-22.74-21.06l-.58-.2a31.19,31.19,0,0,1-21.31-27.71l0-.55a39.13,39.13,0,0,0-13.6-27.86l-.47-.39A31.22,31.22,0,0,1,6.72,219l.18-.54a39.09,39.09,0,0,0-2.61-30.87L4,187.06a31.2,31.2,0,0,1,2.91-34.81l.36-.44A39.07,39.07,0,0,0,16,122.07l-.08-.62A31.19,31.19,0,0,1,31.19,90l.48-.27A39.14,39.14,0,0,0,50.55,65.17l.14-.6A31.23,31.23,0,0,1,76.32,40.79l.54-.08a39.06,39.06,0,0,0,26.48-16.1l.35-.51a31.21,31.21,0,0,1,32.48-12.91l.54.12a39.07,39.07,0,0,0,30.5-5.45l.52-.35a31.21,31.21,0,0,1,34.93-.33l.48.32a39.08,39.08,0,0,0,30.41,5.95l.62-.14a31.2,31.2,0,0,1,32.7,12.33l.31.45a39,39,0,0,0,26.23,16.53l.61.09a31.21,31.21,0,0,1,26,23.33l.12.52a39.08,39.08,0,0,0,18.49,24.89l.53.3a31.21,31.21,0,0,1,15.86,31.15l-.07.54a39.07,39.07,0,0,0,8.24,29.88l.4.49a31.2,31.2,0,0,1,3.54,34.75l-.28.5a39.08,39.08,0,0,0-3.11,30.83l.2.6a31.19,31.19,0,0,1-9.26,33.69l-.42.36a39.1,39.1,0,0,0-14.05,27.64l0,.62a31.2,31.2,0,0,1-20.82,28.08l-.51.17a39.11,39.11,0,0,0-23.08,20.71l-.25.56A31.2,31.2,0,0,1,266,349l-.54,0a39.13,39.13,0,0,0-29,11l-.43.43a31.2,31.2,0,0,1-34.29,6.73l-.52-.22a39.08,39.08,0,0,0-31-.26l-.59.26A31.32,31.32,0,0,1,157,369.56ZM185.44,356a46.42,46.42,0,0,1,18.82,4l.45.19a23.66,23.66,0,0,0,26-5.13l.48-.47a46.68,46.68,0,0,1,34.62-13.13l.47,0a23.71,23.71,0,0,0,22.39-14.17l.27-.62a46.71,46.71,0,0,1,27.54-24.74l.45-.15a23.63,23.63,0,0,0,15.75-21.3l0-.68a46.73,46.73,0,0,1,16.74-33l.37-.31a23.65,23.65,0,0,0,7-25.54l-.21-.65a46.67,46.67,0,0,1,3.68-36.83l.24-.44a23.63,23.63,0,0,0-2.72-26.33l-.43-.53a46.68,46.68,0,0,1-9.87-35.67l.06-.48a23.65,23.65,0,0,0-12-23.59l-.59-.33a46.67,46.67,0,0,1-22.09-29.7l-.12-.46A23.65,23.65,0,0,0,293,48.21l-.67-.09A46.68,46.68,0,0,1,261,28.4l-.28-.39a23.64,23.64,0,0,0-24.79-9.32l-.67.15a46.66,46.66,0,0,1-36.33-7.07l-.42-.28a23.64,23.64,0,0,0-26.46.28l-.57.38A46.65,46.65,0,0,1,135,18.69l-.47-.11a23.67,23.67,0,0,0-24.6,9.82l-.38.55A46.66,46.66,0,0,1,77.93,48.21l-.47.07a23.67,23.67,0,0,0-19.4,18L57.9,67A46.62,46.62,0,0,1,35.38,96.36L35,96.6A23.64,23.64,0,0,0,23.4,120.43l.09.68A46.68,46.68,0,0,1,13.1,156.63l-.32.38a23.67,23.67,0,0,0-2.16,26.39L11,184a46.67,46.67,0,0,1,3.14,36.87l-.15.46a23.64,23.64,0,0,0,7.51,25.39l.51.43a46.72,46.72,0,0,1,16.26,33.27l0,.48a23.65,23.65,0,0,0,16.17,21l.64.22a46.67,46.67,0,0,1,27.18,25.14l.19.43a23.63,23.63,0,0,0,22.67,13.72l.67,0A46.82,46.82,0,0,1,140.19,355l.35.34a23.67,23.67,0,0,0,26.08,4.6l.67-.29A46.51,46.51,0,0,1,185.44,356Z"/></g><g id="Ward6MutualAid"><path class="cls-1" d="M107.64,141.9l5.4-21.36,1.84-9.26H115l1.84,9.26,5.46,21.36h9.2l11.4-39.17h-8.37l-7.66,32.35-8-32.35h-7.84l-7.83,32.35-7.71-32.35H86.81l11.4,39.17Zm46.59.6a13.8,13.8,0,0,0,4.72-.83,10.8,10.8,0,0,0,3.89-2.41,6.87,6.87,0,0,0,.67-.76l.19-.27.05.17a5.16,5.16,0,0,0,.41.89l.16.27a5.66,5.66,0,0,0,2.61,2.16,9.34,9.34,0,0,0,3.74.72,8.67,8.67,0,0,0,3.86-.77h0l.47-5a5.87,5.87,0,0,1-1.9.3c-1.42,0-2.13-.75-2.13-2.26h0v-12a10.72,10.72,0,0,0-1.64-6.11,9.88,9.88,0,0,0-4.54-3.65,17.57,17.57,0,0,0-6.82-1.21c-3.84,0-6.89.79-9.17,2.37a10.72,10.72,0,0,0-4.42,6.29h0l6.94,2.14a6.57,6.57,0,0,1,2.44-3.74,6.69,6.69,0,0,1,3.85-1.13,5.27,5.27,0,0,1,3.83,1.42,5.32,5.32,0,0,1,1.46,4h0v1.14l-10.2,2.07a11.89,11.89,0,0,0-5.84,2.62l-.28.25a7.32,7.32,0,0,0-2.13,5.43,7.69,7.69,0,0,0,1.19,4.4,7.39,7.39,0,0,0,3.38,2.7A13.5,13.5,0,0,0,154.23,142.5Zm2.08-5.76a4.5,4.5,0,0,1-2.64-.77,2.6,2.6,0,0,1-1.1-2.26,2.45,2.45,0,0,1,1-2.22,8.92,8.92,0,0,1,3-1.1h0l6.23-1.25V131a6.67,6.67,0,0,1-.41,2.44l-.13.29a4.33,4.33,0,0,1-1.48,1.78,6.37,6.37,0,0,1-2.14.95A9.86,9.86,0,0,1,156.31,136.74Zm31.87,5.16V126.53a8.29,8.29,0,0,1,1.07-4.42A6.83,6.83,0,0,1,192,119.5a7.4,7.4,0,0,1,3.44-.86,16.58,16.58,0,0,1,2.22.12,6.81,6.81,0,0,1,1.46.35h0l1-6.82a5,5,0,0,0-1.37-.48,8.66,8.66,0,0,0-1.84-.17,9.45,9.45,0,0,0-5.72,1.66,10.25,10.25,0,0,0-3.48,4.75h0l-.53-5.82h-7.06V141.9Zm27.54.6a11,11,0,0,0,5-1.13,10.16,10.16,0,0,0,3.74-3.18,9.41,9.41,0,0,0,1-1.83l.05-.12.33,5.66h7.3V99.23H225v18.12l-.05-.13a10,10,0,0,0-2.19-3l-.31-.29a9.42,9.42,0,0,0-6.47-2.25,12.35,12.35,0,0,0-6.62,1.81,12.48,12.48,0,0,0-4.65,5.28,18.69,18.69,0,0,0-1.72,8.4,19,19,0,0,0,1.63,8.24,12.39,12.39,0,0,0,4.51,5.29A12,12,0,0,0,215.72,142.5Zm2.37-6.24a6.11,6.11,0,0,1-5.1-2.34c-1.23-1.56-1.84-3.85-1.84-6.85s.62-5.3,1.87-6.86a6.26,6.26,0,0,1,5.19-2.34,6.16,6.16,0,0,1,3.62,1.07,6.73,6.73,0,0,1,2.37,3,12.46,12.46,0,0,1,.83,4.84,13.47,13.47,0,0,1-.86,5.1,7,7,0,0,1-2.4,3.24A6.2,6.2,0,0,1,218.09,136.26Zm57,6.24a16.88,16.88,0,0,0,7.57-1.58,11.52,11.52,0,0,0,4.93-4.51,13.19,13.19,0,0,0,1.75-6.85,12.58,12.58,0,0,0-1.63-6.53,10.86,10.86,0,0,0-4.52-4.18,14.42,14.42,0,0,0-6.61-1.46,13.22,13.22,0,0,0-4.07.66,10.75,10.75,0,0,0-3.68,2,7.14,7.14,0,0,0-2.28,3.45h0l-.18-.24h0v-1a23.47,23.47,0,0,1,.59-5.43,13.86,13.86,0,0,1,1.72-4.22,9,9,0,0,1,2.7-2.73,6.68,6.68,0,0,1,3.59-1,6.91,6.91,0,0,1,4.49,1.33,7.4,7.4,0,0,1,2.34,3.65h0l6.88-3.2a12.47,12.47,0,0,0-3-5,11.7,11.7,0,0,0-4.48-2.73,17.86,17.86,0,0,0-5.7-.86,16.33,16.33,0,0,0-8.49,2.25,15.46,15.46,0,0,0-6,6.8,26,26,0,0,0-2.2,11.37,26.33,26.33,0,0,0,2,10.74,14.8,14.8,0,0,0,14.27,9.2Zm-.12-6.53a6.9,6.9,0,0,1-3.35-.83,6.68,6.68,0,0,1-2.43-2.26,6.29,6.29,0,0,1,0-6.5,6.25,6.25,0,0,1,2.37-2.19,7.08,7.08,0,0,1,3.44-.8,8,8,0,0,1,3.63.74,5.06,5.06,0,0,1,2.25,2.16,6.94,6.94,0,0,1,.77,3.33,6.15,6.15,0,0,1-1.75,4.69A6.87,6.87,0,0,1,274.94,136ZM98.21,211.35V190.94l-.42-11.46h.12l10.8,31.87h6.71l10.86-31.87h.12L126,190.94v20.41h7.36V172.18H121.89l-7,21.43-2.55,8.78h-.12l-2.49-8.84-7.06-21.37H90.79v39.17Zm54.6.6a12.88,12.88,0,0,0,6.2-1.4,9.69,9.69,0,0,0,4.06-4.36h0l.3,5.16h7.24V181.68h-8.13v16a10.91,10.91,0,0,1-.53,3.59,6.72,6.72,0,0,1-1.46,2.47,5.59,5.59,0,0,1-2.1,1.39,6.89,6.89,0,0,1-2.44.45,5.76,5.76,0,0,1-4.09-1.34q-1.43-1.33-1.43-4.78h0V181.68H142.3v19.7a11.81,11.81,0,0,0,1.4,6.09,8.23,8.23,0,0,0,3.77,3.41A12.89,12.89,0,0,0,152.81,212Zm38.81,0a15.19,15.19,0,0,0,4.51-.66,10.7,10.7,0,0,0,3.56-1.78h0l-1.3-5.4a7.16,7.16,0,0,1-2,1.22,7,7,0,0,1-2.64.44,4.35,4.35,0,0,1-3-1,4,4,0,0,1-1.1-3.12h0v-14h9.5v-6h-9.5V172.6l-8.13,2.25v6.83h-5.46v6h5.46V203a9.77,9.77,0,0,0,1.11,5l.17.27a7.32,7.32,0,0,0,3.56,2.85A14.44,14.44,0,0,0,191.62,212ZM215,212a12.92,12.92,0,0,0,6.21-1.4,9.69,9.69,0,0,0,4.06-4.36h0l.3,5.16h7.24V181.68h-8.13v16a10.64,10.64,0,0,1-.54,3.59,6.71,6.71,0,0,1-1.45,2.47,5.63,5.63,0,0,1-2.11,1.39,6.79,6.79,0,0,1-2.43.45,5.78,5.78,0,0,1-4.1-1.34q-1.43-1.33-1.42-4.78h0V181.68H204.5v19.7a11.81,11.81,0,0,0,1.39,6.09,8.28,8.28,0,0,0,3.77,3.41A12.92,12.92,0,0,0,215,212Zm34.6,0a13.76,13.76,0,0,0,4.72-.83,10.8,10.8,0,0,0,3.89-2.41,6,6,0,0,0,.67-.76l.19-.27.06.17a5.13,5.13,0,0,0,.4.89l.16.27a5.77,5.77,0,0,0,2.61,2.16,9.34,9.34,0,0,0,3.74.72,8.64,8.64,0,0,0,3.86-.77h0l.48-5.05a6,6,0,0,1-1.9.3c-1.43,0-2.14-.75-2.14-2.26h0V192.06a10.72,10.72,0,0,0-1.63-6.11,9.93,9.93,0,0,0-4.54-3.65,17.66,17.66,0,0,0-6.83-1.21c-3.84,0-6.89.79-9.17,2.37a10.72,10.72,0,0,0-4.42,6.29h0l6.95,2.14a6.51,6.51,0,0,1,2.43-3.74A6.72,6.72,0,0,1,253,187a5.26,5.26,0,0,1,3.82,1.42,5.32,5.32,0,0,1,1.46,4h0v1.14l-10.21,2.07a11.94,11.94,0,0,0-5.84,2.62l-.27.25a7.29,7.29,0,0,0-2.14,5.43,7.77,7.77,0,0,0,1.19,4.4,7.44,7.44,0,0,0,3.38,2.7A13.53,13.53,0,0,0,249.6,212Zm2.08-5.76a4.5,4.5,0,0,1-2.64-.77,2.6,2.6,0,0,1-1.1-2.26,2.45,2.45,0,0,1,1-2.22,8.9,8.9,0,0,1,3.06-1.1h0l6.23-1.25v1.84a6.67,6.67,0,0,1-.41,2.44l-.13.29a4.33,4.33,0,0,1-1.48,1.78,6.2,6.2,0,0,1-2.14.95A9.86,9.86,0,0,1,251.68,206.19ZM283.61,212a14.06,14.06,0,0,0,3-.33,8.41,8.41,0,0,0,2.52-.92h0l.71-5.34c-.67.2-1.23.35-1.66.44a7.65,7.65,0,0,1-1.66.15,3,3,0,0,1-2.38-.83,4.55,4.55,0,0,1-.71-2.91h0V168.68H275.3V203.1q0,4.64,2,6.74C278.61,211.24,280.72,212,283.61,212ZM94.76,280.8,98,271.25h15.11l3.22,9.55h8.48l-14.3-39.17H100.7L86.4,280.8Zm16.3-15.61H100L103.78,254l1.67-5.82h.12l1.78,5.94Zm22.81-18.33a5.62,5.62,0,0,0,3.8-1.1,4.09,4.09,0,0,0,1.25-3.24,4.16,4.16,0,0,0-1.25-3.29,7.1,7.1,0,0,0-7.59,0,4.16,4.16,0,0,0-1.25,3.29,4.09,4.09,0,0,0,1.25,3.24A5.6,5.6,0,0,0,133.87,246.86Zm4,33.94V251.13h-8.13V280.8Zm19.82.6a11.05,11.05,0,0,0,5-1.13,10.16,10.16,0,0,0,3.74-3.18,9.71,9.71,0,0,0,1-1.83l0-.12.34,5.66h7.3V238.13h-8.13v18.12l-.06-.13a10,10,0,0,0-2.18-3l-.31-.29a9.42,9.42,0,0,0-6.47-2.25,12.35,12.35,0,0,0-6.62,1.81,12.5,12.5,0,0,0-4.66,5.28A18.83,18.83,0,0,0,145,266a19.19,19.19,0,0,0,1.63,8.24,12.46,12.46,0,0,0,4.51,5.29A12,12,0,0,0,157.73,281.4Zm69.05-43.53,22.84,23.53-22.57,23.19.6-5.43-2.05-5.9h2.05v-4.52L226,265.29l-.81,1.16L222,260l-4.89-1.7L213.22,252Zm-66.56,18.9a6.17,6.17,0,0,1,3.63,1.07,6.8,6.8,0,0,1,2.37,3.05,12.65,12.65,0,0,1,.83,4.84,13.67,13.67,0,0,1-.86,5.1,7.09,7.09,0,0,1-2.4,3.24,6.2,6.2,0,0,1-3.68,1.09,6.14,6.14,0,0,1-5.11-2.34c-1.22-1.56-1.84-3.85-1.84-6.85s.63-5.3,1.87-6.86A6.28,6.28,0,0,1,160.22,256.77Z"/></g></g></g></g><path d="M613.76,378.29c1.67-2.32,1.28-3.27.37-3.83-1.11-.67-1.14-2.13-2.5-2.67s-2.16-1.71-3.3-2.5-2.14-1.27-3.21-1.91a13,13,0,0,0-3.45-1.28c-3.83-1-7.51-2.64-11.54-2.76-1.47-1-3.21-.3-4.71-.72-3.79-1.05-7.62-.31-11.41-.66a27,27,0,0,0-5.24,0c-2.08.22-4.32-.36-6.3.15-2.94.76-6.1.44-8.86,1.91-3.15-.21-6,1.11-8.81,2.11-6.07,2.16-11.83,5.07-16.11,10.19a5.61,5.61,0,0,0-.74,4.16,26.28,26.28,0,0,1,0,3.66c0,.19-.19.36-.29.54a3.17,3.17,0,0,1-.36-.46A9.87,9.87,0,0,1,529,372a36.74,36.74,0,0,1,14.78-8.63c1.86-.62,3.77-1.09,5.63-1.72s3.82-.78,5.7-1.52c1.39-.55,3.1-.27,4.7-.69a34,34,0,0,1,6.71-.73c2.21-.11,4.44,0,6.66,0,1.78,0,3.57-.1,5.33,0s3.43-.41,5.14.46c1.51.76,3.49-.5,5,.84,2.5-.24,4.76.82,7.12,1.32a52.43,52.43,0,0,1,16.17,6.85c.65.39,1.06,1.15,1.68,1.61s1.17,1.83,1.77,1.15-.8-1.33-1.32-2c-.82-1-1.72-2-2.58-2.94.6,0,1.36.28,1.35-.86,0-2.78,6.43-159,6.71-163.43.09-1.39,9.26-22.17,10-24.21a.89.89,0,0,1,.76-.38c.2,0,.45.37.53.62.92,2.84,7,18.13,9.19,22.89a3.52,3.52,0,0,1,.17,1.27c.23,7.47,7.92,172.75,8,176.22,0,.19.19.51.3.51a1.29,1.29,0,0,0,.89-.17,4.92,4.92,0,0,0,1.5-3.72c0-1.94,0-1.93,2.16-2.74.29-.11.49-.42.76-.59.53-.34,1.07-.64,1.61-.95-.44-.38-.86-.76-1.31-1.12a4.2,4.2,0,0,1-1-4.58c.09-.29.42-.56.4-.82-.17-1.93.7-3.53,2.42-3.85,2.3-.43,4.82-.43,6.51,1.83a2.79,2.79,0,0,1,.42,1.15,8.3,8.3,0,0,1,0,1c.18,1.82,0,3.46-1.68,4.66-.68.49-.46,1.09.45,1.26,1.77.32,3.17,1.05,3.76,2.88a2.79,2.79,0,0,0,.49,1.12c.53.52,1.21,1.33,1.76,1.27,1.14-.11.53-1.25.51-1.89a2.17,2.17,0,0,1,1.37-2.46c1.11-.53,1.68.14,1.8.65.2.82,1.06,2.18-.79,2.46-.33,1.08-.68,2.16-1,3.26-.11.4,0,.89-.21,1.24a1.63,1.63,0,0,1-2.49.47c-.26-.21-.47-.48-.71-.71l-1.65-1.55a1.52,1.52,0,0,0,.37,2.28c-1.34,2-.51,4.27-.6,6.4a38.92,38.92,0,0,0,.59,4.73c.09,1.17.22,2.32-.95,3.3a1.76,1.76,0,0,0,.06,2.61c1.15.93,1.14,2.31,1.46,3.42s1,2.23,1.58,2.26c2.19.1,2.75,1.91,3.61,3.18a3.89,3.89,0,0,0,2.92,1.82,11.43,11.43,0,0,1,1.48.45c.88.3,2.26.1,2.43,1.19a3.49,3.49,0,0,1-.86,2.84c-1.15.81-.27,2-1,2.79-.24.25,0,1-.23,1.21-.59.59-1.35,1.45-2,1.42-.87,0-1.24-1-1.15-2a1.55,1.55,0,0,0-.33-1.17,2.57,2.57,0,0,1-1-2.62,2,2,0,0,0-1.17-2.11c-.89-.57-1.6-1.68-2.54-1.89-1.25-.27-1.43-1.09-1.84-1.93-.14-.29-.43-.65-.7-.69a8.7,8.7,0,0,1-4.61-2.61c-.18-.17-.58-.1-.88-.15,0,.38-.24.88-.07,1.12a3.29,3.29,0,0,1,.19,3.39,3.65,3.65,0,0,0,.26,3.89,4.47,4.47,0,0,1,.57,4c-.48,1.34.2,1.79,1,2a36.46,36.46,0,0,1,9.68,4.85c1,.7,2.35,1.15,3.11,2.07,2,2.4,5.4,3.37,6.62,6.53,3.39,3.16,5.84,7,8.24,10.94s37.12,68.38,39.89,73.91a5.19,5.19,0,0,0,.49,1.12c.44.5.76.85-.24.89-.67,0-1.34,0-2,0H648.72c-.66,0-.88-.25-1.33-.89-3.45-4.84-15.25-21-18-23.88a17,17,0,0,0-9-5.28,73.16,73.16,0,0,0-13.47-1.36c-28.81.07-57.62.12-86.43,0A36.65,36.65,0,0,1,499.61,478c-3.33-2.32-47.76-50.81-49.38-54.51a14.13,14.13,0,0,1-.85-8.89,11.38,11.38,0,0,1,4.95-6.52c3.65-2.38,10.56-1.65,13.8,1.06,2.71,2.26,31.87,30.43,35,33a81.66,81.66,0,0,0,6.94,5,20.56,20.56,0,0,0,3,1.61,18.39,18.39,0,0,0,8.12,1.37q46.38-.06,92.77,0a8.3,8.3,0,0,0,5.89-2,4.19,4.19,0,0,0,.75-6,7.92,7.92,0,0,0-6.55-2.78q-34.53,0-69.08,0a4.85,4.85,0,0,0-.66,0c-1,.1-2,.22-2.93.34a.92.92,0,0,1,0-.33c.44-1.64,2.38.14,2.92-1.28,2.49.16,4.7-1.11,7.1-1.39,1.37-.15,2.56-1,4.07-.74,1.22.2,2.35-.77,3.72-.69a3.74,3.74,0,0,0,2.77-1.06c.34-.41-.37-1.71-.64-2.6-.17-.6-.39-1.17-.58-1.76a1.2,1.2,0,0,1,0-.33,14.73,14.73,0,0,1,2.25-10.08c.27-.41.62-.74-.16-.76a6.32,6.32,0,0,0-2.44.51c-1.44.53-3.11.36-4.7.69-2.16.44-4.34.79-6.5,1.26L543,422.57c-2.24.49-4.48,1.07-6.74,1.5-4.32.82-13,4.25-16.58,6.71a8.36,8.36,0,0,0-1.43,1.36,14.36,14.36,0,0,1-1.48,1.79c-.14.11-.22-3.47.33-4a3.79,3.79,0,0,1,.78-.52,72.79,72.79,0,0,1,13.63-5.73c4.07-1.2,8.11-2.86,12.48-2.95,2.47-1.22,5.4-.67,7.85-2,.17-.09.44,0,.66,0,2.69-.22,5.4-.31,8.06-.72a21.15,21.15,0,0,1,5.07-.64c.15,0,.33-.27.48-.42l.48-.47c-.22-.14-.45-.41-.66-.4-1.11.08-2.21.21-3.3.36-.41.05-.83.32-1.21.26-2.86-.44-5.66.38-8.38.83-4.93.8-10,1.19-14.68,3.14-4.39.08-8.2,2.25-12.26,3.48a60.53,60.53,0,0,0-9,4,3,3,0,0,0-1.85,3.16c.16,2.32,0,4.67,0,7,0,1-.51,1.49-1.37,1.13a58.39,58.39,0,0,1-6.71-3.12c-3-1.74-5.44-4.19-8-6.51-4.18-3.75-24-22.3-25.54-23.66s-2.84-2.63-4.38-3.86c-2.33-1.85-4.61-3.93-5.77-6.89a1.76,1.76,0,0,1,.08-1.41c.71-2.35,2.74-2.76,4.65-3.21,1-.26,2.6.4,3.24-.15,1.12-1,1.67.3,2.55.19,1.67-.19,3.11.91,4.66,1.52,3.95,1.55,29.5,26.61,32.51,29.33a63.88,63.88,0,0,0,5.67,4.89c1,.74,1.4.13.47-.81,1-.6.44-1.6.66-2.4.8-2.86-1.17-4.42-3-5.72-1-.69-13.87-12.12-14.57-12.91a7.78,7.78,0,0,1-1.75-2.85,3.11,3.11,0,0,1,.59-3.05,5.78,5.78,0,0,1,3.9-2,26.19,26.19,0,0,1,6.32,0,28.63,28.63,0,0,1,5.51,2c.14.05.23.33.29.53.16.44.28.89.42,1.34l.92-1.29a24.25,24.25,0,0,1,6.68-6,51.59,51.59,0,0,1,13.56-5.92,79.37,79.37,0,0,1,11.55-2.8c2.82-.41,5.64-.92,8.44-1.4,2.39-.4,4.81-.08,7.07-.62,3.93-.94,7.84-.46,11.76-.56s8-.09,12,0a38.1,38.1,0,0,1,4.73.64c1.58.25,3.12-.15,4.79.52a22.44,22.44,0,0,0,4.68.76c3.22.48,6.28,1.53,9.41,2.29.4.09.76.36,1.16.41a1,1,0,0,0,.85-.26.86.86,0,0,0-.08-.86,9.29,9.29,0,0,0-2.44-2.14c-2.1-1-2.31-2.89-2.67-4.7a17.2,17.2,0,0,1,0-3.66,13.92,13.92,0,0,1,.2-1.58c.37.54,1,1.06,1.07,1.63.15,1.65,0,3.33.07,5,0,.18.18.36.27.54.13-.14.36-.28.36-.42a32.68,32.68,0,0,0,0-5.33,3.61,3.61,0,0,0-2.57-3.25c-.64-.18-.7-.13-.7.4,0,2.67,0,5.34,0,8,0,.18-.16.37-.24.56-.14-.23-.39-.45-.4-.67,0-1.67.07-3.35,0-5a16.09,16.09,0,0,0-.69-3.71c-.16-.5-.84-.88-1.36-1.19s-1-.29-1.43-.55-.92-1.26-1.57-.63a2,2,0,0,0-.22,1.84c1.29,2.63.32,5.4.61,8.09,0,.16-.19.36-.29.54-.12-.15-.34-.29-.35-.45a6.59,6.59,0,0,1,0-1.66c.48-2.65-.83-5.12-.72-7.74.05-1.08-1.4-1.93-2.66-1.76-.3,0-.67.36-.86.26a24.63,24.63,0,0,1-2.13-1.29,23.48,23.48,0,0,0-.3,2.87c0,1.48-.22,2.95.56,4.44.46.87.11,2.18.07,3.29,0,.22-.27.43-.41.65-.08-.19-.24-.39-.23-.57.22-2.73-1-5.3-.74-8.07s-1.15-3.68-3.84-3c-.51.13-.69.16-1-.18-.63-.77-1.08-.9-2.16-.33-.75.41-2.07-.69-3.3-.51-.83.13-1.79-.16-1.81,1.15a5.86,5.86,0,0,1-1.09,0c-.1-.75-.33-1.09-1.21-1.12a5.13,5.13,0,0,1-2.66-.77,1.72,1.72,0,0,0-2.57.06,4.26,4.26,0,0,1-1.59.53c0-.54-.07-1.08-.11-1.62-.07-.8.43-.92,1-.82,1.57.25,3.23-.52,4.77.6.51.37,1.53.15,2.29.05a29.45,29.45,0,0,1,9.71.81c5.84,1.19,11.71,2.52,17,5.58a34.24,34.24,0,0,1,7.18,6c.17.17,0,.65-.3,2.59a7,7,0,0,1-.39,1.6,32.46,32.46,0,0,0,.23,3.27c0,.31.58.54.9.81a2.6,2.6,0,0,0,.25-.89c-.19-1.91-.42-3.82-.66-5.72a2.45,2.45,0,0,0-.33-.67,3.34,3.34,0,0,0-.32.86C613.4,378.33,613.43,379.11,613.76,378.29Zm23.07,34.42c2.1.47,3.93-1.09,6.07-.69,1.3.25,1.39,0,1.22-1.62-.11-1,.58-2.3-.48-3.12a2.53,2.53,0,0,1-.85-2.34c0-3.83.54-7.75-1.9-11.23a3.15,3.15,0,0,1,0-2.57c.15-.36,1.34-.26,2-.44a9.63,9.63,0,0,0,1.43-.56c1.24-.57,1.35-.85.82-2a19.82,19.82,0,0,1-1.26-3.16c-.2-.8-.78-2-2.22-1.59-.69.19-1.06-.24-.9-.93s-.61-1.7.8-1.71c.71,0,1.22,0,1.22-1,0-2.06-1.09-4-.76-6.05,0-.13-.35-.29-.44-.47a8.67,8.67,0,0,1-.33-6.78,6.23,6.23,0,0,0-.2-4.46c-.77-1.75-1.58-3.36-3.6-4-.29-.08-.73-.62-.67-.78.47-1.18.65.19,1,.16.66-.06,1.34,0,2,0,1.89-.21,2.3-.83,2.28-3.1,0-.3.35-.64.62-.88.56-.5,1.22-.89,1.72-1.43a1.47,1.47,0,0,0,.09-1.11,13.27,13.27,0,0,0-.7-2,3.36,3.36,0,0,0-3.72-2.07c-.86.23-1.71,1.26-2.41,1.12s-1.34-1.1-2.48-1.28-1.85-1.06-2.83.08c-.15.17-.64,0-1,.05-.86.06-2.06-.17-2.49.29s-.19,1.67-.2,2.54c0,1.78-.11,3.56,0,5.33a3.33,3.33,0,0,0,1.73,3.07c.9.41.91.36.63.72a10.57,10.57,0,0,0-1.83,2.58c-.9,2.28-.39,4.52-.55,6.77-.13,1.9.33,3.89-1.12,5.56-.29.33-.21,1-.22,1.55,0,1.56,0,3.12,0,4.67a4.48,4.48,0,0,1-.28,1.55c-.61,1.53-1.31,3-2,4.51-.75,1.64.31,3.48-1,4.95-.28.31-.11,1.37.22,1.83,1.32,1.92,2.74,3.79,4.22,5.59.92,1.11,2.25,1.93,3,3.12s2.55,2.41,1.8,4.19c-.5,1.21-.47,2.77-1.88,3.59-.37.22-.8,1.11-.66,1.29a3,3,0,0,0,1.53,1,2,2,0,0,0,2.31-.84c.58-.89,1.32-1.67,1.85-2.58s2.19-.89,2.38-2.3c0-.12.62-.31.84-.21a.92.92,0,0,1,.35.8c-.43,2.09-1.46,3.84-3.6,4.44-1,.27-1.78.72-1.64,1.56C635,413.28,636.16,412.53,636.83,412.71Zm-74.9-27.31c-1.59.08-3.16.26-4.75.5-2.93.45-5.84,1-8.77,1.41-3.95.6-7.7,1.87-11.56,2.75-2.72.61-5.22,1.9-7.87,2.75s-4.86,2.71-7.32,4c-1.68.91-2.94,2.68-4.26,4.17a3.61,3.61,0,0,0-.73,2,19,19,0,0,0,.17,2.91,8.35,8.35,0,0,1,1.21-2.23,61.09,61.09,0,0,1,5.22-4.3,13.1,13.1,0,0,1,4.28-2.48c2.45-.58,4.46-2.12,7-2.54,3-.5,5.76-2.49,9-2.34.73-1.37,2.29-.14,3.24-1.08s2.23.11,3.41-.64c.89-.56,2.46.07,3.5-.35,1.7-.7,3.56-.12,5-.72,1.75-.7,3.41-.35,5.1-.55a35.62,35.62,0,0,1,5.4-.63c7.47.26,15-.74,22.41.59,2.54.45,5.22.18,7.71.78,3,.74,6.18,1.09,9.18,2a71.29,71.29,0,0,1,9,3.34,36.48,36.48,0,0,1,4.74,3.07.47.47,0,0,0,.44-.06c.08-.19.16-.5.07-.62-.33-.44-.81-.77-1.09-1.23a11.54,11.54,0,0,0-7.85-5.89c-1.55-1.47-3.69-1.28-5.52-2a24.91,24.91,0,0,0-6.43-1.44,18.79,18.79,0,0,1-4.68-.72c-1.56-.63-3-.3-4.45-.53a29.65,29.65,0,0,0-4.73-.63C579.32,384.91,570.6,384.05,561.93,385.4Zm86.88,5.71c0,1.6,0,2.93,0,4.26a14.27,14.27,0,0,0,.61,3.74,18.28,18.28,0,0,1,.07,4v4c0,1.22,0,2.44,0,3.66a2.42,2.42,0,0,0,.27,1.21c.17.28.64.6.91.54,2.14-.46,3.55-2.15,5.28-3.3a1.23,1.23,0,0,0,.17-1.19c-.83-1.06-.39-2.32-.69-3.41s0-2.45-1.06-3.33c-1.21-1-1.1-2.13-.4-3.43.49-.89.48-2.06,1-2.91,1.2-1.9.28-3.44-.62-5-.37-.63-.88-.76-1.62-.23s-1.17-.41-1.08-.79a42.78,42.78,0,0,1,1.36-4.1c.14-.38.52-1,.42-1.1-1.16-1-.05-2.87-.75-3.26s-1.88,1-3.12,1.24c-1.55.3-1.92.85-1.35,2.58C649,386.67,648.66,389,648.81,391.11Zm-89.45,10.76v5.65c0,1.67-.09,3.33,0,5a5,5,0,0,0,.81,2.61c.34.41,1.42.19,2.16.3,1,.15,1.07-.48,1-1.2-.21-2-.6-4-.63-6-.09-5.32,0-10.63,0-15.95,0-1.52,0-1.52-1.67-1.52-.11,0-.22,0-.33,0-.92-.13-1.39.07-1.36,1.19C559.41,395.22,559.36,398.55,559.36,401.87Zm11.35,8.78c0,1.12,0,2.23,0,3.34a1,1,0,0,0,.43.73,1.49,1.49,0,0,0,2.21-1.28c0-6.34-.1-12.69.1-19,0-1.18-1.84-2.26-.15-3.43-.24-.24-.43-.56-.72-.7-1.69-.84-2.54-.29-2.56,1.62,0,.55,0,1.11,0,1.67C570.07,399.28,569.74,405,570.71,410.65Zm10.68-3.24c0,1.77.12,3.55,0,5.3-.13,1.38.5,1.5,1.53,1.37a2.09,2.09,0,0,1,.66,0c1.13.19,1.27-.44,1.19-1.35a25,25,0,0,0-.55-4.73c-.54-2-.23-4.18-.1-6.28.23-3.7-1.15-7.3-.7-11,0-.18-.13-.53-.23-.54a4.86,4.86,0,0,0-1.93-.06c-.27.08-.5.86-.48,1.3.22,3.45-.44,6.91.56,10.38C581.8,403.52,581.39,405.52,581.39,407.41Zm-32-3.05c0,3.77,0,7.53,0,11.3,0,.36.29,1,.42,1,.83,0,1.72.39,2.46-.46a1.43,1.43,0,0,0,.17-2c-.73-.81-.36-1.69-.37-2.51q-.07-9.31,0-18.61c0-1.35-.82-1-1.52-1s-1.22,0-1.2,1C549.38,396.82,549.34,400.59,549.34,404.36Zm-6.67-.32c0-3.22,0-6.44,0-9.65,0-.66-.09-1-.87-1s-1.13.13-1.18,1.07c-.16,3.35,0,6.68-.48,10.07-.63,4.46-.16,9.08-.13,13.63,0,.21.46.62.54.59a14.37,14.37,0,0,0,2.42-1.37c.12-.09-.42-1-.28-1.17,1-.89-.1-1.66-.05-2.48.07-1.11,0-2.22,0-3.33V404Zm49.4,2.72a35,35,0,0,0,0,4c.08.65.21,1.33.34,2s2.12,1.1,2.6.68c.65-.57.53-1.31,0-2a2.18,2.18,0,0,1-.31-1.19c-.1-3.24.21-6.47-.62-9.7-.37-1.45,0-3.08-.09-4.62s-.48-2.91-.61-4.38c-.08-.83-.57-.82-1.12-.75-1.22.16-1.51.75-1.12,2.13a2.66,2.66,0,0,1,.2.91C591,398.12,592,402.42,592.07,406.76Zm-57.41,1V397.15a9.81,9.81,0,0,0,0-1.33.91.91,0,0,0-.58-.12c-.32.61-1.46,0-1.46,1.35,0,4.56.27,9.11-.51,13.68-.49,2.8-.09,5.74-.09,8.62a2.45,2.45,0,0,0,0,1,.91.91,0,0,0,.75.4,2.09,2.09,0,0,0,1.88-2.33Q534.67,413.08,534.66,407.77Zm-8.68,5c0,3.1,0,6.21,0,9.31,0,1.12.48.27.89.21,1-.14,1.12-.66,1.12-1.53,0-5.65,0-11.29,0-16.94,0-.82-.34-1.68.36-2.52.41-.48-1.07-1.36.1-2.08.13-.08-.08-.71-.13-1.09-.38.14-.88.17-1.1.44s-.3,1-.61,1.39c-.73.87.29,2-.06,2.39-.79.92-.56,1.84-.58,2.78C526,407.63,526,410.17,526,412.72Zm-2.67-.67q0-5.31,0-10.62a1.91,1.91,0,0,0-.2-.58,2.17,2.17,0,0,0-.46.22,3.09,3.09,0,0,0-1.37,2.77c.12,2.76,0,5.53,0,8.29,0,3.88,0,7.75,0,11.62,0,1,.05.86,1,.52s1-.82,1-1.6C523.3,419.13,523.31,415.59,523.31,412.05Zm78.1-4.41c0,1.11.07,2.23,0,3.33a1.75,1.75,0,0,0,1.18,1.75,1.09,1.09,0,0,0,1.52-1,9.21,9.21,0,0,0-.6-3.08c-.31-1.36,0-2.87-.1-4.3s-.6-2.71-.6-4.06a35.82,35.82,0,0,0-.67-7.38c-.15-.7-.35-.9-1-.89s-1.06.06-1,.85c.06,1.39-.19,2.81.68,4.06C600.24,400.55,601.61,404.05,601.41,407.64Zm8-.39c0,1.39,0,2.72,0,4.05a1,1,0,0,0,.73.73,9.35,9.35,0,0,0,1.87-.26c-.21-.46-.43-.91-.63-1.38,0-.09,0-.21,0-.33,0-1.44,0-2.89,0-4.33s-.83-2.8-.76-4.39a47.77,47.77,0,0,0-.59-6.72c-.1-.87-.81-.54-1.29-.56-.83,0-.81.52-.6,1.09.14.38.57.76.53,1.1C608.28,400,609.65,403.59,609.42,407.25Zm6.71-1.69-.22,0c.29,2,.56,4,.89,6,0,.19.48.44.72.41s.4-.36.57-.58c.06-.07,0-.21,0-.32.26-3.94-1.13-7.79-.67-11.74-.77-.89-.66-2-.73-3,0-.11-.36-.31-.51-.27s-.67.23-.72.43a3.65,3.65,0,0,0,0,1.32C615.66,400.41,615.9,403,616.13,405.56ZM520,415c0-1.33,0-2.66,0-4-.06-2.07-.15-4.14-.23-6.21-1,1.9-.11,4-.45,5.91a16,16,0,0,0-.62,2.38c-.07,4.09,0,8.19,0,12.29a1.74,1.74,0,0,0,.21.56c.24-.16.6-.28.68-.5a5.73,5.73,0,0,0,.41-1.81C520,420.79,520,417.91,520,415Zm102.8-7.78.11,0c-.26-2.45-.51-4.91-.79-7.37a1,1,0,0,0-.35-.51c-.22-.21-.47-.38-.7-.57a1.76,1.76,0,0,0-.26.56c-.09,3.59,1.1,7.1.67,10.71a.72.72,0,0,0,.23.56c.42.29,1,.85,1.31.73,1-.44-.26-.66-.23-1.1C622.82,409.26,622.77,408.25,622.77,407.26Zm-10-26.67.18,0c-.32-1.88-.61-3.77-1-5.64-.07-.32-.59-.55-.91-.83a2.8,2.8,0,0,0-.26.89c.2,2.47.43,4.93.67,7.39,0,.09.14.16.22.24l.71.71c.13-.24.35-.47.37-.72C612.8,381.92,612.76,381.25,612.76,380.59Zm12.69,27.79.13,0c-.27-2.1-.53-4.21-.81-6.31a2.65,2.65,0,0,0-.23-.56c-.14.2-.42.42-.41.62.1,2.33-.4,4.72.62,7a7.81,7.81,0,0,1,.26,2.2c.85-.62.25-1.52.43-2.27A2.91,2.91,0,0,0,625.45,408.38Z"/><path d="M570,340.52c0-2,0-4,0-6,0-.18.2-.36.3-.53.12.16.33.31.34.48a8.27,8.27,0,0,0,.58,2.77c.42,1-.16,2.53,1.83,2.13,1,2,3.06,3.55,2.95,6.12a8.44,8.44,0,0,0,0,1.33c0,.17.22.32.34.48.1-.18.3-.36.3-.54,0-1.55.36-3.22-.09-4.63A18.19,18.19,0,0,1,576,338a13.56,13.56,0,0,0-.62-2.07c0-.16.13-.37.21-.56.16.09.32.17.47.27a.63.63,0,0,1,.23.23,14.25,14.25,0,0,0,3.74,5.12c-.38,1.26,1.2.64,1.34,1.39.22,1.24.5,2.48.65,3.73s-.3,2.61.65,3.75c.08.08-.23.71-.38.72-1,.07-2.2.39-3,0-1.69-.95-3.41-.51-5.1-.58-2.44-.09-4.89-.05-7.34,0-.83,0-1.71-.32-2.47.5-.36.39-1.07.28-1.07-.56,0-3.22-.32-6.49.13-9.65a36.65,36.65,0,0,1,.65-4.7,8.62,8.62,0,0,1,1.58-2.34c.09-.13.15-.43.11-.45a.86.86,0,0,0-.58-.16c-.59.18-1.18.66-1.73.61a4.48,4.48,0,0,0-4.3,1.78c-.2.25-.8.19-1.21.26a5.45,5.45,0,0,1,0-1c.3-1.53,1.5-2.27,2.69-3,.27-.17.53-.34.8-.49.47-.27,1.86-.13.51-1.18a7.83,7.83,0,0,1,1.26-1,15.89,15.89,0,0,1,7.5-2,5.29,5.29,0,0,0,1.21-.28,3.9,3.9,0,0,0-1.1-.35c-.77,0-.88-.37-.87-1,0-2.34,0-4.67,0-7a1.92,1.92,0,0,0-.22-.57c-.15.21-.42.41-.42.62,0,2.22,0,4.44,0,6.67,0,.63.2,1.27-.9,1.33-1.31.07-1.1-.72-1.1-1.47,0-2.12,0-4.23,0-6.34,0-.31-.39-.61-.59-.91-.24.27-.68.54-.69.81,0,2.34,0,4.67,0,7a5.45,5.45,0,0,1-.12,1.28c0,.12-.36.23-.55.23s-.52-.12-.54-.22a11.18,11.18,0,0,1-.12-1.63c0-2,0-4,0-6,0-.26-.23-.52-.35-.78a4.25,4.25,0,0,0-.69.72c-.16.25-.33.81-.26.85,1.19.71-.49,1.56.07,2.09.73.69-.34,1.57.4,2.16-.83.46.56,1.49-.47,1.94a1.72,1.72,0,0,0,.29.83c.68.75-.33.79-.45,1.2-.17-.25-.5-.48-.5-.73,0-1.89,0-3.78,0-5.67,0-.79-.27-1.08-1-1.6-1.5-1.08-1.28-2.42-.05-3.79a7.32,7.32,0,0,1,5.22-2.73c1-.06,2.34-.91,3-.52.87.52,1.56-.09,2.36.27s2.16.09,3.22.3a3.73,3.73,0,0,1,2.28,5.24c-1.79,3.13-.63,6.42-1,9.61,0,.14.77.25,1,.53,1.2,1.74,2,3.84,4.65,4,.26,0,.5.85.7,1.32s.13.68-.46.63c-.33,0-.73.06-1-.1-2.29-1.56-4.95-1.72-7.55-1.83-.8,0-1.5-1.21-2.53-.15a2,2,0,0,1-2.41-.41s-.43.27-.68.35c-2.21.78-3.08,2.44-3.12,4.66,0,.89,0,1.78,0,2.67a2.68,2.68,0,0,0,.35.78c.1-.29.12-.68.32-.85a3.55,3.55,0,0,1,1.05-.38c.18,1.38,2,2,1.64,3.68a13,13,0,0,0,0,3c0,.48-.3,1.2.59,1.26s.73-.59.74-1.12Zm-1-11,1.56-.4c-.19-.15-.39-.41-.59-.42a6.29,6.29,0,0,0-1.2.21Z"/><path d="M605.42,360a30.94,30.94,0,0,1,5.55,4.59,4.39,4.39,0,0,1,.46,1.42,30.85,30.85,0,0,0-8.92-5.84A58.18,58.18,0,0,0,592,356.65c-2.69-.54-5.43-.91-8.09-1.45-3.85-.78-7.63-.27-11.43-.53-.77-.05-1.56,0-2.33,0-1.45,0-2.9,0-4.34,0a9.94,9.94,0,0,0-3.77.56,21.17,21.17,0,0,1-4,.66,67.25,67.25,0,0,0-12.29,3.4c-4.07,1.59-9.21,4-12.12,6.17a6.1,6.1,0,0,1-.71.39c0-.37-.06-.88.14-1.11a24.76,24.76,0,0,1,7.2-5.16,56.32,56.32,0,0,1,12.25-5c2.63-.66,5.2-1.46,7.87-2a39.19,39.19,0,0,1,4.41-.59c1.59-.13,3.15-.51,4.73-.62a18.16,18.16,0,0,1,4.66,0c4.28.82,8.76.16,12.89,1.88,5.46.33,10.15,2.79,14.78,5.4.25.14.65,0,1,0a1.64,1.64,0,0,0,2,1.33Z"/><path d="M605.42,360h-.67a1.64,1.64,0,0,0-2-1.33,6.84,6.84,0,0,0-1.26-1.31c-1.59-1-3.24-1.81-4.86-2.7-.18-.1-.53-.24-.51-.31.32-1.63-1.22-2.61-1.4-4.09-.38-3.13-1.07-6.16-3.28-8.62-.12-.13.11-.58.18-.88a4,4,0,0,1,.46.24c.51.36.84,1.45,1.69.35.07-.09.83.17,1.08.44,4.27,4.55,7.95,9.48,9.89,15.5C605,358.18,605.2,359.1,605.42,360Z"/><path d="M573.5,312.71c-.56-.3-1-.73-1.48-.73-1.48,0-2.87-.75-4.47-.11-1.22.48-1.37,0-1.09-1.4.23-1.16.13-2.38.26-3.57a3.2,3.2,0,0,1,.5-1.76c1.39-1.44,1-3,.46-4.53-.9-2.48-1.13-2.51,0-5.2.41-1,0-.67-.47-.87-.25-.11-.51-.8-.39-1,.41-.65,1-1.27,1.89-.95a1.19,1.19,0,0,1,.66.82c.1,1.18-.14,2.35,1,3.29.42.32.26,1.41.32,2.15s-.28,1.83,1.11,1.82c0,.38.16.93,0,1.11-1.46,1.39-1.57,2.66-.09,4.19a2.06,2.06,0,0,1,0,2.67c-.49.69-.37.94.48,1.35s1.19,1.37,1.73,2.12C573.91,312.19,573.64,312.49,573.5,312.71Z"/><path d="M588.55,351.18l-.94.69c-.53-.85-1.45-.3-2.08-.59a2.66,2.66,0,0,1-1.42-1.42c-.4-1.71-1.06-3.41-1.29-5.09a19.24,19.24,0,0,0-2.74-8.52c-.11-.16.14-.57.23-.87.15.11.4.18.45.32.58,1.45,1.9,2.1,3,3a9.72,9.72,0,0,1,3.19,5C587.63,346.11,587.78,348.61,588.55,351.18Z"/><path d="M586.36,338a22.76,22.76,0,0,1,3,2.68,21.16,21.16,0,0,1,4,10.28,1.66,1.66,0,0,0,.24.89c.41.46.73.94.13,1.36a1.5,1.5,0,0,1-1.26.07,4,4,0,0,1-2.45-2.5c-.38-1.4-.78-2.8-1.06-4.22a22,22,0,0,0-2.94-7.77c-.08-.13,0-.41.1-.6S586.32,338.05,586.36,338Z"/><path d="M568,371.44c.38,1.19-.64,2.79.55,4.2.35.41-.42,1.63-1,1.7s-1.33,0-2,0-.88-.35-.87-1c0-2.89,0-5.78,0-8.68a1.3,1.3,0,0,1,.24-.88,5.53,5.53,0,0,1,1.36-.72,4.54,4.54,0,0,1,1.72,1.43C568,368.74,568,370,568,371.44Z"/><path d="M573.38,371c0-1.11-.08-2.22,0-3.32.06-.61-.62-1.65.82-1.69,1.68-.06,2.38.39,2.49,1.75,0,.44,0,.88,0,1.32,0,1.77,0,3.54,0,5.31,0,2.54,0,2.51-2.53,2.33-.79-.06-.82-.46-.81-1.06C573.39,374.1,573.38,372.55,573.38,371Z"/><path d="M560,373.05c0,1.11,0,2.21,0,3.31,0,.52-.08,1.47-.22,1.49a15.39,15.39,0,0,1-2.88,0c-.08,0-.21-.35-.21-.54,0-2.76,0-5.52,0-8.28a1.67,1.67,0,1,1,3.33,0C560.06,370.4,560,371.73,560,373.05Z"/><path d="M585.39,373.68a14.65,14.65,0,0,1,0,2c-.07.58.45,1.38-.49,1.68a4.42,4.42,0,0,1-2.82-1.07,2.42,2.42,0,0,1,0-.66c0-.78.06-1.56,0-2.33-.12-1.25.11-2.45-.56-3.76-.8-1.59.22-2.75,1.91-2.86.92-.07,1.58.09,1.32,1.19-.15.63,1.28,1.18,0,1.79a1.78,1.78,0,0,1,.64,1.71C585.35,372.13,585.39,372.91,585.39,373.68Z"/><path d="M552,374.48v3.3c0,1.69.24,1.59-1.59,1.58s-1.77.25-1.75-1.75.06-4,0-5.94a2.22,2.22,0,0,1,1-2.24c.34-.22.53-1.17,1.15-.31.34.45,1.38-.06,1.27,1.07C551.92,371.61,552,373.05,552,374.48Z"/><path d="M592.73,373.75a25.79,25.79,0,0,1,0,2.64c-.05.56.47,1.38-.52,1.63-.61.16-2.65-.65-2.78-1.09a2.42,2.42,0,0,1,0-.66V369c0-1.06.65-1.44,1.56-1.67,1.19-.31,1,.79,1.36,1.31a3.08,3.08,0,0,1,.4,1.47C592.77,371.33,592.73,372.54,592.73,373.75Z"/><path d="M599.41,374c.11,1.24-.35,2.67.63,3.92.09.13-.35.7-.57,1-.4.6-.62-.05-.94-.12-1.44-.28-1.8-1.12-1.83-2.52-.05-1.92.46-3.87-.33-5.79-.13-.32.68-1.09,1.14-1.57.09-.08.63.19.9.39a2.18,2.18,0,0,1,1,2.23A14.8,14.8,0,0,0,599.41,374Z"/><path d="M558.67,364a9.73,9.73,0,0,1,1.7,0,.6.6,0,0,1,.3.5c0,.28-.23.75-.39.76-.87.07-1.76,0-2.64,0A1.53,1.53,0,0,0,556,367c0,1.22.05,2.44,0,3.65-.07,1,.45,2.19-.59,3.07-.12.1,0,.74.16.85,1.49.94-.84,2.3.39,3.23l-.94.93a2.6,2.6,0,0,1-.32-.85c0-3.09,0-6.19,0-9.28,0-1.32,0-2.84.87-3.56S558.05,364.2,558.67,364Z"/><path d="M544.67,375.67c0,1.32.09,2.65,0,4a4,4,0,0,1-.86,1.61.58.58,0,0,1-.58.1,1.15,1.15,0,0,1-.5-.66,13,13,0,0,1,0-1.65c0-2.1,0-4.19,0-6.28a2.86,2.86,0,0,1,.43-1.46c.2-.3.69-.41,1-.61.16.34.46.67.48,1C544.7,373,544.67,374.34,544.67,375.67Z"/><path d="M538.66,378.06c0,1.1-.06,2.2,0,3.3.06.89-.17,1.33-1.12,1.5-.43.08-.86.89-.89-.22,0-2-.07-3.95,0-5.93a5.64,5.64,0,0,1,.66-2,7.8,7.8,0,0,1,.91-1.27,6.06,6.06,0,0,1,.38,1.35C538.7,375.86,538.66,377,538.66,378.06Z"/><path d="M602.75,374.18a14.83,14.83,0,0,1,0-2.31c0-.22.63-.48,1-.48a2.24,2.24,0,0,1,1,.49s0,.21,0,.32c0,2.13-.21,4.27.62,6.34.16.4.48,1.37-.62,1.49-.91.11-1.32-.07-1.38-1.17a37,37,0,0,0-.82-4.64Z"/><path d="M538.39,370.08c.08.08.21.14.23.23s.13.51,0,.64a11.73,11.73,0,0,1-1.13,1.21,5,5,0,0,0-1.55,4c.07,2.33,0,4.67,0,7,0,.29.16,1-.56.56a1.62,1.62,0,0,1-.53-.89c.72-.63.45-1.46.41-2.17a20.64,20.64,0,0,0-.53-5.43c-.82-2.59-.15-3.28,2.58-4.59C537.71,370.51,538.05,370.28,538.39,370.08Z"/><path d="M544.67,346c-.08.19-.17.54-.25.54-1.59,0-1.83,1.43-2.26,2.35-1.46,3.17-3.28,6.24-3.51,9.85a1,1,0,0,1-.29.54,7.82,7.82,0,0,1-.7.71c-.11-.28-.36-.6-.31-.85.15-.7.44-1.36.64-2.06a36.54,36.54,0,0,1,4-9.63,15.28,15.28,0,0,1,1.83-2.13c.08-.08.45,0,.59.12S544.6,345.82,544.67,346Z"/><path d="M540.67,375.59c0-1.55,0-3.11,0-4.66,0-2.27,0-2.27,2.33-2.92.39-.11.75-.33,1.14-.46.14,0,.42,0,.45.08s.16.51.06.61a2.7,2.7,0,0,1-.76.44c-.63.34-1.55.53-1.82,1.06a7.43,7.43,0,0,0-.71,3c-.09,2.66,0,5.33,0,8a5.82,5.82,0,0,1-.26,1.21,6.46,6.46,0,0,1-.38-1.38C540.64,378.92,540.67,377.26,540.67,375.59Z"/><path d="M556.69,348.63c.88-2.85.36-6.57,2-9.88a8.13,8.13,0,0,1,.4-.71c.09.29.33.65.24.87a7.74,7.74,0,0,0-.64,3.73c.11,1.3-1,2.33-.72,3.73a17.73,17.73,0,0,1,0,4c0,.33-.31.87-.55.92-.82.17-.78-.48-.76-1Z"/><path d="M551.35,349.78c.86-3,.77-6.86,2.67-10.23a13.6,13.6,0,0,1,.78-1.33c.1-.14.36-.17.55-.25,0,.23.09.51,0,.66-1.55,2.3-1.56,5.1-2.49,7.61a28.6,28.6,0,0,0-.85,5.3,5.43,5.43,0,0,1-.37,1.07c-.09-.4-.22-.8-.27-1.21A14.87,14.87,0,0,1,551.35,349.78Z"/><path d="M530,381.38c0,1.21,0,2.42,0,3.63a2.81,2.81,0,0,1-.43,1.13c-.09.19-.3.32-.45.47-.15-.21-.41-.41-.41-.63,0-2.2,0-4.4,0-6.6a6,6,0,0,1,0-1.64c.11-.37.57-.64.87-1a3.31,3.31,0,0,1,.41,1C530,379,530,380.17,530,381.38Z"/><path d="M531.32,380.33c0-1.43,0-2.86,0-4.29a2.31,2.31,0,0,1,.46-1.43,9.91,9.91,0,0,1,1.77-1.26c.56,1-.63,1-.81,1.58-.31,1-.94,1.84-.8,3s-.1,2.22.07,3.29-.82,2.18.61,2.86a1.66,1.66,0,0,1-.22.53,7.82,7.82,0,0,1-.7.71c-.13-.23-.38-.45-.38-.68C531.3,383.19,531.32,381.76,531.32,380.33Z"/><path d="M534,380.57c0,1.08-.1,2.16-.19,3.24,0,.09-.36.23-.53.21s-.64-.2-.64-.31c0-2.2,0-4.39,0-6.58,0-.15.47-.42.71-.4a.81.81,0,0,1,.56.55c.06,1.1,0,2.2,0,3.29Z"/><path d="M545.34,353.91a48.93,48.93,0,0,1,2-7.8c.12-.25.25-.5.38-.75.1.29.33.62.27.87a33.91,33.91,0,0,0-1.35,7.42c0,.35-.42.7-.63,1.05a4,4,0,0,0-.26.56,3.43,3.43,0,0,1-.4-.69A2.42,2.42,0,0,1,545.34,353.91Z"/><path d="M547.34,369.21c0-2.8,0-2.8,2.24-3.22.59-.11,1.14-.48,1.73-.61a.79.79,0,0,1,.66.45.91.91,0,0,1-.31.81c-.25.15-.67,0-1,.05A3.91,3.91,0,0,0,548,369c-.22.51.46,1.28-.46,1.59Z"/><path d="M566.48,363.42c.88,0,1.76,0,2.63,0,.11,0,.23.55.23.85,0,.12-.29.31-.47.35a1.37,1.37,0,0,1-.62-.1c-2.41-.79-2.4-.78-4.33,1.2a1.31,1.31,0,0,1-.89.22c-.12,0-.3-.31-.32-.5a1.69,1.69,0,0,1,1.43-2.12,22.81,22.81,0,0,1,2.34,0Z"/><path d="M554.06,336.64c.11,0,.27,0,.31,0s.2.38.14.44a15.87,15.87,0,0,1-1.15,1.17c-1.11,1-2.23,2-3.35,3,0-.11,0-.22,0-.33C549.92,340.27,553,337,554.06,336.64Z"/><path d="M543.43,351c-.25,1-.49,2-.77,3s-.63,2.18-.95,3.27c-.8-1.13,0-2.09.18-3.18s.54-2,.79-3a6.24,6.24,0,0,1,.4-1Z"/><path d="M548.09,376.72l-.31,2.54c-.95-.73-.34-1.73-.4-2.59a21.69,21.69,0,0,1,.19-3.21C548.47,374.44,547.73,375.64,548.09,376.72Z"/><path d="M555.35,338A2.81,2.81,0,0,1,558,335.3Z"/><path d="M550.1,341.66c-.27.68-.51,1.36-.8,2,0,.1-.3.12-.46.13s-.14-.15-.16-.25a2.18,2.18,0,0,1,1-2.22C549.77,341.3,549.92,341.51,550.1,341.66Z"/><path d="M548.75,340.67a4.8,4.8,0,0,1-.64.84c-.15.15-.44.17-.66.24,0-.19-.17-.45-.09-.58a4.71,4.71,0,0,1,.77-1c.07-.07.29,0,.43,0S548.64,340.39,548.75,340.67Z"/><path d="M639.46,403.55c-.11.17-.19.42-.35.49a.72.72,0,0,1-.64,0c-1.7-1.8-3.86-3.24-4.9-5.58a15,15,0,0,0-3.51-5.51,2.39,2.39,0,0,1,.21-3.36,1,1,0,0,1,.88-.19c1.16.72,2.46.51,3.7.72.49.08,1.11,1,1.21,1.58a67.71,67.71,0,0,0,3.4,11.52A1.22,1.22,0,0,1,639.46,403.55Z"/><rect class="cls-1" x="18.26" y="336.98" width="734.46" height="8" transform="translate(-128.18 372.71) rotate(-45.03)"/><path d="M235.73,608.7v3.85c0,3.66.91,5.36,3.35,5.36s3-2.52,3-5.14c0-5.25-1-6.77-6.67-11.53-6.26-5.3-9.48-8.45-9.48-16.64,0-8,2.63-15.27,13.17-15.27,11.19,0,12.84,7.63,12.84,14v3.2H241.87V583.2c0-3.38-.55-5.05-2.67-5.05-2,0-2.61,1.7-2.61,4.85,0,3.35.61,5,5.21,8.59,8.18,6.43,11.12,10,11.12,19.2,0,8.72-3,15.89-14,15.89-10.61,0-13.64-6.4-13.64-14.64V608.7Z"/><path d="M279.78,601.28H268.31v15.16h13.44l-1.28,9.41H257.59V570.21h22.8v9.47H268.31v12.19h11.47Z"/><path d="M296.26,601.66v24.19H285.58V570.21h13.88c9.33,0,13.93,4.1,13.93,13.83v2c0,7.93-3.16,10.29-5.55,11.41,3.46,1.67,5.09,4.22,5.09,12,0,5.37-.09,13.49.38,16.42H303c-.69-2.52-.64-9.76-.64-16.86,0-6.26-.72-7.33-4.79-7.33Zm0-8.43h1.33c3.57,0,5-1.13,5-6.31v-2.68c0-3.74-.75-5.59-4.69-5.59h-1.67Z"/><path d="M324.58,625.85l-8.34-55.64h11.37l2,20.61c.68,7.16,1.56,15.22,1.95,22.3H332c.35-7.07,1.25-14.69,1.85-22.22l1.74-20.69h11.18l-8.22,55.64Z"/><path d="M372.49,601.28H361v15.16h13.45l-1.28,9.41H350.31V570.21H373.1v9.47H361v12.19h11.47Z"/><path d="M395.56,625.85V608a12,12,0,0,0-.39-2.88l-9.78-34.94h11.66c1.49,8,3.24,17.24,3.93,24.25h.35c.9-6.65,2.68-16.07,4.13-24.25h11l-10,35.84a9.91,9.91,0,0,0-.26,2.39v17.41Z"/><path d="M447.09,585.1v25.81c0,11-5.2,15.77-14.92,15.77-9.23,0-14-4.85-14-15.66V584.81c0-10.74,5.91-15.43,14.47-15.43S447.09,574,447.09,585.1ZM429,583.89v28.44c0,3.44,1.17,5.23,3.57,5.23s3.62-1.63,3.62-5.28V583.81c0-3.47-1-5.25-3.65-5.25C430.28,578.56,429,580.2,429,583.89Z"/><path d="M463.34,570.21v42.37c0,3.25,1,5,3.42,5,2.59,0,3.38-2,3.38-5V570.21H481v41.68c0,9.86-4.53,14.73-14.37,14.73-9.67,0-14-4.71-14-14.82V570.21Z"/><path d="M498,601.66v24.19H487.36V570.21h13.88c9.32,0,13.93,4.1,13.93,13.83v2c0,7.93-3.17,10.29-5.55,11.41,3.46,1.67,5.08,4.22,5.08,12,0,5.37-.08,13.49.39,16.42H504.74c-.7-2.52-.65-9.76-.65-16.86,0-6.26-.71-7.33-4.79-7.33Zm0-8.43h1.33c3.57,0,5-1.13,5-6.31v-2.68c0-3.74-.75-5.59-4.69-5.59h-1.67Z"/><path d="M557.82,607.69v3c0,7-1.3,16-14.05,16-9.42,0-13.52-5-13.52-15.24V584.15c0-9.67,4.83-14.77,13.74-14.77,11.75,0,13.66,7.74,13.66,15v3.49H546.88v-4.75c0-3.06-.65-4.61-2.89-4.61s-2.91,1.46-2.91,4.61v29.42c0,3,.49,5,2.91,5s3-1.7,3-5.25v-4.62Z"/><path d="M573.19,570.21v55.64H562.51V570.21Z"/><path d="M585,579.68h-8.1v-9.47h26.94v9.47h-8.15v46.17H585Z"/><path d="M616.43,625.85V608a12,12,0,0,0-.39-2.88l-9.78-34.94h11.66c1.5,8,3.25,17.24,3.93,24.25h.35c.9-6.65,2.69-16.07,4.13-24.25h11l-10,35.84a10,10,0,0,0-.25,2.39v17.41Z"/><path d="M651,570.21H664.1c11.46,0,15.42,5.23,15.42,16.75v20.91c0,9.59-2,18-14.69,18H651Zm10.71,47h2.09c4.19,0,4.89-2.74,4.89-7.08V585.24c0-4.11-.92-6.35-5-6.35h-2Z"/><path d="M712.23,607.69v3c0,7-1.29,16-14,16-9.43,0-13.52-5-13.52-15.24V584.15c0-9.67,4.83-14.77,13.74-14.77,11.75,0,13.66,7.74,13.66,15v3.49H701.3v-4.75c0-3.06-.66-4.61-2.89-4.61s-2.92,1.46-2.92,4.61v29.42c0,3,.5,5,2.92,5s3-1.7,3-5.25v-4.62Z"/></svg>